{
.appVersion = "1352";
DisplayStrings = (
"nn/Placeholder no/Placeholder oo\012abcdefghijklmnopqrstuvwxyz",
ABCDEFGHIJKLMNOPQRSTUVWXYZ,
"AÁ/Abreve/Abreveacute/Abrevedotbelow/Abrevegrave/Abrevehookabove/Abrevetilde Â/Acircumflexacute/Acircumflexdotbelow/Acircumflexgrave p/Acircumflexhookabove/Acircumflextilde/Adblgrave Ä/Adotbelow À/Ahookabove/Ainvertedbreve/Amacron/Aogonek Å/Aringacute",
"/dblgravecomb/dblgravecomb/dblgravecomb/adblgrave/edblgrave/idblgrave/odblgrave/rdblgrave/udblgrave/adblgrave.ss01/adblgrave.ss03/adblgrave.sc/edblgrave.sc/idblgrave.sc/odblgrave.sc/rdblgrave.sc/udblgrave.sc/rdblgrave",
"/aringacute",
epmbnotHO,
"/Uhorn",
abcdefghijklmnopqrstuvwxyz
);
classes = (
{
automatic = 1;

glyphs = (
{
color = 4;
glyphname = A;
lastChange = "2021-09-30 22:27:23 +0000";
layers = (
{
anchors = (
{
name = bottom;
position = "{277, -35}";
},
{
name = ogonek;
position = "{555, 10}";
},
{
name = top.case;
position = "{423, 720}";
}
);
guideLines = (
{
angle = 79;
position = "{298, 71}";
}
);
layerId = "13A5184A-77A5-4E03-80A5-A9198A2CA35F";
paths = (
{
closed = 1;
nodes = (
"3 0 LINE",
"415 677 LINE",
"417 677 LINE",
"561 0 LINE",
"601 0 LINE",
"449 700 LINE",
"388 700 LINE",
"-43 0 LINE"
);
},
{
closed = 1;
nodes = (
"528 200 LINE",
"535 236 LINE",
"110 236 LINE",
"103 200 LINE"
);
}
);
width = 654;
},
{
anchors = (
{
name = bottom;
position = "{345, -35}";
},
{
name = ogonek;
position = "{619, 10}";
},
{
name = top.case;
position = "{477, 720}";
}
);
background = {
anchors = (
{
name = ogonek;
position = "{632, -41}";
},
{
name = top.case;
position = "{478, 702}";
}
);
paths = (
{
closed = 1;
nodes = (
"196 0 LINE",
"432 473 LINE",
"436 473 LINE",
"488 0 LINE",
"722 0 LINE",
"603 700 LINE",
"354 700 LINE",
"-33 0 LINE"
);
},
{
closed = 1;
nodes = (
"510 98 LINE",
"542 261 LINE",
"246 261 LINE",
"214 98 LINE"
);
}
);
};
guideLines = (
{
angle = 79;
position = "{353, 44}";
}
);
layerId = "6D60D92C-1450-4586-BB49-599D0D4C1213";
paths = (
{
closed = 1;
nodes = (
"206 0 LINE",
"435 474 LINE",
"438 474 LINE",
"498 0 LINE",
"726 0 LINE",
"595 700 LINE",
"348 700 LINE",
"-36 0 LINE"
);
},
{
closed = 1;
nodes = (
"513 98 LINE",
"545 261 LINE",
"249 261 LINE",
"217 98 LINE"
);
}
);
width = 792;
},
{
anchors = (
{
name = bottom;
position = "{311, -35}";
},
{
name = ogonek;
position = "{580, 10}";
},
{
name = top.case;
position = "{452, 720}";
}
);
background = {
paths = (
{
closed = 1;
nodes = (
"107 0 LINE",
"426 560 LINE",
"429 560 LINE",
"525 0 LINE",
"669 0 LINE",
"531 700 LINE",
"379 700 LINE",
"-29 0 LINE"
);
},
{
closed = 1;
nodes = (
"523 139 LINE",
"545 254 LINE",
"189 254 LINE",
"167 139 LINE"
);
}
);
};
guideLines = (
{
angle = 79;
position = "{335, 86}";
},
{
position = "{163, 562}";
}
);
layerId = "74CCE9C5-5564-42E0-9214-3BF0725DF94D";
paths = (
{
closed = 1;
nodes = (
"123 0 LINE",
"423 562 LINE",
"425 562 LINE",
"525 0 LINE",
"666 0 LINE",
"524 700 LINE",
"377 700 LINE",
"-39 0 LINE"
);
},
{
closed = 1;
nodes = (
"541 146 LINE",
"565 261 LINE",
"165 261 LINE",
"141 146 LINE"
);
}
);
width = 725;
}
);
leftKerningGroup = A;
rightKerningGroup = A;
unicode = 0041;
},
{
color = 3;
glyphname = AE;
lastChange = "2021-09-30 22:27:23 +0000";
layers = (
{
anchors = (
{
name = top.case;
position = "{762, 720}";
}
);
background = {
paths = (
{
closed = 1;
nodes = (
"70 59 LINE",
"530 667 LINE",
"591 658 LINE",
"596 694 LINE",
"512 706 LINE",
"26 65 LINE"
);
},
{
closed = 1;
nodes = (
"546 317 LINE",
"551 353 LINE",
"287 389 LINE",
"281 353 LINE"
);
},
{
closed = 1;
nodes = (
"947 -60 LINE",
"953 -24 LINE",
"520 35 LINE",
"558 316 LINE",
"944 264 LINE",
"948 299 LINE",
"563 352 LINE",
"604 656 LINE",
"1030 600 LINE",
"1034 635 LINE",
"571 698 LINE",
"477 4 LINE"
);
}
);
};
layerId = "13A5184A-77A5-4E03-80A5-A9198A2CA35F";
paths = (
{
closed = 1;
nodes = (
"25 0 LINE",
"527 664 LINE",
"589 664 LINE",
"596 700 LINE",
"508 700 LINE",
"-23 0 LINE"
);
},
{
closed = 1;
nodes = (
"523 320 LINE",
"530 356 LINE",
"263 356 LINE",
"256 320 LINE"
);
},
{
closed = 1;
nodes = (
"909 0 LINE",
"916 36 LINE",
"480 36 LINE",
"535 320 LINE",
"924 320 LINE",
"931 356 LINE",
"542 356 LINE",
"602 664 LINE",
"1031 664 LINE",
"1038 700 LINE",
"570 700 LINE",
"434 0 LINE"
);
}
);
width = 1012;
},
{
anchors = (
{
name = top.case;
position = "{804, 720}";
}
);
background = {
paths = (
{
closed = 1;
nodes = (
"201 0 LINE",
"532 525 LINE",
"710 525 LINE",
"732 700 LINE",
"431 700 LINE",
"-48 0 LINE"
);
},
{
closed = 1;
nodes = (
"548 216 LINE",
"581 384 LINE",
"285 384 LINE",
"252 216 LINE"
);
},
{
closed = 1;
nodes = (
"1020 0 LINE",
"1057 192 LINE",
"717 192 LINE",
"728 248 LINE",
"1021 248 LINE",
"1056 426 LINE",
"763 426 LINE",
"779 510 LINE",
"1112 510 LINE",
"1149 700 LINE",
"593 700 LINE",
"457 0 LINE"
);
}
);
};
layerId = "6D60D92C-1450-4586-BB49-599D0D4C1213";
paths = (
{
closed = 1;
nodes = (
"207 0 LINE",
"540 525 LINE",
"710 525 LINE",
"732 700 LINE",
"421 700 LINE",
"-67 0 LINE"
);
},
{
closed = 1;
nodes = (
"548 216 LINE",
"581 384 LINE",
"285 384 LINE",
"252 216 LINE"
);
},
{
closed = 1;
nodes = (
"1020 0 LINE",
"1057 192 LINE",
"717 192 LINE",
"728 248 LINE",
"1021 248 LINE",
"1056 426 LINE",
"763 426 LINE",
"779 510 LINE",
"1112 510 LINE",
"1149 700 LINE",
"593 700 LINE",
"457 0 LINE"
);
}
);
width = 1096;
},
{
anchors = (
{
name = top.case;
position = "{792, 720}";
}
);
background = {
paths = (
{
closed = 1;
nodes = (
"132 0 LINE",
"544 576 LINE",
"667 576 LINE",
"691 700 LINE",
"484 700 LINE",
"-31 0 LINE"
);
},
{
closed = 1;
nodes = (
"612 261 LINE",
"635 381 LINE",
"279 381 LINE",
"256 261 LINE"
);
},
{
closed = 1;
nodes = (
"967 0 LINE",
"990 115 LINE",
"614 115 LINE",
"642 260 LINE",
"971 260 LINE",
"995 384 LINE",
"666 384 LINE",
"705 585 LINE",
"1074 585 LINE",
"1096 700 LINE",
"596 700 LINE",
"460 0 LINE"
);
}
);
};
layerId = "74CCE9C5-5564-42E0-9214-3BF0725DF94D";
paths = (
{
closed = 1;
nodes = (
"132 0 LINE",
"544 576 LINE",
"667 576 LINE",
"691 700 LINE",
"484 700 LINE",
"-31 0 LINE"
);
},
{
closed = 1;
nodes = (
"612 264 LINE",
"632 379 LINE",
"279 379 LINE",
"256 264 LINE"
);
},
{
closed = 1;
nodes = (
"967 0 LINE",
"990 115 LINE",
"614 115 LINE",
"643 264 LINE",
"972 264 LINE",
"994 379 LINE",
"666 379 LINE",
"705 585 LINE",
"1074 585 LINE",
"1096 700 LINE",
"596 700 LINE",
"460 0 LINE"
);
}
);
width = 1057;
}
);
leftKerningGroup = AE;
rightKerningGroup = E;
rightMetricsKey = E;
unicode = 00C6;
},
{
color = 4;
glyphname = B;
lastChange = "2021-09-30 22:27:23 +0000";
layers = (
{
background = {
paths = (
{
closed = 1;
nodes = (
"354 0 LINE SMOOTH",
"497 0 OFFCURVE",
"589 69 OFFCURVE",
"613 190 CURVE SMOOTH",
"630 277 OFFCURVE",
"587 347 OFFCURVE",
"511 362 CURVE",
"511 363 LINE",
"602 384 OFFCURVE",
"644 444 OFFCURVE",
"658 513 CURVE SMOOTH",
"680 627 OFFCURVE",
"621 700 OFFCURVE",
"492 700 CURVE SMOOTH",
"193 700 LINE",
"57 0 LINE"
);
},
{
closed = 1;
nodes = (
"163 346 LINE",
"425 346 LINE SMOOTH",
"540 346 OFFCURVE",
"590 283 OFFCURVE",
"573 195 CURVE SMOOTH",
"552 88 OFFCURVE",
"483 36 OFFCURVE",
"348 36 CURVE SMOOTH",
"103 36 LINE"
);
},
{
closed = 1;
nodes = (
"225 664 LINE",
"473 664 LINE SMOOTH",
"598 664 OFFCURVE",
"636 604 OFFCURVE",
"619 516 CURVE SMOOTH",
"602 429 OFFCURVE",
"540 382 OFFCURVE",
"433 382 CURVE SMOOTH",
"170 382 LINE"
);
}
);
};
guideLines = (
{
angle = 79;
position = "{605, 387}";
},
{
angle = 79;
position = "{642, 365}";
},
{
angle = 79;
position = "{685, 678}";
},
{
angle = 79;
position = "{644, 678}";
}
);
layerId = "13A5184A-77A5-4E03-80A5-A9198A2CA35F";
paths = (
{
closed = 1;
nodes = (
"354 0 LINE SMOOTH",
"497 0 OFFCURVE",
"589 69 OFFCURVE",
"613 190 CURVE SMOOTH",
"630 277 OFFCURVE",
"587 347 OFFCURVE",
"511 362 CURVE",
"511 363 LINE",
"602 384 OFFCURVE",
"644 444 OFFCURVE",
"658 513 CURVE SMOOTH",
"685 630 OFFCURVE",
"619 700 OFFCURVE",
"472 700 CURVE SMOOTH",
"193 700 LINE",
"57 0 LINE"
);
},
{
closed = 1;
nodes = (
"163 346 LINE",
"425 346 LINE SMOOTH",
"540 346 OFFCURVE",
"590 283 OFFCURVE",
"573 195 CURVE SMOOTH",
"552 88 OFFCURVE",
"483 36 OFFCURVE",
"348 36 CURVE SMOOTH",
"103 36 LINE"
);
},
{
closed = 1;
nodes = (
"225 664 LINE",
"463 664 LINE SMOOTH",
"596 664 OFFCURVE",
"638 604 OFFCURVE",
"619 516 CURVE SMOOTH",
"602 429 OFFCURVE",
"540 382 OFFCURVE",
"433 382 CURVE SMOOTH",
"170 382 LINE"
);
}
);
width = 679;
},
{
background = {
paths = (
{
closed = 1;
nodes = (
"417 0 LINE SMOOTH",
"576 0 OFFCURVE",
"678 92 OFFCURVE",
"702 221 CURVE SMOOTH",
"713 279 OFFCURVE",
"689 335 OFFCURVE",
"638 360 CURVE",
"638 362 LINE",
"691 400 OFFCURVE",
"719 454 OFFCURVE",
"729 504 CURVE SMOOTH",
"751 616 OFFCURVE",
"690 700 OFFCURVE",
"543 700 CURVE SMOOTH",
"140 700 LINE",
"4 0 LINE"
);
},
{
closed = 1;
nodes = (
"284 291 LINE",
"424 291 LINE SMOOTH",
"469 291 OFFCURVE",
"484 273 OFFCURVE",
"476 232 CURVE SMOOTH",
"467 188 OFFCURVE",
"436 176 OFFCURVE",
"384 176 CURVE SMOOTH",
"261 176 LINE"
);
},
{
closed = 1;
nodes = (
"331 535 LINE",
"450 535 LINE SMOOTH",
"505 535 OFFCURVE",
"523 517 OFFCURVE",
"516 479 CURVE SMOOTH",
"509 440 OFFCURVE",
"481 423 OFFCURVE",
"442 423 CURVE SMOOTH",
"309 423 LINE"
);
}
);
};
guideLines = (
{
angle = 79;
position = "{659, 0}";
},
{
angle = 79;
position = "{633, -41}";
},
{
angle = 79;
position = "{408, -77}";
},
{
angle = 79;
position = "{418, -67}";
}
);
layerId = "6D60D92C-1450-4586-BB49-599D0D4C1213";
paths = (
{
closed = 1;
nodes = (
"400 0 LINE SMOOTH",
"586 0 OFFCURVE",
"677 90 OFFCURVE",
"700 211 CURVE SMOOTH",
"710 265 OFFCURVE",
"692 335 OFFCURVE",
"633 361 CURVE",
"633 362 LINE",
"692 397 OFFCURVE",
"719 454 OFFCURVE",
"729 504 CURVE SMOOTH",
"749 602 OFFCURVE",
"702 700 OFFCURVE",
"533 700 CURVE SMOOTH",
"140 700 LINE",
"4 0 LINE"
);
},
{
closed = 1;
nodes = (
"284 291 LINE",
"420 291 LINE SMOOTH",
"466 291 OFFCURVE",
"484 273 OFFCURVE",
"476 232 CURVE SMOOTH",
"469 197 OFFCURVE",
"447 176 OFFCURVE",
"396 176 CURVE SMOOTH",
"261 176 LINE"
);
},
{
closed = 1;
nodes = (
"331 535 LINE",
"457 535 LINE SMOOTH",
"508 535 OFFCURVE",
"523 513 OFFCURVE",
"515 476 CURVE SMOOTH",
"508 440 OFFCURVE",
"485 423 OFFCURVE",
"442 423 CURVE SMOOTH",
"309 423 LINE"
);
}
);
width = 735;
},
{
background = {
paths = (
{
closed = 1;
nodes = (
"375 0 LINE SMOOTH",
"524 0 OFFCURVE",
"623 83 OFFCURVE",
"648 209 CURVE SMOOTH",
"663 285 OFFCURVE",
"626 343 OFFCURVE",
"565 362 CURVE",
"566 363 LINE",
"638 393 OFFCURVE",
"667 453 OFFCURVE",
"679 515 CURVE SMOOTH",
"700 622 OFFCURVE",
"643 700 OFFCURVE",
"500 700 CURVE SMOOTH",
"171 700 LINE",
"35 0 LINE"
);
},
{
closed = 1;
nodes = (
"224 300 LINE",
"432 300 LINE SMOOTH",
"494 300 OFFCURVE",
"525 270 OFFCURVE",
"514 212 CURVE SMOOTH",
"501 145 OFFCURVE",
"460 115 OFFCURVE",
"390 115 CURVE SMOOTH",
"188 115 LINE"
);
},
{
closed = 1;
nodes = (
"280 585 LINE",
"470 585 LINE SMOOTH",
"538 585 OFFCURVE",
"562 555 OFFCURVE",
"551 501 CURVE SMOOTH",
"539 444 OFFCURVE",
"505 415 OFFCURVE",
"445 415 CURVE SMOOTH",
"247 415 LINE"
);
}
);
};
guideLines = (
{
position = "{86, 115}";
},
{
position = "{218, 585}";
}
);
layerId = "74CCE9C5-5564-42E0-9214-3BF0725DF94D";
paths = (
{
closed = 1;
nodes = (
"366 0 LINE SMOOTH",
"530 0 OFFCURVE",
"621 73 OFFCURVE",
"645 198 CURVE SMOOTH",
"660 275 OFFCURVE",
"625 343 OFFCURVE",
"554 360 CURVE",
"554 361 LINE",
"631 388 OFFCURVE",
"676 449 OFFCURVE",
"688 512 CURVE SMOOTH",
"708 615 OFFCURVE",
"655 700 OFFCURVE",
"506 700 CURVE SMOOTH",
"170 700 LINE",
"34 0 LINE"
);
},
{
closed = 1;
nodes = (
"223 300 LINE",
"427 300 LINE SMOOTH",
"496 300 OFFCURVE",
"523 267 OFFCURVE",
"512 206 CURVE SMOOTH",
"501 144 OFFCURVE",
"464 115 OFFCURVE",
"395 115 CURVE SMOOTH",
"188 115 LINE"
);
},
{
closed = 1;
nodes = (
"276 585 LINE",
"476 585 LINE SMOOTH",
"538 585 OFFCURVE",
"561 554 OFFCURVE",
"551 501 CURVE SMOOTH",
"541 441 OFFCURVE",
"510 415 OFFCURVE",
"450 415 CURVE SMOOTH",
"245 415 LINE"
);
}
);
width = 706;
}
);
leftMetricsKey = H;
rightKerningGroup = B;
unicode = 0042;
},
{
color = 4;
glyphname = C;
lastChange = "2021-09-30 22:27:23 +0000";
layers = (
{
anchors = (
{
name = bottom;
position = "{328, -35}";
},
{
name = top.case;
position = "{519, 720}";
}
);
background = {
paths = (
{
closed = 1;
nodes = (
"438 -6 OFFCURVE",
"514 8 OFFCURVE",
"591 41 CURVE SMOOTH",
"673 75 LINE",
"659 33 LINE",
"623 110 LINE",
"678 107 LINE",
"580 71 LINE SMOOTH",
"508 45 OFFCURVE",
"439 30 OFFCURVE",
"379 30 CURVE SMOOTH",
"193 30 OFFCURVE",
"89 151 OFFCURVE",
"129 359 CURVE SMOOTH",
"169 562 OFFCURVE",
"330 674 OFFCURVE",
"510 674 CURVE SMOOTH",
"570 674 OFFCURVE",
"625 663 OFFCURVE",
"703 638 CURVE SMOOTH",
"731 629 LINE",
"710 610 LINE",
"739 670 LINE",
"759 652 LINE",
"715 669 LINE SMOOTH",
"650 694 OFFCURVE",
"581 710 OFFCURVE",
"508 710 CURVE SMOOTH",
"307 710 OFFCURVE",
"130 580 OFFCURVE",
"88 361 CURVE SMOOTH",
"44 132 OFFCURVE",
"170 -6 OFFCURVE",
"370 -6 CURVE SMOOTH"
);
}
);
};
guideLines = (
{
angle = 79;
position = "{24, 57}";
},
{
angle = 79;
position = "{65, 57}";
}
);
layerId = "13A5184A-77A5-4E03-80A5-A9198A2CA35F";
paths = (
{
closed = 1;
nodes = (
"438 -6 OFFCURVE",
"514 8 OFFCURVE",
"591 41 CURVE SMOOTH",
"673 75 LINE",
"659 33 LINE",
"623 110 LINE",
"678 107 LINE",
"580 71 LINE SMOOTH",
"508 45 OFFCURVE",
"439 30 OFFCURVE",
"379 30 CURVE SMOOTH",
"193 30 OFFCURVE",
"89 151 OFFCURVE",
"129 359 CURVE SMOOTH",
"169 562 OFFCURVE",
"330 674 OFFCURVE",
"510 674 CURVE SMOOTH",
"570 674 OFFCURVE",
"625 663 OFFCURVE",
"703 638 CURVE SMOOTH",
"731 629 LINE",
"710 610 LINE",
"739 670 LINE",
"759 652 LINE",
"715 669 LINE SMOOTH",
"650 694 OFFCURVE",
"581 710 OFFCURVE",
"508 710 CURVE SMOOTH",
"307 710 OFFCURVE",
"130 580 OFFCURVE",
"88 361 CURVE SMOOTH",
"44 132 OFFCURVE",
"170 -6 OFFCURVE",
"370 -6 CURVE SMOOTH"
);
}
);
width = 724;
},
{
anchors = (
{
name = bottom;
position = "{339, -35}";
},
{
name = top.case;
position = "{495, 720}";
}
);
guideLines = (
{
angle = 79;
position = "{114, 670}";
},
{
angle = 79;
position = "{369, 808}";
}
);
layerId = "6D60D92C-1450-4586-BB49-599D0D4C1213";
paths = (
{
closed = 1;
nodes = (
"421 -9 OFFCURVE",
"505 8 OFFCURVE",
"553 22 CURVE SMOOTH",
"670 56 LINE",
"590 1 LINE",
"581 276 LINE",
"624 208 LINE",
"549 202 LINE SMOOTH",
"491 199 OFFCURVE",
"442 195 OFFCURVE",
"402 195 CURVE SMOOTH",
"298 195 OFFCURVE",
"258 241 OFFCURVE",
"281 362 CURVE SMOOTH",
"304 477 OFFCURVE",
"364 507 OFFCURVE",
"468 507 CURVE SMOOTH",
"516 507 OFFCURVE",
"560 503 OFFCURVE",
"609 497 CURVE SMOOTH",
"672 490 LINE",
"609 429 LINE",
"705 707 LINE",
"749 654 LINE",
"676 678 LINE SMOOTH",
"639 690 OFFCURVE",
"554 709 OFFCURVE",
"483 709 CURVE SMOOTH",
"269 709 OFFCURVE",
"102 608 OFFCURVE",
"57 377 CURVE SMOOTH",
"10 133 OFFCURVE",
"129 -9 OFFCURVE",
"348 -9 CURVE SMOOTH"
);
}
);
width = 650;
},
{
anchors = (
{
name = bottom;
position = "{334, -35}";
},
{
name = top.case;
position = "{479, 720}";
}
);
background = {
paths = (
{
closed = 1;
nodes = (
"424 -8 OFFCURVE",
"503 8 OFFCURVE",
"577 37 CURVE SMOOTH",
"664 71 LINE",
"612 19 LINE",
"603 195 LINE",
"643 160 LINE",
"558 138 LINE SMOOTH",
"494 121 OFFCURVE",
"436 113 OFFCURVE",
"386 113 CURVE SMOOTH",
"246 113 OFFCURVE",
"172 189 OFFCURVE",
"203 352 CURVE SMOOTH",
"233 511 OFFCURVE",
"345 589 OFFCURVE",
"484 589 CURVE SMOOTH",
"537 589 OFFCURVE",
"583 578 OFFCURVE",
"641 567 CURVE SMOOTH",
"692 557 LINE",
"644 509 LINE",
"723 688 LINE",
"743 650 LINE",
"694 671 LINE SMOOTH",
"639 694 OFFCURVE",
"573 710 OFFCURVE",
"501 710 CURVE SMOOTH",
"300 710 OFFCURVE",
"114 582 OFFCURVE",
"69 351 CURVE SMOOTH",
"23 115 OFFCURVE",
"150 -8 OFFCURVE",
"354 -8 CURVE SMOOTH"
);
}
);
};
guideLines = (
{
angle = 79;
position = "{441, 413}";
},
{
angle = 79;
position = "{248, 582}";
},
{
angle = 79;
position = "{127, 652}";
}
);
layerId = "74CCE9C5-5564-42E0-9214-3BF0725DF94D";
paths = (
{
closed = 1;
nodes = (
"421 -10 OFFCURVE",
"499 10 OFFCURVE",
"574 39 CURVE SMOOTH",
"636 63 LINE",
"620 20 LINE",
"574 186 LINE",
"604 151 LINE",
"544 136 LINE SMOOTH",
"486 122 OFFCURVE",
"434 113 OFFCURVE",
"383 113 CURVE SMOOTH",
"244 113 OFFCURVE",
"173 194 OFFCURVE",
"205 363 CURVE SMOOTH",
"233 516 OFFCURVE",
"338 589 OFFCURVE",
"469 589 CURVE SMOOTH",
"511 589 OFFCURVE",
"557 583 OFFCURVE",
"604 572 CURVE SMOOTH",
"659 559 LINE",
"624 509 LINE",
"715 686 LINE",
"727 648 LINE",
"671 672 LINE SMOOTH",
"618 695 OFFCURVE",
"541 710 OFFCURVE",
"475 710 CURVE SMOOTH",
"279 710 OFFCURVE",
"116 607 OFFCURVE",
"74 378 CURVE SMOOTH",
"29 142 OFFCURVE",
"148 -10 OFFCURVE",
"350 -10 CURVE SMOOTH"
);
}
);
width = 691;
}
);
leftKerningGroup = O;
leftMetricsKey = O;
rightKerningGroup = C;
unicode = 0043;
},
{
color = 4;
glyphname = D;
lastChange = "2021-09-30 23:32:10 +0000";
layers = (
{
anchors = (
{
name = top.case;
position = "{440, 720}";
}
);
background = {
paths = (
{
closed = 1;
nodes = (
"395 340 LINE",
"402 376 LINE",
"-15 376 LINE",
"-22 340 LINE"
);
},
{
closed = 1;
nodes = (
"285 0 LINE SMOOTH",
"505 0 OFFCURVE",
"670 135 OFFCURVE",
"712 349 CURVE SMOOTH",
"754 563 OFFCURVE",
"644 700 OFFCURVE",
"431 700 CURVE SMOOTH",
"193 700 LINE",
"57 0 LINE"
);
},
{
closed = 1;
nodes = (
"225 664 LINE",
"421 664 LINE SMOOTH",
"614 664 OFFCURVE",
"709 545 OFFCURVE",
"671 349 CURVE SMOOTH",
"634 158 OFFCURVE",
"489 36 OFFCURVE",
"299 36 CURVE SMOOTH",
"103 36 LINE"
);
}
);
};
guideLines = (
{
angle = 79;
position = "{623, 55}";
},
{
angle = 79;
position = "{665, 61}";
}
);
layerId = "13A5184A-77A5-4E03-80A5-A9198A2CA35F";
paths = (
{
closed = 1;
nodes = (
"288 0 LINE SMOOTH",
"511 0 OFFCURVE",
"668 112 OFFCURVE",
"711 338 CURVE SMOOTH",
"752 553 OFFCURVE",
"647 700 OFFCURVE",
"423 700 CURVE SMOOTH",
"193 700 LINE",
"57 0 LINE"
);
},
{
closed = 1;
nodes = (
"225 664 LINE",
"412 664 LINE SMOOTH",
"615 664 OFFCURVE",
"710 544 OFFCURVE",
"670 338 CURVE SMOOTH",
"633 146 OFFCURVE",
"492 36 OFFCURVE",
"295 36 CURVE SMOOTH",
"103 36 LINE"
);
}
);
width = 758;
},
{
anchors = (
{
name = top.case;
position = "{432, 720}";
}
);
background = {
paths = (
{
closed = 1;
nodes = (
"280 0 LINE SMOOTH",
"524 0 OFFCURVE",
"700 124 OFFCURVE",
"744 349 CURVE SMOOTH",
"791 589 OFFCURVE",
"655 700 OFFCURVE",
"423 700 CURVE SMOOTH",
"140 700 LINE",
"4 0 LINE"
);
},
{
closed = 1;
nodes = (
"325 505 LINE",
"378 505 LINE SMOOTH",
"504 505 OFFCURVE",
"540 474 OFFCURVE",
"516 349 CURVE SMOOTH",
"495 240 OFFCURVE",
"439 195 OFFCURVE",
"318 195 CURVE SMOOTH",
"265 195 LINE"
);
}
);
};
guideLines = (
{
angle = 79;
position = "{807, 673}";
},
{
angle = 79;
position = "{560, 574}";
}
);
layerId = "6D60D92C-1450-4586-BB49-599D0D4C1213";
paths = (
{
closed = 1;
nodes = (
"286 0 LINE SMOOTH",
"538 0 OFFCURVE",
"695 100 OFFCURVE",
"740 329 CURVE SMOOTH",
"784 552 OFFCURVE",
"663 700 OFFCURVE",
"423 700 CURVE SMOOTH",
"140 700 LINE",
"4 0 LINE"
);
},
{
closed = 1;
nodes = (
"325 505 LINE",
"378 505 LINE SMOOTH",
"504 505 OFFCURVE",
"537 459 OFFCURVE",
"514 339 CURVE SMOOTH",
"494 234 OFFCURVE",
"439 195 OFFCURVE",
"318 195 CURVE SMOOTH",
"265 195 LINE"
);
}
);
width = 762;
},
{
anchors = (
{
name = top.case;
position = "{437, 720}";
}
);
background = {
paths = (
{
closed = 1;
nodes = (
"286 0 LINE SMOOTH",
"518 0 OFFCURVE",
"689 130 OFFCURVE",
"732 349 CURVE SMOOTH",
"777 576 OFFCURVE",
"653 700 OFFCURVE",
"431 700 CURVE SMOOTH",
"170 700 LINE",
"34 0 LINE"
);
},
{
closed = 1;
nodes = (
"279 585 LINE",
"405 585 LINE SMOOTH",
"564 585 OFFCURVE",
"629 509 OFFCURVE",
"598 349 CURVE SMOOTH",
"569 199 OFFCURVE",
"468 115 OFFCURVE",
"313 115 CURVE SMOOTH",
"187 115 LINE"
);
}
);
};
layerId = "74CCE9C5-5564-42E0-9214-3BF0725DF94D";
paths = (
{
closed = 1;
nodes = (
"282 0 LINE SMOOTH",
"524 0 OFFCURVE",
"686 106 OFFCURVE",
"731 334 CURVE SMOOTH",
"774 553 OFFCURVE",
"660 700 OFFCURVE",
"428 700 CURVE SMOOTH",
"170 700 LINE",
"34 0 LINE"
);
},
{
closed = 1;
nodes = (
"279 585 LINE",
"402 585 LINE SMOOTH",
"568 585 OFFCURVE",
"629 495 OFFCURVE",
"598 339 CURVE SMOOTH",
"569 194 OFFCURVE",
"468 115 OFFCURVE",
"310 115 CURVE SMOOTH",
"187 115 LINE"
);
}
);
width = 765;
}
);
leftMetricsKey = H;
rightKerningGroup = O;
rightMetricsKey = O;
unicode = 0044;
},
{
color = 3;
glyphname = Eth;
lastChange = "2021-09-30 23:32:10 +0000";
layers = (
{
background = {
paths = (
{
closed = 1;
nodes = (
"455 340 LINE",
"462 376 LINE",
"45 376 LINE",
"38 340 LINE"
);
},
{
closed = 1;
nodes = (
"345 0 LINE SMOOTH",
"565 0 OFFCURVE",
"730 135 OFFCURVE",
"772 349 CURVE SMOOTH",
"814 563 OFFCURVE",
"704 700 OFFCURVE",
"491 700 CURVE SMOOTH",
"253 700 LINE",
"117 0 LINE"
);
},
{
closed = 1;
nodes = (
"285 664 LINE",
"481 664 LINE SMOOTH",
"674 664 OFFCURVE",
"769 545 OFFCURVE",
"731 349 CURVE SMOOTH",
"694 158 OFFCURVE",
"549 36 OFFCURVE",
"359 36 CURVE SMOOTH",
"163 36 LINE"
);
}
);
};
components = (
{
name = D;
transform = "{1, 0, 0, 1, 61, 0}";
}
);
layerId = "13A5184A-77A5-4E03-80A5-A9198A2CA35F";
paths = (
{
closed = 1;
nodes = (
"456 340 LINE",
"462 376 LINE",
"45 376 LINE",
"39 340 LINE"
);
}
);
width = 819;
},
{
background = {
paths = (
{
closed = 1;
nodes = (
"411 289 LINE",
"434 406 LINE",
"26 406 LINE",
"3 289 LINE"
);
},
{
closed = 1;
nodes = (
"298 0 LINE SMOOTH",
"542 0 OFFCURVE",
"718 124 OFFCURVE",
"762 349 CURVE SMOOTH",
"809 589 OFFCURVE",
"673 700 OFFCURVE",
"441 700 CURVE SMOOTH",
"158 700 LINE",
"22 0 LINE"
);
},
{
closed = 1;
nodes = (
"342 499 LINE",
"395 499 LINE SMOOTH",
"521 499 OFFCURVE",
"557 469 OFFCURVE",
"534 349 CURVE SMOOTH",
"514 244 OFFCURVE",
"458 201 OFFCURVE",
"337 201 CURVE SMOOTH",
"284 201 LINE"
);
}
);
};
components = (
{
name = D;
transform = "{1, 0, 0, 1, 20, 0}";
}
);
layerId = "6D60D92C-1450-4586-BB49-599D0D4C1213";
paths = (
{
closed = 1;
nodes = (
"411 289 LINE",
"434 406 LINE",
"26 406 LINE",
"3 289 LINE"
);
}
);
width = 782;
},
{
background = {
paths = (
{
closed = 1;
nodes = (
"445 311 LINE",
"463 400 LINE",
"45 400 LINE",
"27 311 LINE"
);
},
{
closed = 1;
nodes = (
"327 0 LINE SMOOTH",
"559 0 OFFCURVE",
"730 130 OFFCURVE",
"773 349 CURVE SMOOTH",
"818 576 OFFCURVE",
"694 700 OFFCURVE",
"472 700 CURVE SMOOTH",
"211 700 LINE",
"75 0 LINE"
);
},
{
closed = 1;
nodes = (
"319 582 LINE",
"444 582 LINE SMOOTH",
"603 582 OFFCURVE",
"669 507 OFFCURVE",
"638 349 CURVE SMOOTH",
"609 201 OFFCURVE",
"509 119 OFFCURVE",
"354 119 CURVE SMOOTH",
"229 119 LINE"
);
}
);
};
components = (
{
name = D;
transform = "{1, 0, 0, 1, 40, 0}";
}
);
layerId = "74CCE9C5-5564-42E0-9214-3BF0725DF94D";
paths = (
{
closed = 1;
nodes = (
"445 311 LINE",
"463 400 LINE",
"45 400 LINE",
"27 311 LINE"
);
}
);
width = 805;
}
);
leftKerningGroup = Eth;
rightKerningGroup = O;
rightMetricsKey = D;
unicode = 00D0;
},
{
color = 4;
glyphname = E;
lastChange = "2021-09-30 22:27:23 +0000";
layers = (
{
anchors = (
{
name = bottom;
position = "{311, -35}";
},
{
name = ogonek;
position = "{479, 10}";
},
{
name = top.case;
position = "{455, 720}";
}
);
layerId = "13A5184A-77A5-4E03-80A5-A9198A2CA35F";
paths = (
{
closed = 1;
nodes = (
"552 0 LINE",
"559 36 LINE",
"103 36 LINE",
"162 340 LINE",
"571 340 LINE",
"578 376 LINE",
"169 376 LINE",
"225 664 LINE",
"674 664 LINE",
"681 700 LINE",
"193 700 LINE",
"57 0 LINE"
);
}
);
width = 655;
},
{
anchors = (
{
name = bottom;
position = "{296, -35}";
},
{
name = ogonek;
position = "{457, 10}";
},
{
name = top.case;
position = "{430, 709}";
}
);
background = {
paths = (
{
closed = 1;
nodes = (
"582 0 LINE",
"619 192 LINE",
"264 192 LINE",
"280 272 LINE",
"588 272 LINE",
"620 437 LINE",
"312 437 LINE",
"326 510 LINE",
"674 510 LINE",
"711 700 LINE",
"140 700 LINE",
"4 0 LINE"
);
}
);
};
layerId = "6D60D92C-1450-4586-BB49-599D0D4C1213";
paths = (
{
closed = 1;
nodes = (
"582 0 LINE",
"619 192 LINE",
"264 192 LINE",
"280 272 LINE",
"588 272 LINE",
"620 437 LINE",
"312 437 LINE",
"326 510 LINE",
"674 510 LINE",
"711 700 LINE",
"140 700 LINE",
"4 0 LINE"
);
}
);
width = 658;
},
{
anchors = (
{
name = bottom;
position = "{295, -35}";
},
{
name = ogonek;
position = "{471, 10}";
},
{
name = top.case;
position = "{436, 715}";
}
);
background = {
paths = (
{
closed = 1;
nodes = (
"567 0 LINE",
"589 115 LINE",
"188 115 LINE",
"224 301 LINE",
"578 301 LINE",
"601 416 LINE",
"247 416 LINE",
"280 585 LINE",
"674 585 LINE",
"696 700 LINE",
"171 700 LINE",
"35 0 LINE"
);
}
);
};
guideLines = (
{
position = "{214, 585}";
},
{
position = "{204, 416}";
},
{
position = "{204, 301}";
},
{
position = "{183, 116}";
}
);
layerId = "74CCE9C5-5564-42E0-9214-3BF0725DF94D";
paths = (
{
closed = 1;
nodes = (
"566 0 LINE",
"589 115 LINE",
"188 115 LINE",
"224 301 LINE",
"578 301 LINE",
"601 416 LINE",
"246 416 LINE",
"279 585 LINE",
"673 585 LINE",
"695 700 LINE",
"170 700 LINE",
"34 0 LINE"
);
}
);
width = 656;
}
);
leftMetricsKey = H;
rightKerningGroup = E;
unicode = 0045;
},
{
color = 4;
glyphname = F;
lastChange = "2021-09-30 22:27:23 +0000";
layers = (
{
layerId = "13A5184A-77A5-4E03-80A5-A9198A2CA35F";
paths = (
{
closed = 1;
nodes = (
"96 0 LINE",
"162 340 LINE",
"551 340 LINE",
"558 376 LINE",
"169 376 LINE",
"225 664 LINE",
"654 664 LINE",
"661 700 LINE",
"193 700 LINE",
"57 0 LINE"
);
}
);
width = 608;
},
{
background = {
paths = (
{
closed = 1;
nodes = (
"227 0 LINE",
"273 237 LINE",
"569 237 LINE",
"601 402 LINE",
"305 402 LINE",
"325 505 LINE",
"661 505 LINE",
"699 700 LINE",
"140 700 LINE",
"4 0 LINE"
);
}
);
};
layerId = "6D60D92C-1450-4586-BB49-599D0D4C1213";
paths = (
{
closed = 1;
nodes = (
"227 0 LINE",
"273 237 LINE",
"569 237 LINE",
"601 402 LINE",
"305 402 LINE",
"325 505 LINE",
"661 505 LINE",
"699 700 LINE",
"140 700 LINE",
"4 0 LINE"
);
}
);
width = 629;
},
{
background = {
paths = (
{
closed = 1;
nodes = (
"165 0 LINE",
"220 285 LINE",
"542 285 LINE",
"566 409 LINE",
"244 409 LINE",
"277 576 LINE",
"639 576 LINE",
"663 700 LINE",
"170 700 LINE",
"34 0 LINE"
);
}
);
};
guideLines = (
{
position = "{214, 585}";
},
{
position = "{191, 406}";
},
{
position = "{170, 291}";
}
);
layerId = "74CCE9C5-5564-42E0-9214-3BF0725DF94D";
paths = (
{
closed = 1;
nodes = (
"166 0 LINE",
"222 291 LINE",
"543 291 LINE",
"565 406 LINE",
"244 406 LINE",
"280 585 LINE",
"641 585 LINE",
"663 700 LINE",
"170 700 LINE",
"34 0 LINE"
);
}
);
width = 604;
}
);
leftMetricsKey = H;
unicode = 0046;
},
{
color = 4;
glyphname = G;
lastChange = "2021-09-30 22:27:23 +0000";
layers = (
{
anchors = (
{
name = bottom;
position = "{414, -35}";
},
{
name = top.case;
position = "{547, 720}";
}
);
background = {
paths = (
{
closed = 1;
nodes = (
"453 3 OFFCURVE",
"528 18 OFFCURVE",
"605 50 CURVE SMOOTH",
"688 84 LINE",
"673 42 LINE",
"638 119 LINE",
"692 116 LINE",
"595 80 LINE SMOOTH",
"522 54 OFFCURVE",
"454 39 OFFCURVE",
"394 39 CURVE SMOOTH",
"208 39 OFFCURVE",
"104 160 OFFCURVE",
"144 368 CURVE SMOOTH",
"183 571 OFFCURVE",
"345 683 OFFCURVE",
"524 683 CURVE SMOOTH",
"584 683 OFFCURVE",
"640 672 OFFCURVE",
"717 647 CURVE SMOOTH",
"746 638 LINE",
"725 619 LINE",
"753 679 LINE",
"773 661 LINE",
"729 678 LINE SMOOTH",
"665 703 OFFCURVE",
"596 719 OFFCURVE",
"522 719 CURVE SMOOTH",
"321 719 OFFCURVE",
"145 589 OFFCURVE",
"103 370 CURVE SMOOTH",
"59 141 OFFCURVE",
"185 3 OFFCURVE",
"384 3 CURVE SMOOTH"
);
}
);
};
guideLines = (
{
angle = 79;
position = "{24, 50}";
},
{
angle = 79;
position = "{64, 40}";
}
);
layerId = "13A5184A-77A5-4E03-80A5-A9198A2CA35F";
paths = (
{
closed = 1;
nodes = (
"515 -10 OFFCURVE",
"596 8 OFFCURVE",
"676 38 CURVE",
"736 343 LINE",
"432 343 LINE",
"424 307 LINE",
"690 307 LINE",
"637 31 LINE",
"651 62 LINE",
"584 40 OFFCURVE",
"506 26 OFFCURVE",
"446 26 CURVE SMOOTH",
"206 26 OFFCURVE",
"90 155 OFFCURVE",
"129 360 CURVE SMOOTH",
"170 568 OFFCURVE",
"345 674 OFFCURVE",
"539 674 CURVE SMOOTH",
"592 674 OFFCURVE",
"647 668 OFFCURVE",
"702 651 CURVE SMOOTH",
"752 637 LINE",
"725 619 LINE",
"757 689 LINE",
"765 666 LINE",
"717 682 LINE SMOOTH",
"668 699 OFFCURVE",
"605 710 OFFCURVE",
"545 710 CURVE SMOOTH",
"333 710 OFFCURVE",
"134 598 OFFCURVE",
"89 367 CURVE SMOOTH",
"45 137 OFFCURVE",
"179 -10 OFFCURVE",
"442 -10 CURVE SMOOTH"
);
}
);
width = 802;
},
{
anchors = (
{
name = bottom;
position = "{358, -35}";
},
{
name = top.case;
position = "{499, 720}";
}
);
background = {
paths = (
{
closed = 1;
nodes = (
"473 -9 OFFCURVE",
"596 25 OFFCURVE",
"671 69 CURVE",
"736 404 LINE",
"398 404 LINE",
"370 255 LINE",
"523 255 LINE",
"503 154 LINE",
"534 198 LINE",
"487 187 OFFCURVE",
"449 184 OFFCURVE",
"409 184 CURVE SMOOTH",
"303 184 OFFCURVE",
"256 226 OFFCURVE",
"280 348 CURVE SMOOTH",
"305 474 OFFCURVE",
"373 514 OFFCURVE",
"483 514 CURVE SMOOTH",
"525 514 OFFCURVE",
"573 508 OFFCURVE",
"627 499 CURVE SMOOTH",
"715 484 LINE",
"642 429 LINE",
"753 707 LINE",
"807 624 LINE",
"704 669 LINE SMOOTH",
"644 695 OFFCURVE",
"580 709 OFFCURVE",
"513 709 CURVE SMOOTH",
"293 709 OFFCURVE",
"98 586 OFFCURVE",
"52 350 CURVE SMOOTH",
"10 133 OFFCURVE",
"122 -9 OFFCURVE",
"362 -9 CURVE SMOOTH"
);
}
);
};
guideLines = (
{
angle = 79;
position = "{0, 78}";
},
{
angle = 79;
position = "{650, -42}";
}
);
layerId = "6D60D92C-1450-4586-BB49-599D0D4C1213";
paths = (
{
closed = 1;
nodes = (
"472 -9 OFFCURVE",
"596 21 OFFCURVE",
"670 61 CURVE",
"737 404 LINE",
"399 404 LINE",
"371 255 LINE",
"524 255 LINE",
"504 154 LINE",
"535 198 LINE",
"488 187 OFFCURVE",
"450 184 OFFCURVE",
"410 184 CURVE SMOOTH",
"304 184 OFFCURVE",
"257 226 OFFCURVE",
"282 358 CURVE SMOOTH",
"305 475 OFFCURVE",
"367 514 OFFCURVE",
"488 514 CURVE SMOOTH",
"526 514 OFFCURVE",
"575 508 OFFCURVE",
"626 499 CURVE SMOOTH",
"715 484 LINE",
"643 429 LINE",
"754 707 LINE",
"792 633 LINE",
"704 667 LINE SMOOTH",
"637 693 OFFCURVE",
"543 709 OFFCURVE",
"479 709 CURVE SMOOTH",
"268 709 OFFCURVE",
"103 609 OFFCURVE",
"57 377 CURVE SMOOTH",
"16 169 OFFCURVE",
"135 -9 OFFCURVE",
"363 -9 CURVE SMOOTH"
);
}
);
width = 739;
},
{
anchors = (
{
name = bottom;
position = "{387, -35}";
},
{
name = top.case;
position = "{519, 720}";
}
);
background = {
paths = (
{
closed = 1;
nodes = (
"494 -10 OFFCURVE",
"596 17 OFFCURVE",
"674 54 CURVE",
"741 396 LINE",
"420 396 LINE",
"398 281 LINE",
"588 281 LINE",
"551 93 LINE",
"593 130 LINE",
"536 114 OFFCURVE",
"478 105 OFFCURVE",
"428 105 CURVE SMOOTH",
"256 105 OFFCURVE",
"172 187 OFFCURVE",
"204 350 CURVE SMOOTH",
"236 513 OFFCURVE",
"358 589 OFFCURVE",
"510 589 CURVE SMOOTH",
"557 589 OFFCURVE",
"609 582 OFFCURVE",
"663 569 CURVE SMOOTH",
"731 553 LINE",
"684 524 LINE",
"757 698 LINE",
"785 644 LINE",
"712 675 LINE SMOOTH",
"656 699 OFFCURVE",
"593 710 OFFCURVE",
"530 710 CURVE SMOOTH",
"313 710 OFFCURVE",
"116 585 OFFCURVE",
"70 351 CURVE SMOOTH",
"26 126 OFFCURVE",
"149 -10 OFFCURVE",
"403 -10 CURVE SMOOTH"
);
}
);
};
layerId = "74CCE9C5-5564-42E0-9214-3BF0725DF94D";
paths = (
{
closed = 1;
nodes = (
"477 -10 OFFCURVE",
"597 17 OFFCURVE",
"674 54 CURVE",
"741 396 LINE",
"421 396 LINE",
"399 281 LINE",
"588 281 LINE",
"551 93 LINE",
"576 128 LINE",
"521 113 OFFCURVE",
"466 105 OFFCURVE",
"418 105 CURVE SMOOTH",
"252 105 OFFCURVE",
"174 198 OFFCURVE",
"204 354 CURVE SMOOTH",
"237 518 OFFCURVE",
"345 589 OFFCURVE",
"500 589 CURVE SMOOTH",
"541 589 OFFCURVE",
"587 583 OFFCURVE",
"633 572 CURVE SMOOTH",
"687 559 LINE",
"645 509 LINE",
"736 686 LINE",
"746 653 LINE",
"693 674 LINE SMOOTH",
"643 693 OFFCURVE",
"573 710 OFFCURVE",
"508 710 CURVE SMOOTH",
"300 710 OFFCURVE",
"119 605 OFFCURVE",
"73 372 CURVE SMOOTH",
"33 153 OFFCURVE",
"153 -10 OFFCURVE",
"389 -10 CURVE SMOOTH"
);
}
);
width = 757;
}
);
leftKerningGroup = O;
leftMetricsKey = O;
rightKerningGroup = G;
unicode = 0047;
},
{
color = 4;
glyphname = H;
lastChange = "2021-09-30 22:27:23 +0000";
layers = (
{
anchors = (
{
name = top.case;
position = "{472, 720}";
}
);
layerId = "13A5184A-77A5-4E03-80A5-A9198A2CA35F";
paths = (
{
closed = 1;
nodes = (
"96 0 LINE",
"163 346 LINE",
"635 346 LINE",
"568 0 LINE",
"607 0 LINE",
"743 700 LINE",
"704 700 LINE",
"642 382 LINE",
"170 382 LINE",
"232 700 LINE",
"193 700 LINE",
"57 0 LINE"
);
}
);
width = 760;
},
{
anchors = (
{
name = top.case;
position = "{471, 720}";
}
);
layerId = "6D60D92C-1450-4586-BB49-599D0D4C1213";
paths = (
{
closed = 1;
nodes = (
"227 0 LINE",
"276 253 LINE",
"495 253 LINE",
"446 0 LINE",
"669 0 LINE",
"805 700 LINE",
"582 700 LINE",
"535 458 LINE",
"316 458 LINE",
"363 700 LINE",
"140 700 LINE",
"4 0 LINE"
);
}
);
width = 775;
},
{
anchors = (
{
name = top.case;
position = "{466, 720}";
}
);
background = {
paths = (
{
closed = 1;
nodes = (
"165 0 LINE",
"223 299 LINE",
"546 299 LINE",
"488 0 LINE",
"619 0 LINE",
"755 700 LINE",
"624 700 LINE",
"570 423 LINE",
"247 423 LINE",
"301 700 LINE",
"170 700 LINE",
"34 0 LINE"
);
}
);
};
guideLines = (
{
position = "{178, 418}";
},
{
position = "{157, 303}";
}
);
layerId = "74CCE9C5-5564-42E0-9214-3BF0725DF94D";
paths = (
{
closed = 1;
nodes = (
"165 0 LINE",
"224 303 LINE",
"547 303 LINE",
"488 0 LINE",
"619 0 LINE",
"755 700 LINE",
"624 700 LINE",
"569 418 LINE",
"246 418 LINE",
"301 700 LINE",
"170 700 LINE",
"34 0 LINE"
);
}
);
width = 751;
}
);
unicode = 0048;
},
{
color = 3;
glyphname = Hbar;
lastChange = "2021-09-30 22:27:23 +0000";
layers = (
{
components = (
{
name = H;
transform = "{1, 0, 0, 1, 26, 0}";
}
);
layerId = "13A5184A-77A5-4E03-80A5-A9198A2CA35F";
paths = (
{
closed = 1;
nodes = (
"859 518 LINE",
"865 554 LINE",
"65 554 LINE",
"59 518 LINE"
);
}
);
width = 811;
},
{
components = (
{
name = H;
transform = "{1, 0, 0, 1, 17, 0}";
}
);
layerId = "6D60D92C-1450-4586-BB49-599D0D4C1213";
paths = (
{
closed = 1;
nodes = (
"847 517 LINE",
"870 635 LINE",
"85 635 LINE",
"62 517 LINE"
);
}
);
width = 805;
},
{
background = {
paths = (
{
closed = 1;
nodes = (
"852 521 LINE",
"872 625 LINE",
"80 625 LINE",
"60 521 LINE"
);
}
);
};
components = (
{
alignment = -1;
name = H;
transform = "{1, 0, 0, 1, 28, 0}";
}
);
layerId = "74CCE9C5-5564-42E0-9214-3BF0725DF94D";
paths = (
{
closed = 1;
nodes = (
"853 529 LINE",
"871 617 LINE",
"79 617 LINE",
"61 529 LINE"
);
}
);
width = 808;
}
);
unicode = 0126;
},
{
color = 4;
glyphname = I;
lastChange = "2021-09-30 22:27:23 +0000";
layers = (
{
anchors = (
{
name = bottom;
position = "{67, -35}";
},
{
name = ogonek;
position = "{38, 10}";
},
{
name = top.case;
position = "{217, 720}";
}
);
layerId = "13A5184A-77A5-4E03-80A5-A9198A2CA35F";
paths = (
{
closed = 1;
nodes = (
"96 0 LINE",
"232 700 LINE",
"193 700 LINE",
"57 0 LINE"
);
}
);
width = 249;
},
{
anchors = (
{
name = bottom;
position = "{98, -35}";
},
{
name = ogonek;
position = "{100, 10}";
},
{
name = top.case;
position = "{256, 720}";
}
);
layerId = "6D60D92C-1450-4586-BB49-599D0D4C1213";
paths = (
{
closed = 1;
nodes = (
"227 0 LINE",
"363 700 LINE",
"140 700 LINE",
"4 0 LINE"
);
}
);
width = 333;
},
{
anchors = (
{
name = bottom;
position = "{88, -35}";
},
{
name = ogonek;
position = "{72, 10}";
},
{
name = top.case;
position = "{240, 720}";
}
);
layerId = "74CCE9C5-5564-42E0-9214-3BF0725DF94D";
paths = (
{
closed = 1;
nodes = (
"165 0 LINE",
"301 700 LINE",
"170 700 LINE",
"34 0 LINE"
);
}
);
width = 297;
}
);
leftMetricsKey = H;
rightMetricsKey = H;
unicode = 0049;
},
{
color = 4;
glyphname = J;
lastChange = "2021-09-30 23:32:10 +0000";
layers = (
{
anchors = (
{
name = top.case;
position = "{487, 720}";
}
);
background = {
paths = (
{
closed = 1;
nodes = (
"294 -10 OFFCURVE",
"380 49 OFFCURVE",
"409 198 CURVE SMOOTH",
"507 700 LINE",
"468 700 LINE",
"370 196 LINE SMOOTH",
"346 70 OFFCURVE",
"273 26 OFFCURVE",
"157 26 CURVE SMOOTH",
"102 26 OFFCURVE",
"70 31 OFFCURVE",
"36 38 CURVE SMOOTH",
"-9 48 LINE",
"19 63 LINE",
"-10 0 LINE",
"-20 18 LINE",
"24 7 LINE SMOOTH",
"74 -5 OFFCURVE",
"113 -10 OFFCURVE",
"153 -10 CURVE SMOOTH"
);
}
);
};
layerId = "13A5184A-77A5-4E03-80A5-A9198A2CA35F";
paths = (
{
closed = 1;
nodes = (
"293 -10 OFFCURVE",
"374 46 OFFCURVE",
"404 198 CURVE SMOOTH",
"502 700 LINE",
"463 700 LINE",
"365 196 LINE SMOOTH",
"341 70 OFFCURVE",
"268 26 OFFCURVE",
"152 26 CURVE SMOOTH",
"97 26 OFFCURVE",
"65 30 OFFCURVE",
"31 36 CURVE SMOOTH",
"-14 44 LINE",
"11 65 LINE",
"-15 0 LINE",
"-25 18 LINE",
"19 7 LINE SMOOTH",
"69 -5 OFFCURVE",
"108 -10 OFFCURVE",
"148 -10 CURVE SMOOTH"
);
}
);
width = 504;
},
{
anchors = (
{
name = top.case;
position = "{510, 720}";
}
);
background = {
anchors = (
{
name = top.case;
position = "{510, 720}";
}
);
paths = (
{
closed = 1;
nodes = (
"370 -9 OFFCURVE",
"500 87 OFFCURVE",
"534 264 CURVE SMOOTH",
"619 700 LINE",
"396 700 LINE",
"311 265 LINE SMOOTH",
"303 223 OFFCURVE",
"267 196 OFFCURVE",
"214 196 CURVE SMOOTH",
"184 196 OFFCURVE",
"153 196 OFFCURVE",
"117 201 CURVE SMOOTH",
"24 213 LINE",
"85 279 LINE",
"-39 0 LINE",
"-64 48 LINE",
"14 22 LINE SMOOTH",
"76 1 OFFCURVE",
"129 -9 OFFCURVE",
"184 -9 CURVE SMOOTH"
);
}
);
};
layerId = "6D60D92C-1450-4586-BB49-599D0D4C1213";
paths = (
{
closed = 1;
nodes = (
"385 -9 OFFCURVE",
"494 65 OFFCURVE",
"524 216 CURVE SMOOTH",
"619 700 LINE",
"396 700 LINE",
"311 265 LINE SMOOTH",
"302 218 OFFCURVE",
"274 196 OFFCURVE",
"214 196 CURVE SMOOTH",
"184 196 OFFCURVE",
"148 198 OFFCURVE",
"115 202 CURVE SMOOTH",
"24 213 LINE",
"85 279 LINE",
"-39 0 LINE",
"-64 55 LINE",
"18 27 LINE SMOOTH",
"80 6 OFFCURVE",
"149 -9 OFFCURVE",
"203 -9 CURVE SMOOTH"
);
}
);
width = 574;
},
{
anchors = (
{
name = top.case;
position = "{502, 720}";
}
);
background = {
paths = (
{
closed = 1;
nodes = (
"340 -10 OFFCURVE",
"438 61 OFFCURVE",
"471 231 CURVE SMOOTH",
"562 700 LINE",
"431 700 LINE",
"341 236 LINE SMOOTH",
"324 152 OFFCURVE",
"269 116 OFFCURVE",
"185 116 CURVE SMOOTH",
"142 116 OFFCURVE",
"111 118 OFFCURVE",
"65 124 CURVE SMOOTH",
"6 131 LINE",
"53 176 LINE",
"-26 0 LINE",
"-42 34 LINE",
"20 14 LINE SMOOTH",
"74 -3 OFFCURVE",
"120 -10 OFFCURVE",
"167 -10 CURVE SMOOTH"
);
}
);
};
layerId = "74CCE9C5-5564-42E0-9214-3BF0725DF94D";
paths = (
{
closed = 1;
nodes = (
"340 -10 OFFCURVE",
"438 61 OFFCURVE",
"471 231 CURVE SMOOTH",
"562 700 LINE",
"431 700 LINE",
"340 231 LINE SMOOTH",
"324 147 OFFCURVE",
"268 111 OFFCURVE",
"184 111 CURVE SMOOTH",
"141 111 OFFCURVE",
"110 114 OFFCURVE",
"64 119 CURVE SMOOTH",
"5 126 LINE",
"53 176 LINE",
"-26 0 LINE",
"-42 34 LINE",
"20 14 LINE SMOOTH",
"74 -3 OFFCURVE",
"120 -10 OFFCURVE",
"167 -10 CURVE SMOOTH"
);
}
);
width = 540;
}
);
leftKerningGroup = J;
rightKerningGroup = U;
rightMetricsKey = U;
unicode = 004A;
},
{
glyphname = K;
lastChange = "2021-09-30 22:27:23 +0000";
layers = (
{
anchors = (
{
name = bottom;
position = "{295, -35}";
}
);
background = {
anchors = (
{
name = bottom;
position = "{374, -13}";
}
);
paths = (
{
closed = 1;
nodes = (
"613 -2 LINE",
"330 370 LINE",
"669 695 LINE",
"622 700 LINE",
"299 387 LINE",
"189 399 LINE",
"185 363 LINE",
"295 352 LINE",
"564 3 LINE"
);
},
{
closed = 1;
nodes = (
"163 45 LINE",
"236 741 LINE",
"197 745 LINE",
"124 49 LINE"
);
}
);
};
layerId = "13A5184A-77A5-4E03-80A5-A9198A2CA35F";
paths = (
{
closed = 1;
nodes = (
"549 0 LINE",
"293 338 LINE",
"668 700 LINE",
"617 700 LINE",
"263 355 LINE",
"154 355 LINE",
"147 319 LINE",
"259 319 LINE",
"504 0 LINE"
);
},
{
closed = 1;
nodes = (
"96 0 LINE",
"232 700 LINE",
"193 700 LINE",
"57 0 LINE"
);
}
);
width = 612;
},
{
anchors = (
{
name = bottom;
position = "{329, -35}";
}
);
background = {
paths = (
{
closed = 1;
nodes = (
"677 0 LINE",
"516 356 LINE",
"801 700 LINE",
"545 700 LINE",
"340 436 LINE",
"236 437 LINE",
"203 272 LINE",
"308 272 LINE",
"431 0 LINE"
);
},
{
closed = 1;
nodes = (
"227 0 LINE",
"363 700 LINE",
"140 700 LINE",
"4 0 LINE"
);
}
);
};
guideLines = (
{
position = "{388, 436}";
},
{
position = "{388, 272}";
}
);
layerId = "6D60D92C-1450-4586-BB49-599D0D4C1213";
paths = (
{
closed = 1;
nodes = (
"677 0 LINE",
"522 356 LINE",
"801 700 LINE",
"545 700 LINE",
"348 436 LINE",
"236 437 LINE",
"203 272 LINE",
"316 272 LINE",
"431 0 LINE"
);
},
{
closed = 1;
nodes = (
"227 0 LINE",
"363 700 LINE",
"140 700 LINE",
"4 0 LINE"
);
}
);
width = 738;
},
{
anchors = (
{
name = bottom;
position = "{314, -35}";
}
);
background = {
anchors = (
{
name = bottom;
position = "{341, -29}";
}
);
paths = (
{
closed = 1;
nodes = (
"617 0 LINE",
"414 357 LINE",
"736 700 LINE",
"578 700 LINE",
"306 406 LINE",
"204 406 LINE",
"160 291 LINE",
"292 291 LINE",
"450 0 LINE"
);
},
{
closed = 1;
nodes = (
"166 0 LINE",
"302 700 LINE",
"171 700 LINE",
"35 0 LINE"
);
}
);
};
layerId = "74CCE9C5-5564-42E0-9214-3BF0725DF94D";
paths = (
{
closed = 1;
nodes = (
"616 0 LINE",
"413 357 LINE",
"735 700 LINE",
"578 700 LINE",
"305 406 LINE",
"203 406 LINE",
"158 291 LINE",
"298 291 LINE",
"473 0 LINE"
);
},
{
closed = 1;
nodes = (
"165 0 LINE",
"301 700 LINE",
"170 700 LINE",
"34 0 LINE"
);
}
);
width = 683;
}
);
leftMetricsKey = H;
rightKerningGroup = K;
unicode = 004B;
},
{
color = 4;
glyphname = L;
lastChange = "2021-09-30 22:27:23 +0000";
layers = (
{
anchors = (
{
name = bottom;
position = "{285, -35}";
},
{
name = caron;
position = "{421, 413}";
},
{
name = top.case;
position = "{216, 720}";
}
);
layerId = "13A5184A-77A5-4E03-80A5-A9198A2CA35F";
paths = (
{
closed = 1;
nodes = (
"522 0 LINE",
"529 36 LINE",
"103 36 LINE",
"232 700 LINE",
"193 700 LINE",
"57 0 LINE"
);
}
);
width = 600;
},
{
anchors = (
{
name = bottom;
position = "{279, -35}";
},
{
name = caron;
position = "{544, 413}";
},
{
name = top.case;
position = "{250, 720}";
}
);
background = {
paths = (
{
closed = 1;
nodes = (
"549 0 LINE",
"587 195 LINE",
"266 195 LINE",
"364 700 LINE",
"141 700 LINE",
"5 0 LINE"
);
}
);
};
layerId = "6D60D92C-1450-4586-BB49-599D0D4C1213";
paths = (
{
closed = 1;
nodes = (
"548 0 LINE",
"586 195 LINE",
"265 195 LINE",
"363 700 LINE",
"140 700 LINE",
"4 0 LINE"
);
}
);
width = 614;
},
{
anchors = (
{
name = bottom;
position = "{298, -35}";
},
{
name = caron;
position = "{465, 413}";
},
{
name = top.case;
position = "{237, 720}";
}
);
background = {
paths = (
{
closed = 1;
nodes = (
"534 0 LINE",
"556 115 LINE",
"187 115 LINE",
"301 700 LINE",
"170 700 LINE",
"34 0 LINE"
);
}
);
};
layerId = "74CCE9C5-5564-42E0-9214-3BF0725DF94D";
paths = (
{
closed = 1;
nodes = (
"534 0 LINE",
"556 115 LINE",
"187 115 LINE",
"301 700 LINE",
"170 700 LINE",
"34 0 LINE"
);
}
);
width = 607;
}
);
leftMetricsKey = H;
rightKerningGroup = L;
unicode = 004C;
},
{
color = 3;
glyphname = Lslash;
lastChange = "2021-09-30 22:27:23 +0000";
layers = (
{
background = {
paths = (
{
closed = 1;
nodes = (
"456 358 LINE",
"449 393 LINE",
"35 258 LINE",
"41 222 LINE"
);
},
{
closed = 1;
nodes = (
"585 0 LINE",
"592 36 LINE",
"166 36 LINE",
"295 700 LINE",
"256 700 LINE",
"120 0 LINE"
);
}
);
};
components = (
{
name = L;
transform = "{1, 0, 0, 1, 63, 0}";
}
);
layerId = "13A5184A-77A5-4E03-80A5-A9198A2CA35F";
paths = (
{
closed = 1;
nodes = (
"458 358 LINE",
"445 394 LINE",
"195 312 LINE",
"186 268 LINE"
);
},
{
closed = 1;
nodes = (
"186 268 LINE",
"195 312 LINE",
"33 259 LINE",
"46 222 LINE"
);
}
);
width = 663;
},
{
background = {
paths = (
{
closed = 1;
nodes = (
"296 295 LINE",
"590 417 LINE",
"562 524 LINE",
"321 424 LINE"
);
},
{
closed = 1;
nodes = (
"324 439 LINE",
"33 319 LINE",
"61 211 LINE",
"299 310 LINE"
);
},
{
closed = 1;
nodes = (
"623 0 LINE",
"663 205 LINE",
"342 205 LINE",
"438 700 LINE",
"215 700 LINE",
"79 0 LINE"
);
}
);
};
components = (
{
name = L;
transform = "{1, 0, 0, 1, 74, 0}";
}
);
layerId = "6D60D92C-1450-4586-BB49-599D0D4C1213";
paths = (
{
closed = 1;
nodes = (
"590 407 LINE",
"547 516 LINE",
"321 428 LINE",
"314 299 LINE"
);
},
{
closed = 1;
nodes = (
"283 297 LINE",
"290 426 LINE",
"16 320 LINE",
"59 210 LINE"
);
}
);
width = 688;
},
{
background = {
paths = (
{
closed = 1;
nodes = (
"227 278 LINE",
"518 388 LINE",
"499 468 LINE",
"245 373 LINE"
);
},
{
closed = 1;
nodes = (
"247 383 LINE",
"28 300 LINE",
"48 219 LINE",
"229 288 LINE"
);
},
{
closed = 1;
nodes = (
"583 0 LINE",
"607 124 LINE",
"253 124 LINE",
"365 700 LINE",
"234 700 LINE",
"98 0 LINE"
);
}
);
};
components = (
{
name = L;
transform = "{1, 0, 0, 1, 64, 0}";
}
);
layerId = "74CCE9C5-5564-42E0-9214-3BF0725DF94D";
paths = (
{
closed = 1;
nodes = (
"519 384 LINE",
"488 465 LINE",
"249 383 LINE",
"244 288 LINE"
);
},
{
closed = 1;
nodes = (
"245 293 LINE",
"250 388 LINE",
"24 308 LINE",
"55 226 LINE"
);
}
);
width = 671;
}
);
rightKerningGroup = L;
rightMetricsKey = L;
unicode = 0141;
},
{
glyphname = M;
lastChange = "2021-09-30 22:27:23 +0000";
layers = (
{
background = {
paths = (
{
closed = 1;
nodes = (
"101 0 LINE",
"224 633 LINE",
"467 231 LINE",
"482 231 LINE",
"868 629 LINE",
"746 0 LINE",
"785 0 LINE",
"921 700 LINE",
"891 700 LINE",
"480 280 LINE",
"479 280 LINE",
"228 700 LINE",
"198 700 LINE",
"62 0 LINE"
);
}
);
};
layerId = "13A5184A-77A5-4E03-80A5-A9198A2CA35F";
paths = (
{
closed = 1;
nodes = (
"96 0 LINE",
"219 636 LINE",
"462 231 LINE",
"477 231 LINE",
"864 633 LINE",
"741 0 LINE",
"780 0 LINE",
"916 700 LINE",
"883 700 LINE",
"475 280 LINE",
"474 280 LINE",
"225 700 LINE",
"193 700 LINE",
"57 0 LINE"
);
}
);
width = 933;
},
{
background = {
paths = (
{
closed = 1;
nodes = (
"251 37 LINE",
"292 375 LINE",
"381 176 LINE",
"529 159 LINE",
"664 329 LINE",
"621 -9 LINE",
"838 -35 LINE",
"924 660 LINE",
"715 685 LINE",
"483 392 LINE",
"481 392 LINE",
"328 733 LINE",
"120 759 LINE",
"34 64 LINE"
);
}
);
};
guideLines = (
{
angle = 79;
position = "{304, 422}";
},
{
angle = 79;
position = "{682, 441}";
},
{
position = "{728, 349}";
}
);
layerId = "6D60D92C-1450-4586-BB49-599D0D4C1213";
paths = (
{
closed = 1;
nodes = (
"222 0 LINE",
"290 349 LINE",
"365 154 LINE",
"519 154 LINE",
"663 340 LINE",
"596 0 LINE",
"814 0 LINE",
"950 700 LINE",
"737 700 LINE",
"478 379 LINE",
"476 379 LINE",
"350 700 LINE",
"140 700 LINE",
"4 0 LINE"
);
}
);
width = 920;
},
{
associatedMasterId = "6D60D92C-1450-4586-BB49-599D0D4C1213";
background = {
paths = (
{
closed = 1;
nodes = (
"256 22 LINE",
"288 384 LINE",
"445 193 LINE",
"452 193 LINE",
"640 353 LINE",
"609 -9 LINE",
"831 -28 LINE",
"892 669 LINE",
"708 685 LINE",
"475 484 LINE",
"473 484 LINE",
"279 723 LINE",
"100 738 LINE",
"39 41 LINE"
);
}
);
};
layerId = "0118A8E5-585C-4363-8704-53B43E3C9E6D";
name = "May 9 18, 08:31";
paths = (
{
closed = 1;
nodes = (
"222 0 LINE",
"293 367 LINE",
"431 187 LINE",
"438 187 LINE",
"647 363 LINE",
"576 0 LINE",
"799 0 LINE",
"935 700 LINE",
"740 700 LINE",
"474 478 LINE",
"471 478 LINE",
"310 700 LINE",
"140 700 LINE",
"4 0 LINE"
);
}
);
width = 905;
},
{
background = {
paths = (
{
closed = 1;
nodes = (
"162 0 LINE",
"255 477 LINE",
"382 176 LINE",
"477 176 LINE",
"732 467 LINE",
"642 0 LINE",
"770 0 LINE",
"906 700 LINE",
"773 700 LINE",
"450 328 LINE",
"448 328 LINE",
"290 700 LINE",
"170 700 LINE",
"34 0 LINE"
);
}
);
};
guideLines = (
{
position = "{659, 477}";
},
{
position = "{642, 320}";
}
);
layerId = "74CCE9C5-5564-42E0-9214-3BF0725DF94D";
paths = (
{
closed = 1;
nodes = (
"162 0 LINE",
"255 477 LINE",
"382 176 LINE",
"477 176 LINE",
"735 477 LINE",
"642 0 LINE",
"773 0 LINE",
"909 700 LINE",
"773 700 LINE",
"450 320 LINE",
"448 320 LINE",
"290 700 LINE",
"170 700 LINE",
"34 0 LINE"
);
}
);
width = 905;
}
);
leftMetricsKey = H;
rightMetricsKey = H;
unicode = 004D;
},
{
glyphname = N;
lastChange = "2021-09-30 22:27:23 +0000";
layers = (
{
anchors = (
{
name = bottom;
position = "{347, -35}";
},
{
name = top.case;
position = "{490, 720}";
}
);
background = {
anchors = (
{
name = bottom;
position = "{368, -31}";
},
{
name = top.case;
position = "{468, 718}";
}
);
paths = (
{
closed = 1;
nodes = (
"110 61 LINE",
"186 694 LINE",
"188 694 LINE",
"619 1 LINE",
"652 -5 LINE",
"737 691 LINE",
"698 696 LINE",
"623 67 LINE",
"621 68 LINE",
"192 758 LINE",
"155 763 LINE",
"70 67 LINE"
);
}
);
};
layerId = "13A5184A-77A5-4E03-80A5-A9198A2CA35F";
paths = (
{
closed = 1;
nodes = (
"96 0 LINE",
"219 633 LINE",
"222 633 LINE",
"614 0 LINE",
"644 0 LINE",
"780 700 LINE",
"741 700 LINE",
"617 68 LINE",
"615 68 LINE",
"223 700 LINE",
"193 700 LINE",
"57 0 LINE"
);
}
);
width = 797;
},
{
anchors = (
{
name = bottom;
position = "{358, -35}";
},
{
name = top.case;
position = "{466, 720}";
}
);
background = {
anchors = (
{
name = bottom;
position = "{382, -37}";
},
{
name = top.case;
position = "{444, 715}";
}
);
paths = (
{
closed = 1;
nodes = (
"258 12 LINE",
"293 347 LINE",
"295 347 LINE",
"508 -15 LINE",
"699 -35 LINE",
"773 661 LINE",
"553 684 LINE",
"520 357 LINE",
"518 357 LINE",
"309 710 LINE",
"112 731 LINE",
"38 35 LINE"
);
}
);
};
layerId = "6D60D92C-1450-4586-BB49-599D0D4C1213";
paths = (
{
closed = 1;
nodes = (
"225 0 LINE",
"291 342 LINE",
"293 342 LINE",
"498 0 LINE",
"669 0 LINE",
"805 700 LINE",
"584 700 LINE",
"518 367 LINE",
"516 367 LINE",
"314 700 LINE",
"140 700 LINE",
"4 0 LINE"
);
}
);
width = 775;
},
{
anchors = (
{
name = bottom;
position = "{344, -35}";
},
{
name = top.case;
position = "{464, 720}";
}
);
background = {
anchors = (
{
name = bottom;
position = "{379, -35}";
},
{
name = top.case;
position = "{441, 718}";
}
);
paths = (
{
closed = 1;
nodes = (
"200 21 LINE",
"249 490 LINE",
"251 489 LINE",
"571 -20 LINE",
"669 -30 LINE",
"744 667 LINE",
"614 679 LINE",
"566 230 LINE",
"564 231 LINE",
"257 718 LINE",
"145 730 LINE",
"70 33 LINE"
);
}
);
};
layerId = "74CCE9C5-5564-42E0-9214-3BF0725DF94D";
paths = (
{
closed = 1;
nodes = (
"164 0 LINE",
"257 475 LINE",
"259 475 LINE",
"554 0 LINE",
"636 0 LINE",
"772 700 LINE",
"642 700 LINE",
"554 245 LINE",
"552 245 LINE",
"267 700 LINE",
"170 700 LINE",
"34 0 LINE"
);
}
);
width = 768;
}
);
leftMetricsKey = H;
rightMetricsKey = H;
unicode = 004E;
},
{
color = 3;
glyphname = Eng;
lastChange = "2021-09-30 22:27:23 +0000";
layers = (
{
background = {
paths = (
{
closed = 1;
nodes = (
"97 0 LINE",
"220 632 LINE",
"222 632 LINE",
"614 12 LINE",
"644 0 LINE",
"780 700 LINE",
"741 700 LINE",
"619 78 LINE",
"617 78 LINE",
"223 700 LINE",
"193 700 LINE",
"57 0 LINE"
);
},
{
closed = 1;
nodes = (
"371 -192 LINE",
"416 -202 LINE SMOOTH",
"437 -206 OFFCURVE",
"456 -209 OFFCURVE",
"483 -209 CURVE SMOOTH",
"560 -209 OFFCURVE",
"608 -179 OFFCURVE",
"621 -116 CURVE SMOOTH",
"650 31 LINE",
"611 31 LINE",
"583 -116 LINE SMOOTH",
"575 -156 OFFCURVE",
"541 -175 OFFCURVE",
"489 -175 CURVE SMOOTH",
"470 -175 OFFCURVE",
"447 -173 OFFCURVE",
"423 -171 CURVE SMOOTH",
"374 -166 LINE",
"405 -154 LINE",
"387 -211 LINE"
);
}
);
};
layerId = "13A5184A-77A5-4E03-80A5-A9198A2CA35F";
paths = (
{
closed = 1;
nodes = (
"96 0 LINE",
"219 632 LINE",
"222 632 LINE",
"614 12 LINE",
"644 0 LINE",
"780 700 LINE",
"742 700 LINE",
"620 78 LINE",
"617 78 LINE",
"223 700 LINE",
"193 700 LINE",
"57 0 LINE"
);
},
{
closed = 1;
nodes = (
"371 -192 LINE",
"416 -202 LINE SMOOTH",
"437 -206 OFFCURVE",
"456 -209 OFFCURVE",
"483 -209 CURVE SMOOTH",
"560 -209 OFFCURVE",
"608 -179 OFFCURVE",
"621 -116 CURVE SMOOTH",
"650 31 LINE",
"611 31 LINE",
"583 -116 LINE SMOOTH",
"575 -156 OFFCURVE",
"541 -175 OFFCURVE",
"489 -175 CURVE SMOOTH",
"470 -175 OFFCURVE",
"447 -173 OFFCURVE",
"423 -171 CURVE SMOOTH",
"374 -166 LINE",
"405 -154 LINE",
"387 -211 LINE"
);
}
);
width = 797;
},
{
background = {
paths = (
{
closed = 1;
nodes = (
"226 0 LINE",
"292 337 LINE",
"294 337 LINE",
"481 20 LINE",
"670 0 LINE",
"806 700 LINE",
"585 700 LINE",
"525 391 LINE",
"523 391 LINE",
"340 700 LINE",
"141 700 LINE",
"5 0 LINE"
);
},
{
closed = 1;
nodes = (
"258 -175 LINE",
"324 -192 LINE SMOOTH",
"363 -202 OFFCURVE",
"403 -209 OFFCURVE",
"448 -209 CURVE SMOOTH",
"561 -209 OFFCURVE",
"643 -143 OFFCURVE",
"666 -24 CURVE SMOOTH",
"700 153 LINE",
"505 153 LINE",
"475 -1 LINE SMOOTH",
"469 -30 OFFCURVE",
"448 -39 OFFCURVE",
"417 -39 CURVE SMOOTH",
"399 -39 OFFCURVE",
"383 -38 OFFCURVE",
"370 -36 CURVE SMOOTH",
"331 -31 LINE",
"365 -12 LINE",
"289 -217 LINE"
);
}
);
};
layerId = "6D60D92C-1450-4586-BB49-599D0D4C1213";
paths = (
{
closed = 1;
nodes = (
"225 0 LINE",
"291 342 LINE",
"293 342 LINE",
"498 0 LINE",
"669 0 LINE",
"805 700 LINE",
"584 700 LINE",
"518 367 LINE",
"516 367 LINE",
"314 700 LINE",
"140 700 LINE",
"4 0 LINE"
);
},
{
closed = 1;
nodes = (
"258 -171 LINE",
"320 -188 LINE SMOOTH",
"357 -198 OFFCURVE",
"414 -209 OFFCURVE",
"445 -209 CURVE SMOOTH",
"565 -209 OFFCURVE",
"642 -149 OFFCURVE",
"663 -37 CURVE SMOOTH",
"694 125 LINE",
"499 125 LINE",
"474 -1 LINE SMOOTH",
"468 -30 OFFCURVE",
"446 -39 OFFCURVE",
"409 -39 CURVE SMOOTH",
"397 -39 OFFCURVE",
"382 -38 OFFCURVE",
"369 -37 CURVE SMOOTH",
"330 -33 LINE",
"364 -12 LINE",
"288 -217 LINE"
);
}
);
width = 776;
},
{
background = {
paths = (
{
closed = 0;
nodes = (
"259 714 LINE",
"554 252 LINE"
);
},
{
closed = 1;
nodes = (
"304 -180 LINE",
"356 -195 LINE SMOOTH",
"385 -203 OFFCURVE",
"413 -209 OFFCURVE",
"437 -209 CURVE SMOOTH",
"543 -209 OFFCURVE",
"605 -161 OFFCURVE",
"623 -68 CURVE SMOOTH",
"647 55 LINE",
"521 55 LINE",
"501 -45 LINE SMOOTH",
"494 -79 OFFCURVE",
"472 -93 OFFCURVE",
"431 -93 CURVE SMOOTH",
"418 -93 OFFCURVE",
"400 -92 OFFCURVE",
"387 -91 CURVE SMOOTH",
"343 -87 LINE",
"383 -59 LINE",
"326 -214 LINE"
);
}
);
};
layerId = "74CCE9C5-5564-42E0-9214-3BF0725DF94D";
paths = (
{
closed = 1;
nodes = (
"164 0 LINE",
"257 475 LINE",
"259 475 LINE",
"554 13 LINE",
"636 0 LINE",
"772 700 LINE",
"642 700 LINE",
"556 252 LINE",
"554 252 LINE",
"267 700 LINE",
"170 700 LINE",
"34 0 LINE"
);
},
{
closed = 1;
nodes = (
"306 -181 LINE",
"365 -196 LINE SMOOTH",
"397 -204 OFFCURVE",
"431 -209 OFFCURVE",
"459 -209 CURVE SMOOTH",
"544 -209 OFFCURVE",
"604 -170 OFFCURVE",
"623 -68 CURVE SMOOTH",
"651 74 LINE",
"524 74 LINE",
"501 -45 LINE SMOOTH",
"494 -83 OFFCURVE",
"473 -93 OFFCURVE",
"429 -93 CURVE SMOOTH",
"416 -93 OFFCURVE",
"398 -92 OFFCURVE",
"386 -91 CURVE SMOOTH",
"342 -87 LINE",
"377 -58 LINE",
"330 -214 LINE"
);
}
);
width = 769;
}
);
leftMetricsKey = N;
rightMetricsKey = N;
unicode = 014A;
},
{
color = 3;
glyphname = Nhookleft;
lastChange = "2021-09-30 23:32:11 +0000";
layers = (
{
background = {
paths = (
{
closed = 1;
nodes = (
"-145 -192 LINE",
"-106 -202 LINE SMOOTH",
"-89 -206 OFFCURVE",
"-70 -209 OFFCURVE",
"-56 -209 CURVE SMOOTH",
"22 -209 OFFCURVE",
"57 -182 OFFCURVE",
"70 -117 CURVE SMOOTH",
"216 637 LINE",
"218 637 LINE",
"607 0 LINE",
"640 0 LINE",
"776 700 LINE",
"737 700 LINE",
"614 67 LINE",
"612 67 LINE",
"224 700 LINE",
"189 700 LINE",
"31 -116 LINE SMOOTH",
"23 -158 OFFCURVE",
"1 -175 OFFCURVE",
"-45 -175 CURVE SMOOTH",
"-60 -175 OFFCURVE",
"-78 -173 OFFCURVE",
"-98 -171 CURVE SMOOTH",
"-124 -168 LINE",
"-114 -154 LINE",
"-132 -211 LINE"
);
}
);
};
layerId = "13A5184A-77A5-4E03-80A5-A9198A2CA35F";
paths = (
{
closed = 1;
nodes = (
"-140 -192 LINE",
"-102 -202 LINE SMOOTH",
"-85 -206 OFFCURVE",
"-69 -209 OFFCURVE",
"-46 -209 CURVE SMOOTH",
"19 -209 OFFCURVE",
"57 -179 OFFCURVE",
"70 -116 CURVE SMOOTH",
"216 633 LINE",
"218 633 LINE",
"610 0 LINE",
"640 0 LINE",
"776 700 LINE",
"738 700 LINE",
"614 68 LINE",
"611 68 LINE",
"219 700 LINE",
"189 700 LINE",
"31 -116 LINE SMOOTH",
"24 -155 OFFCURVE",
"-1 -175 OFFCURVE",
"-42 -175 CURVE SMOOTH",
"-57 -175 OFFCURVE",
"-75 -173 OFFCURVE",
"-94 -171 CURVE SMOOTH",
"-133 -166 LINE",
"-108 -154 LINE",
"-127 -211 LINE"
);
}
);
width = 793;
},
{
background = {
paths = (
{
closed = 1;
nodes = (
"-183 -175 LINE",
"-112 -192 LINE SMOOTH",
"-70 -202 OFFCURVE",
"-28 -209 OFFCURVE",
"21 -209 CURVE SMOOTH",
"141 -209 OFFCURVE",
"228 -143 OFFCURVE",
"251 -24 CURVE SMOOTH",
"321 337 LINE",
"323 337 LINE",
"506 0 LINE",
"699 0 LINE",
"835 700 LINE",
"614 700 LINE",
"550 371 LINE",
"548 371 LINE",
"369 700 LINE",
"170 700 LINE",
"34 -1 LINE SMOOTH",
"28 -30 OFFCURVE",
"7 -39 OFFCURVE",
"-24 -39 CURVE SMOOTH",
"-42 -39 OFFCURVE",
"-58 -38 OFFCURVE",
"-71 -36 CURVE SMOOTH",
"-110 -31 LINE",
"-76 -12 LINE",
"-152 -217 LINE"
);
}
);
};
layerId = "6D60D92C-1450-4586-BB49-599D0D4C1213";
paths = (
{
closed = 1;
nodes = (
"-176 -171 LINE",
"-112 -190 LINE SMOOTH",
"-73 -202 OFFCURVE",
"-12 -209 OFFCURVE",
"20 -209 CURVE SMOOTH",
"148 -209 OFFCURVE",
"227 -148 OFFCURVE",
"250 -28 CURVE SMOOTH",
"322 342 LINE",
"324 342 LINE",
"529 0 LINE",
"700 0 LINE",
"836 700 LINE",
"615 700 LINE",
"549 367 LINE",
"547 367 LINE",
"345 700 LINE",
"171 700 LINE",
"34 -1 LINE SMOOTH",
"28 -30 OFFCURVE",
"10 -39 OFFCURVE",
"-23 -39 CURVE SMOOTH",
"-33 -39 OFFCURVE",
"-47 -38 OFFCURVE",
"-58 -37 CURVE SMOOTH",
"-93 -33 LINE",
"-76 -12 LINE",
"-152 -217 LINE"
);
}
);
width = 806;
},
{
background = {
paths = (
{
closed = 1;
nodes = (
"-145 -180 LINE",
"-98 -195 LINE SMOOTH",
"-71 -203 OFFCURVE",
"-44 -209 OFFCURVE",
"-22 -209 CURVE SMOOTH",
"75 -209 OFFCURVE",
"132 -161 OFFCURVE",
"150 -68 CURVE SMOOTH",
"255 472 LINE",
"257 472 LINE",
"535 0 LINE",
"635 0 LINE",
"771 700 LINE",
"641 700 LINE",
"553 248 LINE",
"551 248 LINE",
"283 700 LINE",
"169 700 LINE",
"25 -45 LINE SMOOTH",
"18 -79 OFFCURVE",
"-1 -93 OFFCURVE",
"-34 -93 CURVE SMOOTH",
"-45 -93 OFFCURVE",
"-60 -92 OFFCURVE",
"-68 -91 CURVE SMOOTH",
"-105 -87 LINE",
"-70 -59 LINE",
"-125 -214 LINE"
);
}
);
};
layerId = "74CCE9C5-5564-42E0-9214-3BF0725DF94D";
paths = (
{
closed = 1;
nodes = (
"-145 -180 LINE",
"-90 -195 LINE SMOOTH",
"-60 -203 OFFCURVE",
"-29 -209 OFFCURVE",
"-3 -209 CURVE SMOOTH",
"75 -209 OFFCURVE",
"130 -173 OFFCURVE",
"148 -81 CURVE SMOOTH",
"256 475 LINE",
"258 475 LINE",
"553 0 LINE",
"635 0 LINE",
"771 700 LINE",
"641 700 LINE",
"553 245 LINE",
"551 245 LINE",
"266 700 LINE",
"169 700 LINE",
"24 -45 LINE SMOOTH",
"17 -82 OFFCURVE",
"1 -91 OFFCURVE",
"-34 -91 CURVE SMOOTH",
"-45 -91 OFFCURVE",
"-60 -90 OFFCURVE",
"-69 -89 CURVE SMOOTH",
"-105 -86 LINE",
"-76 -58 LINE",
"-123 -214 LINE"
);
}
);
width = 767;
}
);
leftKerningGroup = j;
leftMetricsKey = "=j+15";
rightMetricsKey = N;
unicode = 019D;
},
{
color = 4;
glyphname = O;
lastChange = "2021-09-30 22:27:23 +0000";
layers = (
{
anchors = (
{
name = bottom;
position = "{353, -35}";
},
{
name = ogonek;
position = "{403, 10}";
},
{
name = top.case;
position = "{509, 720}";
}
);
background = {
paths = (
{
closed = 1;
nodes = (
"573 -10 OFFCURVE",
"733 127 OFFCURVE",
"774 339 CURVE SMOOTH",
"816 551 OFFCURVE",
"705 710 OFFCURVE",
"497 710 CURVE SMOOTH",
"297 710 OFFCURVE",
"134 570 OFFCURVE",
"93 361 CURVE SMOOTH",
"51 147 OFFCURVE",
"159 -10 OFFCURVE",
"365 -10 CURVE SMOOTH"
);
},
{
closed = 1;
nodes = (
"191 26 OFFCURVE",
"95 161 OFFCURVE",
"134 361 CURVE SMOOTH",
"170 548 OFFCURVE",
"321 674 OFFCURVE",
"496 674 CURVE SMOOTH",
"679 674 OFFCURVE",
"769 530 OFFCURVE",
"733 339 CURVE SMOOTH",
"697 152 OFFCURVE",
"547 26 OFFCURVE",
"370 26 CURVE SMOOTH"
);
}
);
};
guideLines = (
{
angle = 79;
position = "{23, 52}";
},
{
angle = 79;
position = "{63, 44}";
},
{
angle = 79;
position = "{707, 44}";
},
{
angle = 79;
position = "{666, 44}";
}
);
layerId = "13A5184A-77A5-4E03-80A5-A9198A2CA35F";
paths = (
{
closed = 1;
nodes = (
"568 -10 OFFCURVE",
"728 127 OFFCURVE",
"769 339 CURVE SMOOTH",
"811 551 OFFCURVE",
"700 710 OFFCURVE",
"492 710 CURVE SMOOTH",
"292 710 OFFCURVE",
"129 570 OFFCURVE",
"88 361 CURVE SMOOTH",
"46 147 OFFCURVE",
"154 -10 OFFCURVE",
"360 -10 CURVE SMOOTH"
);
},
{
closed = 1;
nodes = (
"186 26 OFFCURVE",
"90 161 OFFCURVE",
"129 361 CURVE SMOOTH",
"165 548 OFFCURVE",
"316 674 OFFCURVE",
"491 674 CURVE SMOOTH",
"677 674 OFFCURVE",
"765 533 OFFCURVE",
"728 339 CURVE SMOOTH",
"692 152 OFFCURVE",
"542 26 OFFCURVE",
"365 26 CURVE SMOOTH"
);
}
);
width = 816;
},
{
anchors = (
{
name = bottom;
position = "{347, -35}";
},
{
name = ogonek;
position = "{447, 10}";
},
{
name = top.case;
position = "{486, 720}";
}
);
background = {
paths = (
{
closed = 0;
nodes = (
"57 382 LINE SMOOTH",
"14 164 OFFCURVE",
"128 -9 OFFCURVE",
"359 -9 CURVE SMOOTH",
"582 -9 OFFCURVE",
"742 99 OFFCURVE",
"786 322 CURVE SMOOTH"
);
},
{
closed = 0;
nodes = (
"563 341 LINE SMOOTH",
"540 225 OFFCURVE",
"486 196 OFFCURVE",
"396 196 CURVE SMOOTH",
"299 196 OFFCURVE",
"256 243 OFFCURVE",
"279 359 CURVE SMOOTH"
);
}
);
};
guideLines = (
{
angle = 79;
position = "{107, 636}";
},
{
angle = 79;
position = "{848, 636}";
},
{
angle = 79;
position = "{331, 619}";
},
{
angle = 79;
position = "{612, 592}";
}
);
layerId = "6D60D92C-1450-4586-BB49-599D0D4C1213";
paths = (
{
closed = 1;
nodes = (
"583 -9 OFFCURVE",
"742 95 OFFCURVE",
"786 318 CURVE SMOOTH",
"829 536 OFFCURVE",
"715 709 OFFCURVE",
"484 709 CURVE SMOOTH",
"261 709 OFFCURVE",
"101 601 OFFCURVE",
"57 378 CURVE SMOOTH",
"14 160 OFFCURVE",
"129 -9 OFFCURVE",
"360 -9 CURVE SMOOTH"
);
},
{
closed = 1;
nodes = (
"300 198 OFFCURVE",
"259 243 OFFCURVE",
"282 359 CURVE SMOOTH",
"305 475 OFFCURVE",
"357 502 OFFCURVE",
"447 502 CURVE SMOOTH",
"544 502 OFFCURVE",
"585 457 OFFCURVE",
"562 341 CURVE SMOOTH",
"539 225 OFFCURVE",
"487 198 OFFCURVE",
"397 198 CURVE SMOOTH"
);
}
);
width = 810;
},
{
anchors = (
{
name = bottom;
position = "{365, -35}";
},
{
name = ogonek;
position = "{430, 10}";
},
{
name = top.case;
position = "{489, 720}";
}
);
background = {
paths = (
{
closed = 1;
nodes = (
"568 -10 OFFCURVE",
"741 136 OFFCURVE",
"783 350 CURVE SMOOTH",
"825 564 OFFCURVE",
"713 710 OFFCURVE",
"496 710 CURVE SMOOTH",
"285 710 OFFCURVE",
"112 565 OFFCURVE",
"70 351 CURVE SMOOTH",
"28 136 OFFCURVE",
"140 -10 OFFCURVE",
"356 -10 CURVE SMOOTH"
);
},
{
closed = 1;
nodes = (
"246 111 OFFCURVE",
"174 196 OFFCURVE",
"204 350 CURVE SMOOTH",
"234 505 OFFCURVE",
"340 589 OFFCURVE",
"472 589 CURVE SMOOTH",
"607 589 OFFCURVE",
"679 505 OFFCURVE",
"649 351 CURVE SMOOTH",
"619 196 OFFCURVE",
"513 111 OFFCURVE",
"380 111 CURVE SMOOTH"
);
}
);
};
guideLines = (
{
angle = 79;
position = "{130, 668}";
},
{
angle = 79;
position = "{248, 583}";
},
{
angle = 79;
position = "{698, 760}";
},
{
angle = 79;
position = "{812, 656}";
},
{
angle = 79;
position = "{421, 250}";
},
{
position = "{276, 590}";
}
);
layerId = "74CCE9C5-5564-42E0-9214-3BF0725DF94D";
paths = (
{
closed = 1;
nodes = (
"597 -10 OFFCURVE",
"737 130 OFFCURVE",
"777 326 CURVE SMOOTH",
"825 553 OFFCURVE",
"701 710 OFFCURVE",
"487 710 CURVE SMOOTH",
"253 710 OFFCURVE",
"113 569 OFFCURVE",
"73 373 CURVE SMOOTH",
"27 146 OFFCURVE",
"149 -10 OFFCURVE",
"370 -10 CURVE SMOOTH"
);
},
{
closed = 1;
nodes = (
"244 111 OFFCURVE",
"171 194 OFFCURVE",
"205 360 CURVE SMOOTH",
"233 497 OFFCURVE",
"315 589 OFFCURVE",
"472 589 CURVE SMOOTH",
"605 589 OFFCURVE",
"681 506 OFFCURVE",
"646 340 CURVE SMOOTH",
"618 203 OFFCURVE",
"536 111 OFFCURVE",
"379 111 CURVE SMOOTH"
);
}
);
width = 813;
},
{
anchors = (
{
name = bottom;
position = "{337, -35}";
},
{
name = ogonek;
position = "{389, 10}";
},
{
name = top.case;
position = "{483, 720}";
}
);
associatedMasterId = "74CCE9C5-5564-42E0-9214-3BF0725DF94D";
background = {
paths = (
{
closed = 1;
nodes = (
"576 -10 OFFCURVE",
"718 131 OFFCURVE",
"757 327 CURVE SMOOTH",
"804 567 OFFCURVE",
"678 710 OFFCURVE",
"480 710 CURVE SMOOTH",
"281 710 OFFCURVE",
"125 594 OFFCURVE",
"82 374 CURVE SMOOTH",
"38 148 OFFCURVE",
"149 -10 OFFCURVE",
"357 -10 CURVE SMOOTH"
);
},
{
closed = 1;
nodes = (
"251 116 OFFCURVE",
"183 197 OFFCURVE",
"214 360 CURVE SMOOTH",
"242 505 OFFCURVE",
"330 584 OFFCURVE",
"463 584 CURVE SMOOTH",
"586 584 OFFCURVE",
"657 503 OFFCURVE",
"625 340 CURVE SMOOTH",
"599 206 OFFCURVE",
"522 116 OFFCURVE",
"374 116 CURVE SMOOTH"
);
}
);
};
guideLines = (
{
angle = 79;
position = "{139, 668}";
},
{
angle = 79;
position = "{257, 583}";
},
{
angle = 79;
position = "{707, 760}";
},
{
angle = 79;
position = "{821, 656}";
},
{
angle = 79;
position = "{393, 250}";
}
);
layerId = "900372FE-1004-4C74-8D0F-10A4560C49DC";
name = "Jun 17 18, 19:38";
paths = (
{
closed = 1;
nodes = (
"583 -10 OFFCURVE",
"718 130 OFFCURVE",
"757 326 CURVE SMOOTH",
"801 553 OFFCURVE",
"685 710 OFFCURVE",
"475 710 CURVE SMOOTH",
"256 710 OFFCURVE",
"121 569 OFFCURVE",
"82 373 CURVE SMOOTH",
"38 146 OFFCURVE",
"154 -10 OFFCURVE",
"364 -10 CURVE SMOOTH"
);
},
{
closed = 1;
nodes = (
"251 116 OFFCURVE",
"183 197 OFFCURVE",
"214 360 CURVE SMOOTH",
"240 494 OFFCURVE",
"317 584 OFFCURVE",
"465 584 CURVE SMOOTH",
"588 584 OFFCURVE",
"656 503 OFFCURVE",
"625 340 CURVE SMOOTH",
"599 206 OFFCURVE",
"522 116 OFFCURVE",
"374 116 CURVE SMOOTH"
);
}
);
width = 801;
},
{
anchors = (
{
name = bottom;
position = "{337, -35}";
},
{
name = ogonek;
position = "{389, 10}";
},
{
name = top.case;
position = "{483, 720}";
}
);
associatedMasterId = "74CCE9C5-5564-42E0-9214-3BF0725DF94D";
background = {
paths = (
{
closed = 1;
nodes = (
"576 -10 OFFCURVE",
"718 131 OFFCURVE",
"757 327 CURVE SMOOTH",
"804 567 OFFCURVE",
"678 710 OFFCURVE",
"480 710 CURVE SMOOTH",
"281 710 OFFCURVE",
"125 594 OFFCURVE",
"82 374 CURVE SMOOTH",
"38 148 OFFCURVE",
"149 -10 OFFCURVE",
"357 -10 CURVE SMOOTH"
);
},
{
closed = 1;
nodes = (
"251 116 OFFCURVE",
"183 197 OFFCURVE",
"214 360 CURVE SMOOTH",
"242 505 OFFCURVE",
"330 584 OFFCURVE",
"463 584 CURVE SMOOTH",
"586 584 OFFCURVE",
"657 503 OFFCURVE",
"625 340 CURVE SMOOTH",
"599 206 OFFCURVE",
"522 116 OFFCURVE",
"374 116 CURVE SMOOTH"
);
}
);
};
guideLines = (
{
angle = 79;
position = "{139, 668}";
},
{
angle = 79;
position = "{257, 583}";
},
{
angle = 79;
position = "{707, 760}";
},
{
angle = 79;
position = "{821, 656}";
},
{
angle = 79;
position = "{393, 250}";
}
);
layerId = "100C6CC0-6A46-4C3D-9933-D150D44CE7EB";
name = "Jun 17 18, 19:42";
paths = (
{
closed = 1;
nodes = (
"583 -10 OFFCURVE",
"716 115 OFFCURVE",
"754 311 CURVE SMOOTH",
"798 538 OFFCURVE",
"685 710 OFFCURVE",
"475 710 CURVE SMOOTH",
"256 710 OFFCURVE",
"123 579 OFFCURVE",
"84 383 CURVE SMOOTH",
"40 156 OFFCURVE",
"154 -10 OFFCURVE",
"364 -10 CURVE SMOOTH"
);
},
{
closed = 1;
nodes = (
"251 116 OFFCURVE",
"185 207 OFFCURVE",
"216 370 CURVE SMOOTH",
"242 504 OFFCURVE",
"317 584 OFFCURVE",
"465 584 CURVE SMOOTH",
"588 584 OFFCURVE",
"654 487 OFFCURVE",
"622 324 CURVE SMOOTH",
"596 190 OFFCURVE",
"522 116 OFFCURVE",
"374 116 CURVE SMOOTH"
);
}
);
width = 801;
}
);
leftKerningGroup = O;
rightKerningGroup = O;
unicode = 004F;
},
{
glyphname = Ohorn;
lastChange = "2021-09-30 22:27:23 +0000";
layers = (
{
anchors = (
{
name = bottom;
position = "{353, -35}";
},
{
name = ogonek;
position = "{403, 10}";
},
{
name = top.case;
position = "{509, 720}";
}
);
components = (
{
name = O;
}
);
layerId = "13A5184A-77A5-4E03-80A5-A9198A2CA35F";
paths = (
{
closed = 1;
nodes = (
"841 648 OFFCURVE",
"890 685 OFFCURVE",
"907 771 CURVE SMOOTH",
"914 806 OFFCURVE",
"908 844 OFFCURVE",
"893 883 CURVE",
"955 865 LINE",
"825 839 LINE",
"879 878 LINE",
"877 836 OFFCURVE",
"876 798 OFFCURVE",
"871 770 CURVE SMOOTH",
"858 695 OFFCURVE",
"805 680 OFFCURVE",
"739 680 CURVE SMOOTH",
"668 680 OFFCURVE",
"575 710 OFFCURVE",
"503 710 CURVE",
"664 660 LINE",
"697 654 OFFCURVE",
"726 650 OFFCURVE",
"751 650 CURVE SMOOTH"
);
}
);
width = 815;
},
{
anchors = (
{
name = bottom;
position = "{337, -35}";
},
{
name = ogonek;
position = "{389, 10}";
},
{
name = top.case;
position = "{483, 720}";
}
);
background = {
paths = (
{
closed = 1;
nodes = (
"845 588 OFFCURVE",
"898 634 OFFCURVE",
"900 736 CURVE SMOOTH",
"901 794 OFFCURVE",
"874 865 OFFCURVE",
"835 926 CURVE",
"931 894 LINE",
"728 851 LINE",
"765 886 LINE",
"772 842 OFFCURVE",
"777 802 OFFCURVE",
"777 772 CURVE SMOOTH",
"777 694 OFFCURVE",
"743 683 OFFCURVE",
"692 683 CURVE SMOOTH",
"630 683 OFFCURVE",
"543 710 OFFCURVE",
"463 710 CURVE",
"674 601 LINE",
"699 593 OFFCURVE",
"728 588 OFFCURVE",
"756 588 CURVE SMOOTH"
);
}
);
};
components = (
{
alignment = -1;
name = O;
}
);
layerId = "74CCE9C5-5564-42E0-9214-3BF0725DF94D";
paths = (
{
closed = 1;
nodes = (
"842 588 OFFCURVE",
"889 632 OFFCURVE",
"908 723 CURVE SMOOTH",
"921 786 OFFCURVE",
"902 870 OFFCURVE",
"882 926 CURVE",
"972 894 LINE",
"761 851 LINE",
"805 886 LINE",
"803 842 OFFCURVE",
"800 802 OFFCURVE",
"794 772 CURVE SMOOTH",
"778 694 OFFCURVE",
"743 683 OFFCURVE",
"692 683 CURVE SMOOTH",
"630 683 OFFCURVE",
"548 710 OFFCURVE",
"468 710 CURVE",
"658 601 LINE",
"682 593 OFFCURVE",
"710 588 OFFCURVE",
"738 588 CURVE SMOOTH"
);
}
);
width = 789;
},
{
anchors = (
{
name = bottom;
position = "{347, -35}";
},
{
name = ogonek;
position = "{447, 10}";
},
{
name = top.case;
position = "{486, 720}";
}
);
background = {
components = (
{
name = Uhorn;
transform = "{1, 0, 0, 1, -204, 0}";
}
);
};
components = (
{
name = O;
}
);
layerId = "6D60D92C-1450-4586-BB49-599D0D4C1213";
paths = (
{
closed = 1;
nodes = (
"888 566 OFFCURVE",
"953 615 OFFCURVE",
"967 693 CURVE SMOOTH",
"988 807 OFFCURVE",
"952 893 OFFCURVE",
"928 969 CURVE",
"1044 923 LINE",
"751 864 LINE",
"822 899 LINE",
"831 854 OFFCURVE",
"838 806 OFFCURVE",
"829 755 CURVE SMOOTH",
"817 693 OFFCURVE",
"757 684 OFFCURVE",
"714 684 CURVE SMOOTH",
"651 684 OFFCURVE",
"589 709 OFFCURVE",
"478 709 CURVE",
"714 579 LINE",
"726 572 OFFCURVE",
"755 566 OFFCURVE",
"783 566 CURVE SMOOTH"
);
}
);
width = 819;
}
);
leftMetricsKey = O;
unicode = 01A0;
},
{
glyphname = Oslash;
lastChange = "2021-09-30 22:27:23 +0000";
layers = (
{
components = (
{
name = O;
}
);
guideLines = (
{
angle = 79;
position = "{148, 647}";
},
{
angle = 79;
position = "{830, 632}";
}
);
layerId = "13A5184A-77A5-4E03-80A5-A9198A2CA35F";
paths = (
{
closed = 1;
nodes = (
"845 684 LINE",
"822 710 LINE",
"30 16 LINE",
"53 -10 LINE"
);
}
);
width = 825;
},
{
components = (
{
name = O;
}
);
guideLines = (
{
angle = 79;
position = "{846, 622}";
},
{
angle = 79;
position = "{111, 651}";
}
);
layerId = "6D60D92C-1450-4586-BB49-599D0D4C1213";
paths = (
{
closed = 1;
nodes = (
"845 621 LINE",
"772 709 LINE",
"0 79 LINE",
"74 -9 LINE"
);
}
);
width = 810;
},
{
background = {
guideLines = (
{
angle = 79;
position = "{131, 618}";
}
);
paths = (
{
closed = 1;
nodes = (
"800 642 LINE",
"736 710 LINE",
"22 59 LINE",
"86 -9 LINE"
);
}
);
};
components = (
{
name = O;
}
);
guideLines = (
{
angle = 79;
position = "{820, 653}";
},
{
angle = 79;
position = "{131, 618}";
}
);
layerId = "74CCE9C5-5564-42E0-9214-3BF0725DF94D";
paths = (
{
closed = 1;
nodes = (
"800 642 LINE",
"737 710 LINE",
"22 59 LINE",
"86 -9 LINE"
);
}
);
width = 813;
}
);
leftKerningGroup = O;
leftMetricsKey = O;
rightKerningGroup = O;
rightMetricsKey = O;
unicode = 00D8;
},
{
color = 3;
glyphname = OE;
lastChange = "2021-09-30 22:27:23 +0000";
layers = (
{
background = {
paths = (
{
closed = 1;
nodes = (
"552 -10 OFFCURVE",
"718 140 OFFCURVE",
"759 350 CURVE SMOOTH",
"800 560 OFFCURVE",
"692 710 OFFCURVE",
"497 710 CURVE SMOOTH",
"297 710 OFFCURVE",
"126 560 OFFCURVE",
"85 350 CURVE SMOOTH",
"44 140 OFFCURVE",
"157 -10 OFFCURVE",
"357 -10 CURVE SMOOTH"
);
},
{
closed = 1;
nodes = (
"189 26 OFFCURVE",
"90 163 OFFCURVE",
"126 350 CURVE SMOOTH",
"162 537 OFFCURVE",
"315 674 OFFCURVE",
"490 674 CURVE SMOOTH",
"667 674 OFFCURVE",
"765 537 OFFCURVE",
"729 350 CURVE SMOOTH",
"693 163 OFFCURVE",
"541 26 OFFCURVE",
"364 26 CURVE SMOOTH"
);
},
{
closed = 1;
nodes = (
"1136 0 LINE",
"1143 36 LINE",
"707 36 LINE",
"766 340 LINE",
"1155 340 LINE",
"1162 376 LINE",
"773 376 LINE",
"829 664 LINE",
"1258 664 LINE",
"1265 700 LINE",
"797 700 LINE",
"661 0 LINE"
);
}
);
};
layerId = "13A5184A-77A5-4E03-80A5-A9198A2CA35F";
paths = (
{
closed = 1;
nodes = (
"562 -10 OFFCURVE",
"718 134 OFFCURVE",
"757 339 CURVE SMOOTH",
"801 566 OFFCURVE",
"693 710 OFFCURVE",
"488 710 CURVE SMOOTH",
"292 710 OFFCURVE",
"129 570 OFFCURVE",
"88 361 CURVE SMOOTH",
"46 147 OFFCURVE",
"154 -10 OFFCURVE",
"360 -10 CURVE SMOOTH"
);
},
{
closed = 1;
nodes = (
"186 26 OFFCURVE",
"90 161 OFFCURVE",
"129 361 CURVE SMOOTH",
"165 548 OFFCURVE",
"316 674 OFFCURVE",
"491 674 CURVE SMOOTH",
"677 674 OFFCURVE",
"765 533 OFFCURVE",
"728 339 CURVE SMOOTH",
"692 152 OFFCURVE",
"542 26 OFFCURVE",
"365 26 CURVE SMOOTH"
);
},
{
closed = 1;
nodes = (
"1137 0 LINE",
"1144 36 LINE",
"708 36 LINE",
"767 340 LINE",
"1156 340 LINE",
"1163 376 LINE",
"774 376 LINE",
"830 664 LINE",
"1259 664 LINE",
"1266 700 LINE",
"798 700 LINE",
"662 0 LINE"
);
}
);
width = 1240;
},
{
background = {
guideLines = (
{
angle = 79;
position = "{419, 504}";
}
);
paths = (
{
closed = 1;
nodes = (
"1075 0 LINE",
"1112 192 LINE",
"787 192 LINE",
"802 268 LINE",
"1080 268 LINE",
"1115 446 LINE",
"837 446 LINE",
"849 510 LINE",
"1167 510 LINE",
"1204 700 LINE",
"663 700 LINE",
"527 0 LINE"
);
},
{
closed = 1;
nodes = (
"518 -9 OFFCURVE",
"657 187 OFFCURVE",
"685 332 CURVE SMOOTH",
"727 552 OFFCURVE",
"644 709 OFFCURVE",
"441 709 CURVE SMOOTH",
"248 709 OFFCURVE",
"101 601 OFFCURVE",
"57 378 CURVE SMOOTH",
"14 160 OFFCURVE",
"123 -9 OFFCURVE",
"341 -9 CURVE SMOOTH"
);
},
{
closed = 1;
nodes = (
"300 196 OFFCURVE",
"257 243 OFFCURVE",
"280 359 CURVE SMOOTH",
"303 475 OFFCURVE",
"357 504 OFFCURVE",
"447 504 CURVE SMOOTH",
"544 504 OFFCURVE",
"587 457 OFFCURVE",
"564 341 CURVE SMOOTH",
"541 225 OFFCURVE",
"487 196 OFFCURVE",
"397 196 CURVE SMOOTH"
);
}
);
};
guideLines = (
{
angle = 79;
position = "{108, 641}";
},
{
angle = 79;
position = "{316, 545}";
},
{
angle = 79;
position = "{718, 504}";
},
{
angle = 79;
position = "{419, 504}";
}
);
layerId = "6D60D92C-1450-4586-BB49-599D0D4C1213";
paths = (
{
closed = 1;
nodes = (
"531 -9 OFFCURVE",
"656 176 OFFCURVE",
"690 356 CURVE SMOOTH",
"724 531 OFFCURVE",
"655 709 OFFCURVE",
"441 709 CURVE SMOOTH",
"248 709 OFFCURVE",
"101 601 OFFCURVE",
"57 378 CURVE SMOOTH",
"14 160 OFFCURVE",
"123 -9 OFFCURVE",
"341 -9 CURVE SMOOTH"
);
},
{
closed = 1;
nodes = (
"300 196 OFFCURVE",
"257 243 OFFCURVE",
"280 359 CURVE SMOOTH",
"303 475 OFFCURVE",
"357 504 OFFCURVE",
"447 504 CURVE SMOOTH",
"544 504 OFFCURVE",
"587 457 OFFCURVE",
"564 341 CURVE SMOOTH",
"541 225 OFFCURVE",
"487 196 OFFCURVE",
"397 196 CURVE SMOOTH"
);
},
{
closed = 1;
nodes = (
"1075 0 LINE",
"1112 192 LINE",
"787 192 LINE",
"802 268 LINE",
"1080 268 LINE",
"1115 446 LINE",
"837 446 LINE",
"849 510 LINE",
"1167 510 LINE",
"1204 700 LINE",
"663 700 LINE",
"527 0 LINE"
);
}
);
width = 1151;
},
{
background = {
components = (
{
name = E;
transform = "{1, 0, 0, 1, 515, 0}";
}
);
};
guideLines = (
{
angle = 79;
position = "{353, 418}";
},
{
angle = 79;
position = "{601, 552}";
},
{
angle = 79;
position = "{366, 410}";
}
);
layerId = "74CCE9C5-5564-42E0-9214-3BF0725DF94D";
paths = (
{
closed = 1;
nodes = (
"553 -10 OFFCURVE",
"686 142 OFFCURVE",
"720 326 CURVE SMOOTH",
"763 558 OFFCURVE",
"665 710 OFFCURVE",
"458 710 CURVE SMOOTH",
"247 710 OFFCURVE",
"112 569 OFFCURVE",
"73 373 CURVE SMOOTH",
"28 146 OFFCURVE",
"145 -10 OFFCURVE",
"355 -10 CURVE SMOOTH"
);
},
{
closed = 1;
nodes = (
"241 111 OFFCURVE",
"173 197 OFFCURVE",
"205 360 CURVE SMOOTH",
"231 494 OFFCURVE",
"311 589 OFFCURVE",
"459 589 CURVE SMOOTH",
"582 589 OFFCURVE",
"648 503 OFFCURVE",
"616 340 CURVE SMOOTH",
"590 206 OFFCURVE",
"512 111 OFFCURVE",
"364 111 CURVE SMOOTH"
);
},
{
closed = 1;
nodes = (
"1050 0 LINE",
"1072 115 LINE",
"686 115 LINE",
"723 301 LINE",
"1062 301 LINE",
"1084 416 LINE",
"745 416 LINE",
"777 585 LINE",
"1156 585 LINE",
"1179 700 LINE",
"686 700 LINE",
"550 0 LINE"
);
}
);
width = 1139;
}
);
leftKerningGroup = O;
leftMetricsKey = O;
rightKerningGroup = E;
rightMetricsKey = E;
unicode = 0152;
},
{
glyphname = P;
lastChange = "2021-09-30 22:27:23 +0000";
layers = (
{
background = {
paths = (
{
closed = 1;
nodes = (
"102 0 LINE",
"153 262 LINE",
"375 262 LINE SMOOTH",
"531 262 OFFCURVE",
"635 339 OFFCURVE",
"663 482 CURVE SMOOTH",
"690 622 OFFCURVE",
"615 700 OFFCURVE",
"460 700 CURVE SMOOTH",
"198 700 LINE",
"62 0 LINE"
);
},
{
closed = 1;
nodes = (
"231 664 LINE",
"453 664 LINE SMOOTH",
"582 664 OFFCURVE",
"647 608 OFFCURVE",
"623 485 CURVE SMOOTH",
"600 368 OFFCURVE",
"520 298 OFFCURVE",
"369 298 CURVE SMOOTH",
"160 298 LINE"
);
}
);
};
guideLines = (
{
angle = 79;
position = "{598, 202}";
},
{
angle = 79;
position = "{555, 187}";
}
);
layerId = "13A5184A-77A5-4E03-80A5-A9198A2CA35F";
paths = (
{
closed = 1;
nodes = (
"96 0 LINE",
"147 262 LINE",
"381 262 LINE SMOOTH",
"531 262 OFFCURVE",
"630 336 OFFCURVE",
"657 479 CURVE SMOOTH",
"684 619 OFFCURVE",
"610 700 OFFCURVE",
"455 700 CURVE SMOOTH",
"193 700 LINE",
"57 0 LINE"
);
},
{
closed = 1;
nodes = (
"225 664 LINE",
"448 664 LINE SMOOTH",
"577 664 OFFCURVE",
"641 605 OFFCURVE",
"617 482 CURVE SMOOTH",
"595 365 OFFCURVE",
"519 298 OFFCURVE",
"373 298 CURVE SMOOTH",
"154 298 LINE"
);
}
);
width = 652;
},
{
background = {
paths = (
{
closed = 1;
nodes = (
"228 0 LINE",
"265 193 LINE",
"409 193 LINE SMOOTH",
"564 193 OFFCURVE",
"688 291 OFFCURVE",
"718 446 CURVE SMOOTH",
"747 598 OFFCURVE",
"675 700 OFFCURVE",
"511 700 CURVE SMOOTH",
"141 700 LINE",
"5 0 LINE"
);
},
{
closed = 1;
nodes = (
"328 517 LINE",
"414 517 LINE SMOOTH",
"472 517 OFFCURVE",
"501 503 OFFCURVE",
"490 448 CURVE SMOOTH",
"479 393 OFFCURVE",
"446 380 OFFCURVE",
"388 380 CURVE SMOOTH",
"302 380 LINE"
);
}
);
};
guideLines = (
{
angle = 79;
position = "{646, 104}";
},
{
angle = 79;
position = "{430, 146}";
}
);
layerId = "6D60D92C-1450-4586-BB49-599D0D4C1213";
paths = (
{
closed = 1;
nodes = (
"227 0 LINE",
"264 193 LINE",
"388 193 LINE SMOOTH",
"595 193 OFFCURVE",
"688 292 OFFCURVE",
"715 435 CURVE SMOOTH",
"744 592 OFFCURVE",
"666 700 OFFCURVE",
"485 700 CURVE SMOOTH",
"140 700 LINE",
"4 0 LINE"
);
},
{
closed = 1;
nodes = (
"327 517 LINE",
"433 517 LINE SMOOTH",
"475 517 OFFCURVE",
"499 499 OFFCURVE",
"489 448 CURVE SMOOTH",
"479 398 OFFCURVE",
"455 380 OFFCURVE",
"407 380 CURVE SMOOTH",
"302 380 LINE"
);
}
);
width = 711;
},
{
background = {
paths = (
{
closed = 1;
nodes = (
"165 0 LINE",
"207 222 LINE",
"392 222 LINE SMOOTH",
"542 222 OFFCURVE",
"655 316 OFFCURVE",
"684 465 CURVE SMOOTH",
"713 612 OFFCURVE",
"640 700 OFFCURVE",
"486 700 CURVE SMOOTH",
"170 700 LINE",
"34 0 LINE"
);
},
{
closed = 1;
nodes = (
"279 585 LINE",
"445 585 LINE SMOOTH",
"527 585 OFFCURVE",
"567 551 OFFCURVE",
"550 463 CURVE SMOOTH",
"533 377 OFFCURVE",
"478 337 OFFCURVE",
"396 337 CURVE SMOOTH",
"230 337 LINE"
);
}
);
};
guideLines = (
{
angle = 79;
position = "{616, 128}";
},
{
angle = 79;
position = "{481, 105}";
}
);
layerId = "74CCE9C5-5564-42E0-9214-3BF0725DF94D";
paths = (
{
closed = 1;
nodes = (
"164 0 LINE",
"207 222 LINE",
"371 222 LINE SMOOTH",
"541 222 OFFCURVE",
"653 304 OFFCURVE",
"680 446 CURVE SMOOTH",
"710 605 OFFCURVE",
"630 700 OFFCURVE",
"466 700 CURVE SMOOTH",
"170 700 LINE",
"34 0 LINE"
);
},
{
closed = 1;
nodes = (
"279 585 LINE",
"436 585 LINE SMOOTH",
"521 585 OFFCURVE",
"566 550 OFFCURVE",
"548 459 CURVE SMOOTH",
"532 378 OFFCURVE",
"480 337 OFFCURVE",
"382 337 CURVE SMOOTH",
"230 337 LINE"
);
}
);
width = 678;
}
);
leftMetricsKey = H;
unicode = 0050;
},
{
color = 3;
glyphname = Thorn;
lastChange = "2021-09-30 22:27:23 +0000";
layers = (
{
background = {
paths = (
{
closed = 1;
nodes = (
"97 0 LINE",
"127 154 LINE",
"349 154 LINE SMOOTH",
"503 154 OFFCURVE",
"611 240 OFFCURVE",
"638 380 CURVE SMOOTH",
"665 520 OFFCURVE",
"588 592 OFFCURVE",
"434 592 CURVE SMOOTH",
"212 592 LINE",
"233 700 LINE",
"193 700 LINE",
"57 0 LINE"
);
},
{
closed = 1;
nodes = (
"205 556 LINE",
"427 556 LINE SMOOTH",
"556 556 OFFCURVE",
"621 502 OFFCURVE",
"597 379 CURVE SMOOTH",
"574 259 OFFCURVE",
"485 190 OFFCURVE",
"356 190 CURVE SMOOTH",
"134 190 LINE"
);
}
);
};
layerId = "13A5184A-77A5-4E03-80A5-A9198A2CA35F";
paths = (
{
closed = 1;
nodes = (
"96 0 LINE",
"126 154 LINE",
"360 154 LINE SMOOTH",
"510 154 OFFCURVE",
"609 228 OFFCURVE",
"636 371 CURVE SMOOTH",
"662 511 OFFCURVE",
"589 592 OFFCURVE",
"434 592 CURVE SMOOTH",
"211 592 LINE",
"232 700 LINE",
"193 700 LINE",
"57 0 LINE"
);
},
{
closed = 1;
nodes = (
"204 556 LINE",
"427 556 LINE SMOOTH",
"556 556 OFFCURVE",
"620 497 OFFCURVE",
"596 374 CURVE SMOOTH",
"573 257 OFFCURVE",
"498 190 OFFCURVE",
"352 190 CURVE SMOOTH",
"133 190 LINE"
);
}
);
width = 652;
},
{
background = {
paths = (
{
closed = 1;
nodes = (
"227 0 LINE",
"248 107 LINE",
"387 107 LINE SMOOTH",
"542 107 OFFCURVE",
"665 205 OFFCURVE",
"695 360 CURVE SMOOTH",
"724 512 OFFCURVE",
"652 614 OFFCURVE",
"488 614 CURVE SMOOTH",
"346 614 LINE",
"363 700 LINE",
"140 700 LINE",
"4 0 LINE"
);
},
{
closed = 1;
nodes = (
"309 420 LINE",
"416 420 LINE SMOOTH",
"460 420 OFFCURVE",
"481 408 OFFCURVE",
"472 359 CURVE SMOOTH",
"462 310 OFFCURVE",
"436 299 OFFCURVE",
"392 299 CURVE SMOOTH",
"285 299 LINE"
);
}
);
};
layerId = "6D60D92C-1450-4586-BB49-599D0D4C1213";
paths = (
{
closed = 1;
nodes = (
"227 0 LINE",
"247 107 LINE",
"390 107 LINE SMOOTH",
"578 107 OFFCURVE",
"668 206 OFFCURVE",
"692 341 CURVE SMOOTH",
"721 506 OFFCURVE",
"646 614 OFFCURVE",
"468 614 CURVE SMOOTH",
"346 614 LINE",
"363 700 LINE",
"140 700 LINE",
"4 0 LINE"
);
},
{
closed = 1;
nodes = (
"309 420 LINE",
"415 420 LINE SMOOTH",
"457 420 OFFCURVE",
"480 402 OFFCURVE",
"471 357 CURVE SMOOTH",
"463 317 OFFCURVE",
"440 299 OFFCURVE",
"392 299 CURVE SMOOTH",
"286 299 LINE"
);
}
);
width = 707;
},
{
background = {
paths = (
{
closed = 1;
nodes = (
"166 0 LINE",
"188 121 LINE",
"348 121 LINE SMOOTH",
"502 121 OFFCURVE",
"619 214 OFFCURVE",
"647 363 CURVE SMOOTH",
"676 510 OFFCURVE",
"602 599 OFFCURVE",
"442 599 CURVE SMOOTH",
"282 599 LINE",
"301 700 LINE",
"170 700 LINE",
"35 0 LINE"
);
},
{
closed = 1;
nodes = (
"259 484 LINE",
"400 484 LINE SMOOTH",
"487 484 OFFCURVE",
"529 449 OFFCURVE",
"513 362 CURVE SMOOTH",
"496 276 OFFCURVE",
"439 236 OFFCURVE",
"353 236 CURVE SMOOTH",
"211 236 LINE"
);
}
);
};
layerId = "74CCE9C5-5564-42E0-9214-3BF0725DF94D";
paths = (
{
closed = 1;
nodes = (
"165 0 LINE",
"188 122 LINE",
"336 122 LINE SMOOTH",
"506 122 OFFCURVE",
"617 203 OFFCURVE",
"645 351 CURVE SMOOTH",
"674 508 OFFCURVE",
"601 599 OFFCURVE",
"432 599 CURVE SMOOTH",
"283 599 LINE",
"303 700 LINE",
"170 700 LINE",
"34 0 LINE"
);
},
{
closed = 1;
nodes = (
"259 484 LINE",
"402 484 LINE SMOOTH",
"490 484 OFFCURVE",
"527 441 OFFCURVE",
"512 358 CURVE SMOOTH",
"498 286 OFFCURVE",
"448 236 OFFCURVE",
"350 236 CURVE SMOOTH",
"211 236 LINE"
);
}
);
width = 661;
}
);
leftMetricsKey = H;
rightMetricsKey = P;
unicode = 00DE;
},
{
color = 0;
glyphname = Q;
lastChange = "2021-09-30 22:27:23 +0000";
layers = (
{
background = {
paths = (
{
closed = 1;
nodes = (
"719 16 LINE",
"485 349 LINE",
"451 327 LINE",
"686 -7 LINE"
);
},
{
closed = 1;
nodes = (
"575 6 OFFCURVE",
"734 136 OFFCURVE",
"760 345 CURVE SMOOTH",
"786 554 OFFCURVE",
"662 720 OFFCURVE",
"462 744 CURVE SMOOTH",
"264 768 OFFCURVE",
"105 638 OFFCURVE",
"79 429 CURVE SMOOTH",
"53 220 OFFCURVE",
"176 54 OFFCURVE",
"375 30 CURVE SMOOTH"
);
},
{
closed = 1;
nodes = (
"206 89 OFFCURVE",
"98 239 OFFCURVE",
"120 424 CURVE SMOOTH",
"142 609 OFFCURVE",
"284 730 OFFCURVE",
"458 708 CURVE SMOOTH",
"633 686 OFFCURVE",
"741 535 OFFCURVE",
"719 350 CURVE SMOOTH",
"697 165 OFFCURVE",
"555 43 OFFCURVE",
"380 66 CURVE SMOOTH"
);
}
);
};
components = (
{
name = O;
}
);
layerId = "13A5184A-77A5-4E03-80A5-A9198A2CA35F";
paths = (
{
closed = 1;
nodes = (
"714 17 LINE",
"501 320 LINE",
"468 296 LINE",
"681 -8 LINE"
);
}
);
width = 823;
},
{
background = {
paths = (
{
closed = 1;
nodes = (
"759 40 LINE",
"475 355 LINE",
"389 282 LINE",
"677 -37 LINE"
);
},
{
closed = 1;
nodes = (
"606 -29 OFFCURVE",
"767 95 OFFCURVE",
"789 311 CURVE SMOOTH",
"811 529 OFFCURVE",
"690 684 OFFCURVE",
"459 708 CURVE SMOOTH",
"237 731 OFFCURVE",
"77 607 OFFCURVE",
"54 391 CURVE SMOOTH",
"31 173 OFFCURVE",
"153 18 OFFCURVE",
"384 -6 CURVE SMOOTH"
);
},
{
closed = 1;
nodes = (
"313 208 OFFCURVE",
"267 245 OFFCURVE",
"279 365 CURVE SMOOTH",
"291 487 OFFCURVE",
"349 513 OFFCURVE",
"438 504 CURVE SMOOTH",
"530 495 OFFCURVE",
"577 457 OFFCURVE",
"564 337 CURVE SMOOTH",
"551 215 OFFCURVE",
"494 189 OFFCURVE",
"406 198 CURVE SMOOTH"
);
}
);
};
components = (
{
name = O;
}
);
guideLines = (
{
angle = 79;
position = "{758, 173}";
}
);
layerId = "6D60D92C-1450-4586-BB49-599D0D4C1213";
paths = (
{
closed = 1;
nodes = (
"737 66 LINE",
"476 355 LINE",
"389 280 LINE",
"656 -9 LINE"
);
}
);
width = 810;
},
{
background = {
paths = (
{
closed = 1;
nodes = (
"713 62 LINE",
"450 372 LINE",
"363 302 LINE",
"628 -10 LINE"
);
}
);
};
components = (
{
alignment = -1;
name = O;
}
);
guideLines = (
{
angle = 79;
position = "{742, 141}";
}
);
layerId = "74CCE9C5-5564-42E0-9214-3BF0725DF94D";
paths = (
{
closed = 1;
nodes = (
"726 61 LINE",
"482 349 LINE",
"396 279 LINE",
"641 -8 LINE"
);
}
);
width = 814;
}
);
leftKerningGroup = O;
leftMetricsKey = O;
rightKerningGroup = O;
rightMetricsKey = O;
unicode = 0051;
},
{
glyphname = R;
lastChange = "2021-09-30 22:27:23 +0000";
layers = (
{
anchors = (
{
name = bottom;
position = "{299, -35}";
},
{
name = top.case;
position = "{441, 720}";
}
);
background = {
paths = (
{
closed = 1;
nodes = (
"96 0 LINE",
"156 307 LINE",
"394 307 LINE SMOOTH",
"575 307 OFFCURVE",
"657 389 OFFCURVE",
"679 502 CURVE SMOOTH",
"704 628 OFFCURVE",
"625 700 OFFCURVE",
"478 700 CURVE SMOOTH",
"193 700 LINE",
"57 0 LINE"
);
},
{
closed = 1;
nodes = (
"615 0 LINE",
"459 327 LINE",
"423 313 LINE",
"571 0 LINE"
);
},
{
closed = 1;
nodes = (
"225 664 LINE",
"468 664 LINE SMOOTH",
"598 664 OFFCURVE",
"659 608 OFFCURVE",
"639 505 CURVE SMOOTH",
"618 396 OFFCURVE",
"535 343 OFFCURVE",
"411 343 CURVE SMOOTH",
"163 343 LINE"
);
}
);
};
guideLines = (
{
angle = 79;
position = "{629, 245}";
},
{
angle = 79;
position = "{586, 234}";
}
);
layerId = "13A5184A-77A5-4E03-80A5-A9198A2CA35F";
paths = (
{
closed = 1;
nodes = (
"96 0 LINE",
"156 307 LINE",
"388 307 LINE SMOOTH",
"573 307 OFFCURVE",
"657 389 OFFCURVE",
"679 502 CURVE SMOOTH",
"706 628 OFFCURVE",
"620 700 OFFCURVE",
"459 700 CURVE SMOOTH",
"193 700 LINE",
"57 0 LINE"
);
},
{
closed = 1;
nodes = (
"225 664 LINE",
"444 664 LINE SMOOTH",
"593 664 OFFCURVE",
"662 608 OFFCURVE",
"639 505 CURVE SMOOTH",
"617 396 OFFCURVE",
"530 343 OFFCURVE",
"400 343 CURVE SMOOTH",
"163 343 LINE"
);
},
{
closed = 1;
nodes = (
"615 0 LINE",
"459 327 LINE",
"423 313 LINE",
"571 0 LINE"
);
}
);
width = 713;
},
{
anchors = (
{
name = bottom;
position = "{322, -35}";
},
{
name = top.case;
position = "{441, 720}";
}
);
guideLines = (
{
angle = 79;
position = "{673, 214}";
},
{
angle = 79;
position = "{474, 318}";
}
);
layerId = "6D60D92C-1450-4586-BB49-599D0D4C1213";
paths = (
{
closed = 1;
nodes = (
"227 0 LINE",
"273 235 LINE",
"313 235 LINE SMOOTH",
"555 235 OFFCURVE",
"688 291 OFFCURVE",
"719 451 CURVE SMOOTH",
"746 590 OFFCURVE",
"674 700 OFFCURVE",
"483 700 CURVE SMOOTH",
"140 700 LINE",
"4 0 LINE"
);
},
{
closed = 1;
nodes = (
"327 516 LINE",
"439 516 LINE SMOOTH",
"495 516 OFFCURVE",
"507 486 OFFCURVE",
"500 451 CURVE SMOOTH",
"491 401 OFFCURVE",
"464 382 OFFCURVE",
"405 382 CURVE SMOOTH",
"301 382 LINE"
);
},
{
closed = 1;
nodes = (
"671 0 LINE",
"539 286 LINE",
"340 249 LINE",
"437 0 LINE"
);
}
);
width = 732;
},
{
anchors = (
{
name = bottom;
position = "{314, -35}";
},
{
name = top.case;
position = "{443, 720}";
}
);
background = {
paths = (
{
closed = 1;
nodes = (
"166 0 LINE",
"217 260 LINE",
"362 260 LINE SMOOTH",
"530 260 OFFCURVE",
"662 333 OFFCURVE",
"691 485 CURVE SMOOTH",
"717 621 OFFCURVE",
"635 700 OFFCURVE",
"484 700 CURVE SMOOTH",
"171 700 LINE",
"35 0 LINE"
);
},
{
closed = 1;
nodes = (
"633 0 LINE",
"501 307 LINE",
"372 281 LINE",
"487 0 LINE"
);
},
{
closed = 1;
nodes = (
"280 585 LINE",
"449 585 LINE SMOOTH",
"533 585 OFFCURVE",
"572 553 OFFCURVE",
"559 484 CURVE SMOOTH",
"546 413 OFFCURVE",
"491 375 OFFCURVE",
"410 375 CURVE SMOOTH",
"239 375 LINE"
);
}
);
};
guideLines = (
{
angle = 79;
position = "{707, 643}";
},
{
angle = 79;
position = "{562, 604}";
}
);
layerId = "74CCE9C5-5564-42E0-9214-3BF0725DF94D";
paths = (
{
closed = 1;
nodes = (
"165 0 LINE",
"217 260 LINE",
"354 260 LINE SMOOTH",
"561 260 OFFCURVE",
"662 328 OFFCURVE",
"689 472 CURVE SMOOTH",
"714 608 OFFCURVE",
"644 700 OFFCURVE",
"479 700 CURVE SMOOTH",
"170 700 LINE",
"34 0 LINE"
);
},
{
closed = 1;
nodes = (
"280 585 LINE",
"458 585 LINE SMOOTH",
"533 585 OFFCURVE",
"573 549 OFFCURVE",
"558 477 CURVE SMOOTH",
"543 406 OFFCURVE",
"496 375 OFFCURVE",
"417 375 CURVE SMOOTH",
"239 375 LINE"
);
},
{
closed = 1;
nodes = (
"626 0 LINE",
"489 298 LINE",
"354 272 LINE",
"476 0 LINE"
);
}
);
width = 695;
},
{
anchors = (
{
name = bottom;
position = "{299, -35}";
},
{
name = top.case;
position = "{416, 720}";
}
);
associatedMasterId = "13A5184A-77A5-4E03-80A5-A9198A2CA35F";
background = {
anchors = (
{
name = bottom;
position = "{315, -12}";
},
{
name = top.case;
position = "{420, 736}";
}
);
paths = (
{
closed = 1;
nodes = (
"96 0 LINE",
"156 307 LINE",
"394 307 LINE SMOOTH",
"575 307 OFFCURVE",
"659 398 OFFCURVE",
"681 511 CURVE SMOOTH",
"705 636 OFFCURVE",
"623 700 OFFCURVE",
"478 700 CURVE SMOOTH",
"193 700 LINE",
"57 0 LINE"
);
},
{
closed = 1;
nodes = (
"615 0 LINE",
"464 327 LINE",
"423 313 LINE",
"568 0 LINE"
);
},
{
closed = 1;
nodes = (
"225 664 LINE",
"468 664 LINE SMOOTH",
"596 664 OFFCURVE",
"660 614 OFFCURVE",
"640 512 CURVE SMOOTH",
"619 403 OFFCURVE",
"535 343 OFFCURVE",
"411 343 CURVE SMOOTH",
"163 343 LINE"
);
}
);
};
guideLines = (
{
angle = 79;
position = "{594, 245}";
},
{
angle = 79;
position = "{549, 225}";
}
);
layerId = "DEF352B3-50B0-42BF-AC57-FC4CDE592B2A";
name = "Feb 18 20, 13:08";
paths = (
{
closed = 1;
nodes = (
"96 0 LINE",
"152 286 LINE",
"360 286 LINE SMOOTH",
"545 286 OFFCURVE",
"624 373 OFFCURVE",
"647 493 CURVE SMOOTH",
"673 625 OFFCURVE",
"596 700 OFFCURVE",
"431 700 CURVE SMOOTH",
"193 700 LINE",
"57 0 LINE"
);
},
{
closed = 1;
nodes = (
"585 0 LINE",
"437 309 LINE",
"400 295 LINE",
"540 0 LINE"
);
},
{
closed = 1;
nodes = (
"225 664 LINE",
"438 664 LINE SMOOTH",
"568 664 OFFCURVE",
"628 604 OFFCURVE",
"607 495 CURVE SMOOTH",
"585 382 OFFCURVE",
"500 322 OFFCURVE",
"370 322 CURVE SMOOTH",
"159 322 LINE"
);
}
);
width = 663;
}
);
leftMetricsKey = H;
rightKerningGroup = R;
unicode = 0052;
},
{
glyphname = S;
lastChange = "2021-09-30 22:27:23 +0000";
layers = (
{
anchors = (
{
name = bottom;
position = "{242, -35}";
},
{
name = top.case;
position = "{403, 720}";
}
);
background = {
paths = (
{
closed = 1;
nodes = (
"409 -10 OFFCURVE",
"510 44 OFFCURVE",
"536 174 CURVE SMOOTH",
"556 284 OFFCURVE",
"506 330 OFFCURVE",
"339 382 CURVE SMOOTH",
"189 429 OFFCURVE",
"144 451 OFFCURVE",
"162 536 CURVE SMOOTH",
"180 625 OFFCURVE",
"266 674 OFFCURVE",
"392 674 CURVE SMOOTH",
"451 674 OFFCURVE",
"507 665 OFFCURVE",
"567 650 CURVE SMOOTH",
"614 638 LINE",
"590 627 LINE",
"616 685 LINE",
"628 667 LINE",
"582 681 LINE SMOOTH",
"524 699 OFFCURVE",
"461 710 OFFCURVE",
"403 710 CURVE SMOOTH",
"267 710 OFFCURVE",
"147 667 OFFCURVE",
"122 537 CURVE SMOOTH",
"102 431 OFFCURVE",
"152 394 OFFCURVE",
"318 345 CURVE SMOOTH",
"466 301 OFFCURVE",
"513 263 OFFCURVE",
"495 175 CURVE SMOOTH",
"476 76 OFFCURVE",
"389 26 OFFCURVE",
"256 26 CURVE SMOOTH",
"204 26 OFFCURVE",
"132 35 OFFCURVE",
"81 47 CURVE SMOOTH",
"6 65 LINE",
"42 98 LINE",
"8 16 LINE",
"-9 37 LINE",
"72 14 LINE SMOOTH",
"109 4 OFFCURVE",
"178 -10 OFFCURVE",
"255 -10 CURVE SMOOTH"
);
}
);
};
guideLines = (
{
angle = 79;
position = "{67, 279}";
},
{
angle = 79;
position = "{109, 290}";
},
{
angle = 79;
position = "{576, 409}";
},
{
angle = 79;
position = "{536, 415}";
}
);
layerId = "13A5184A-77A5-4E03-80A5-A9198A2CA35F";
paths = (
{
closed = 1;
nodes = (
"409 -10 OFFCURVE",
"510 44 OFFCURVE",
"536 174 CURVE SMOOTH",
"556 284 OFFCURVE",
"505 331 OFFCURVE",
"332 383 CURVE SMOOTH",
"188 426 OFFCURVE",
"144 451 OFFCURVE",
"162 536 CURVE SMOOTH",
"180 625 OFFCURVE",
"266 674 OFFCURVE",
"392 674 CURVE SMOOTH",
"451 674 OFFCURVE",
"507 665 OFFCURVE",
"567 650 CURVE SMOOTH",
"614 638 LINE",
"590 627 LINE",
"616 685 LINE",
"628 667 LINE",
"582 681 LINE SMOOTH",
"524 699 OFFCURVE",
"461 710 OFFCURVE",
"403 710 CURVE SMOOTH",
"267 710 OFFCURVE",
"147 667 OFFCURVE",
"123 542 CURVE SMOOTH",
"102 431 OFFCURVE",
"152 394 OFFCURVE",
"318 345 CURVE SMOOTH",
"466 301 OFFCURVE",
"513 263 OFFCURVE",
"495 175 CURVE SMOOTH",
"476 76 OFFCURVE",
"389 26 OFFCURVE",
"256 26 CURVE SMOOTH",
"204 26 OFFCURVE",
"132 35 OFFCURVE",
"81 47 CURVE SMOOTH",
"6 65 LINE",
"42 98 LINE",
"8 16 LINE",
"-9 37 LINE",
"72 14 LINE SMOOTH",
"109 4 OFFCURVE",
"178 -10 OFFCURVE",
"255 -10 CURVE SMOOTH"
);
}
);
width = 605;
},
{
anchors = (
{
name = bottom;
position = "{275, -35}";
},
{
name = top.case;
position = "{443, 720}";
}
);
background = {
paths = (
{
closed = 1;
nodes = (
"450 -9 OFFCURVE",
"579 40 OFFCURVE",
"612 216 CURVE SMOOTH",
"632 313 OFFCURVE",
"601 391 OFFCURVE",
"446 435 CURVE SMOOTH",
"338 466 OFFCURVE",
"328 472 OFFCURVE",
"332 492 CURVE SMOOTH",
"335 507 OFFCURVE",
"356 516 OFFCURVE",
"430 516 CURVE SMOOTH",
"467 516 OFFCURVE",
"507 514 OFFCURVE",
"532 511 CURVE SMOOTH",
"686 495 LINE",
"601 421 LINE",
"694 711 LINE",
"763 639 LINE",
"626 681 LINE SMOOTH",
"564 700 OFFCURVE",
"496 709 OFFCURVE",
"434 709 CURVE SMOOTH",
"261 709 OFFCURVE",
"134 650 OFFCURVE",
"105 501 CURVE SMOOTH",
"81 375 OFFCURVE",
"122 314 OFFCURVE",
"278 264 CURVE SMOOTH",
"376 232 OFFCURVE",
"378 224 OFFCURVE",
"376 211 CURVE SMOOTH",
"373 195 OFFCURVE",
"348 187 OFFCURVE",
"298 187 CURVE SMOOTH",
"247 187 OFFCURVE",
"183 192 OFFCURVE",
"141 198 CURVE SMOOTH",
"-33 219 LINE",
"89 291 LINE",
"-17 0 LINE",
"-49 67 LINE",
"52 32 LINE SMOOTH",
"127 6 OFFCURVE",
"201 -9 OFFCURVE",
"271 -9 CURVE SMOOTH"
);
}
);
};
guideLines = (
{
angle = 79;
position = "{146, 709}";
},
{
angle = 79;
position = "{659, 455}";
},
{
angle = 79;
position = "{356, 618}";
},
{
angle = 79;
position = "{400, 336}";
}
);
layerId = "6D60D92C-1450-4586-BB49-599D0D4C1213";
paths = (
{
closed = 1;
nodes = (
"450 -9 OFFCURVE",
"579 40 OFFCURVE",
"612 216 CURVE SMOOTH",
"632 313 OFFCURVE",
"601 391 OFFCURVE",
"446 435 CURVE SMOOTH",
"338 466 OFFCURVE",
"328 472 OFFCURVE",
"332 492 CURVE SMOOTH",
"335 507 OFFCURVE",
"356 516 OFFCURVE",
"430 516 CURVE SMOOTH",
"467 516 OFFCURVE",
"508 514 OFFCURVE",
"575 507 CURVE SMOOTH",
"686 495 LINE",
"601 421 LINE",
"694 711 LINE",
"776 639 LINE",
"626 681 LINE SMOOTH",
"573 696 OFFCURVE",
"504 709 OFFCURVE",
"440 709 CURVE SMOOTH",
"264 709 OFFCURVE",
"135 650 OFFCURVE",
"105 501 CURVE SMOOTH",
"81 375 OFFCURVE",
"122 314 OFFCURVE",
"278 264 CURVE SMOOTH",
"376 232 OFFCURVE",
"378 224 OFFCURVE",
"376 211 CURVE SMOOTH",
"373 195 OFFCURVE",
"348 187 OFFCURVE",
"298 187 CURVE SMOOTH",
"247 187 OFFCURVE",
"183 192 OFFCURVE",
"141 198 CURVE SMOOTH",
"-33 219 LINE",
"89 291 LINE",
"-17 0 LINE",
"-49 67 LINE",
"52 32 LINE SMOOTH",
"127 6 OFFCURVE",
"201 -9 OFFCURVE",
"271 -9 CURVE SMOOTH"
);
}
);
width = 660;
},
{
anchors = (
{
name = bottom;
position = "{256, -35}";
},
{
name = top.case;
position = "{420, 720}";
}
);
background = {
paths = (
{
closed = 1;
nodes = (
"430 -10 OFFCURVE",
"538 48 OFFCURVE",
"565 190 CURVE SMOOTH",
"589 313 OFFCURVE",
"532 362 OFFCURVE",
"388 411 CURVE SMOOTH",
"265 452 OFFCURVE",
"241 464 OFFCURVE",
"250 513 CURVE SMOOTH",
"260 567 OFFCURVE",
"317 591 OFFCURVE",
"415 591 CURVE SMOOTH",
"462 591 OFFCURVE",
"516 586 OFFCURVE",
"563 578 CURVE SMOOTH",
"642 565 LINE",
"590 524 LINE",
"649 698 LINE",
"686 659 LINE",
"609 681 LINE SMOOTH",
"559 695 OFFCURVE",
"479 710 OFFCURVE",
"424 710 CURVE SMOOTH",
"271 710 OFFCURVE",
"145 656 OFFCURVE",
"121 531 CURVE SMOOTH",
"96 401 OFFCURVE",
"155 350 OFFCURVE",
"301 301 CURVE SMOOTH",
"420 261 OFFCURVE",
"439 238 OFFCURVE",
"429 188 CURVE SMOOTH",
"419 138 OFFCURVE",
"381 111 OFFCURVE",
"275 111 CURVE SMOOTH",
"224 111 OFFCURVE",
"159 118 OFFCURVE",
"88 132 CURVE SMOOTH",
"-8 151 LINE",
"68 195 LINE",
"0 8 LINE",
"-15 46 LINE",
"61 22 LINE SMOOTH",
"136 -2 OFFCURVE",
"194 -10 OFFCURVE",
"274 -10 CURVE SMOOTH"
);
}
);
};
guideLines = (
{
angle = 79;
position = "{603, 386}";
},
{
angle = 79;
position = "{481, 456}";
},
{
angle = 79;
position = "{88, 360}";
},
{
angle = 79;
position = "{191, 211}";
}
);
layerId = "74CCE9C5-5564-42E0-9214-3BF0725DF94D";
paths = (
{
closed = 1;
nodes = (
"430 -10 OFFCURVE",
"538 48 OFFCURVE",
"565 190 CURVE SMOOTH",
"589 313 OFFCURVE",
"532 362 OFFCURVE",
"388 411 CURVE SMOOTH",
"265 452 OFFCURVE",
"241 464 OFFCURVE",
"250 513 CURVE SMOOTH",
"260 567 OFFCURVE",
"317 591 OFFCURVE",
"415 591 CURVE SMOOTH",
"462 591 OFFCURVE",
"516 586 OFFCURVE",
"563 578 CURVE SMOOTH",
"642 565 LINE",
"590 524 LINE",
"649 698 LINE",
"686 659 LINE",
"609 681 LINE SMOOTH",
"559 695 OFFCURVE",
"479 710 OFFCURVE",
"424 710 CURVE SMOOTH",
"271 710 OFFCURVE",
"145 656 OFFCURVE",
"121 531 CURVE SMOOTH",
"96 401 OFFCURVE",
"155 350 OFFCURVE",
"301 301 CURVE SMOOTH",
"420 261 OFFCURVE",
"439 238 OFFCURVE",
"429 188 CURVE SMOOTH",
"419 138 OFFCURVE",
"381 111 OFFCURVE",
"275 111 CURVE SMOOTH",
"224 111 OFFCURVE",
"159 118 OFFCURVE",
"88 132 CURVE SMOOTH",
"-8 151 LINE",
"68 195 LINE",
"0 8 LINE",
"-15 50 LINE",
"61 24 LINE SMOOTH",
"136 -2 OFFCURVE",
"194 -10 OFFCURVE",
"274 -10 CURVE SMOOTH"
);
}
);
width = 625;
}
);
leftKerningGroup = S;
rightKerningGroup = S;
unicode = 0053;
},
{
glyphname = Germandbls;
lastChange = "2021-09-30 22:27:23 +0000";
layers = (
{
background = {
paths = (
{
closed = 1;
nodes = (
"537 -10 OFFCURVE",
"647 69 OFFCURVE",
"671 190 CURVE SMOOTH",
"694 310 OFFCURVE",
"633 385 OFFCURVE",
"461 385 CURVE SMOOTH",
"423 385 LINE",
"443 371 LINE",
"678 629 LINE",
"685 658 LINE",
"622 692 OFFCURVE",
"545 710 OFFCURVE",
"469 710 CURVE SMOOTH",
"322 710 OFFCURVE",
"177 645 OFFCURVE",
"151 507 CURVE SMOOTH",
"52 0 LINE",
"91 0 LINE",
"190 507 LINE SMOOTH",
"212 622 OFFCURVE",
"337 674 OFFCURVE",
"465 674 CURVE SMOOTH",
"534 674 OFFCURVE",
"603 660 OFFCURVE",
"659 631 CURVE",
"658 657 LINE",
"399 376 LINE",
"395 349 LINE",
"451 349 LINE SMOOTH",
"596 349 OFFCURVE",
"649 289 OFFCURVE",
"630 192 CURVE SMOOTH",
"609 83 OFFCURVE",
"530 27 OFFCURVE",
"398 27 CURVE SMOOTH",
"366 27 OFFCURVE",
"327 30 OFFCURVE",
"295 36 CURVE SMOOTH",
"240 46 LINE",
"264 59 LINE",
"247 -5 LINE",
"237 15 LINE",
"278 2 LINE SMOOTH",
"310 -8 OFFCURVE",
"356 -10 OFFCURVE",
"391 -10 CURVE SMOOTH"
);
}
);
};
guideLines = (
{
angle = 79;
position = "{630, -19}";
},
{
angle = 79;
position = "{593, 0}";
}
);
layerId = "13A5184A-77A5-4E03-80A5-A9198A2CA35F";
paths = (
{
closed = 1;
nodes = (
"543 -10 OFFCURVE",
"643 50 OFFCURVE",
"668 175 CURVE SMOOTH",
"692 298 OFFCURVE",
"632 385 OFFCURVE",
"457 385 CURVE SMOOTH",
"423 385 LINE",
"443 371 LINE",
"678 629 LINE",
"685 658 LINE",
"622 692 OFFCURVE",
"545 710 OFFCURVE",
"469 710 CURVE SMOOTH",
"311 710 OFFCURVE",
"177 645 OFFCURVE",
"151 507 CURVE SMOOTH",
"52 0 LINE",
"91 0 LINE",
"188 496 LINE SMOOTH",
"212 622 OFFCURVE",
"337 674 OFFCURVE",
"465 674 CURVE SMOOTH",
"534 674 OFFCURVE",
"603 660 OFFCURVE",
"659 631 CURVE",
"658 657 LINE",
"399 376 LINE",
"395 349 LINE",
"451 349 LINE SMOOTH",
"593 349 OFFCURVE",
"649 286 OFFCURVE",
"628 179 CURVE SMOOTH",
"608 75 OFFCURVE",
"529 26 OFFCURVE",
"391 26 CURVE SMOOTH",
"359 26 OFFCURVE",
"322 30 OFFCURVE",
"295 35 CURVE SMOOTH",
"240 45 LINE",
"264 59 LINE",
"247 -5 LINE",
"237 15 LINE",
"266 6 LINE SMOOTH",
"288 -1 OFFCURVE",
"348 -10 OFFCURVE",
"404 -10 CURVE SMOOTH"
);
}
);
width = 722;
},
{
background = {
paths = (
{
closed = 1;
nodes = (
"621 -47 OFFCURVE",
"718 40 OFFCURVE",
"730 153 CURVE SMOOTH",
"743 279 OFFCURVE",
"659 369 OFFCURVE",
"503 385 CURVE SMOOTH",
"484 387 LINE",
"539 344 LINE",
"693 554 LINE",
"700 616 LINE",
"633 660 OFFCURVE",
"547 689 OFFCURVE",
"465 697 CURVE SMOOTH",
"295 714 OFFCURVE",
"140 666 OFFCURVE",
"123 505 CURVE SMOOTH",
"73 24 LINE",
"204 10 LINE",
"252 472 LINE SMOOTH",
"261 561 OFFCURVE",
"344 591 OFFCURVE",
"441 582 CURVE SMOOTH",
"493 577 OFFCURVE",
"545 560 OFFCURVE",
"586 532 CURVE",
"580 613 LINE",
"414 391 LINE",
"404 296 LINE",
"473 289 LINE SMOOTH",
"566 280 OFFCURVE",
"601 238 OFFCURVE",
"595 178 CURVE SMOOTH",
"588 108 OFFCURVE",
"537 79 OFFCURVE",
"451 89 CURVE SMOOTH",
"424 92 OFFCURVE",
"389 101 OFFCURVE",
"367 107 CURVE SMOOTH",
"313 123 LINE",
"336 133 LINE",
"297 -2 LINE",
"290 27 LINE",
"337 6 LINE SMOOTH",
"379 -13 OFFCURVE",
"420 -22 OFFCURVE",
"468 -28 CURVE SMOOTH"
);
}
);
};
guideLines = (
{
angle = 79;
position = "{640, -65}";
},
{
angle = 79;
position = "{500, -89}";
}
);
layerId = "74CCE9C5-5564-42E0-9214-3BF0725DF94D";
paths = (
{
closed = 1;
nodes = (
"564 -10 OFFCURVE",
"668 76 OFFCURVE",
"690 190 CURVE SMOOTH",
"715 316 OFFCURVE",
"638 404 OFFCURVE",
"481 404 CURVE SMOOTH",
"462 404 LINE",
"524 367 LINE",
"690 591 LINE",
"702 654 LINE",
"637 689 OFFCURVE",
"547 710 OFFCURVE",
"461 710 CURVE SMOOTH",
"294 710 OFFCURVE",
"144 668 OFFCURVE",
"107 479 CURVE SMOOTH",
"14 0 LINE",
"145 0 LINE",
"233 450 LINE SMOOTH",
"253 552 OFFCURVE",
"332 593 OFFCURVE",
"436 593 CURVE SMOOTH",
"488 593 OFFCURVE",
"540 582 OFFCURVE",
"580 559 CURVE",
"570 638 LINE",
"392 400 LINE",
"373 305 LINE",
"459 305 LINE SMOOTH",
"539 305 OFFCURVE",
"570 261 OFFCURVE",
"558 201 CURVE SMOOTH",
"544 131 OFFCURVE",
"491 103 OFFCURVE",
"405 103 CURVE SMOOTH",
"378 103 OFFCURVE",
"336 109 OFFCURVE",
"314 113 CURVE SMOOTH",
"261 123 LINE",
"282 135 LINE",
"249 -2 LINE",
"234 25 LINE",
"275 13 LINE SMOOTH",
"324 -2 OFFCURVE",
"364 -10 OFFCURVE",
"428 -10 CURVE SMOOTH"
);
}
);
width = 727;
},
{
background = {
paths = (
{
closed = 1;
nodes = (
"629 -9 OFFCURVE",
"731 96 OFFCURVE",
"752 204 CURVE SMOOTH",
"775 322 OFFCURVE",
"721 400 OFFCURVE",
"552 400 CURVE SMOOTH",
"519 400 LINE",
"592 362 LINE",
"737 548 LINE",
"757 649 LINE",
"691 689 OFFCURVE",
"593 709 OFFCURVE",
"504 709 CURVE SMOOTH",
"302 709 OFFCURVE",
"119 644 OFFCURVE",
"84 461 CURVE SMOOTH",
"-6 0 LINE",
"217 0 LINE",
"303 441 LINE SMOOTH",
"315 504 OFFCURVE",
"371 530 OFFCURVE",
"441 530 CURVE SMOOTH",
"477 530 OFFCURVE",
"512 521 OFFCURVE",
"538 504 CURVE",
"565 605 LINE",
"406 398 LINE",
"384 284 LINE",
"480 284 LINE SMOOTH",
"538 284 OFFCURVE",
"551 261 OFFCURVE",
"544 228 CURVE SMOOTH",
"536 185 OFFCURVE",
"497 165 OFFCURVE",
"448 165 CURVE SMOOTH",
"423 165 OFFCURVE",
"391 171 OFFCURVE",
"372 174 CURVE SMOOTH",
"315 184 LINE",
"343 210 LINE",
"266 2 LINE",
"258 34 LINE",
"309 17 LINE SMOOTH",
"360 0 OFFCURVE",
"399 -9 OFFCURVE",
"462 -9 CURVE SMOOTH"
);
}
);
};
guideLines = (
{
angle = 79;
position = "{720, 39}";
},
{
angle = 79;
position = "{513, 70}";
}
);
layerId = "6D60D92C-1450-4586-BB49-599D0D4C1213";
paths = (
{
closed = 1;
nodes = (
"629 -9 OFFCURVE",
"727 74 OFFCURVE",
"748 182 CURVE SMOOTH",
"771 299 OFFCURVE",
"718 400 OFFCURVE",
"552 400 CURVE SMOOTH",
"519 400 LINE",
"592 362 LINE",
"737 548 LINE",
"756 640 LINE",
"690 686 OFFCURVE",
"585 709 OFFCURVE",
"472 709 CURVE SMOOTH",
"267 709 OFFCURVE",
"118 636 OFFCURVE",
"82 451 CURVE SMOOTH",
"-6 0 LINE",
"217 0 LINE",
"303 441 LINE SMOOTH",
"315 504 OFFCURVE",
"371 530 OFFCURVE",
"441 530 CURVE SMOOTH",
"477 530 OFFCURVE",
"514 523 OFFCURVE",
"540 506 CURVE",
"565 605 LINE",
"406 398 LINE",
"384 284 LINE",
"480 284 LINE SMOOTH",
"538 284 OFFCURVE",
"550 254 OFFCURVE",
"543 221 CURVE SMOOTH",
"535 178 OFFCURVE",
"497 165 OFFCURVE",
"448 165 CURVE SMOOTH",
"423 165 OFFCURVE",
"387 169 OFFCURVE",
"356 175 CURVE SMOOTH",
"311 183 LINE",
"333 210 LINE",
"271 2 LINE",
"258 34 LINE",
"309 17 LINE SMOOTH",
"360 0 OFFCURVE",
"414 -9 OFFCURVE",
"487 -9 CURVE SMOOTH"
);
}
);
width = 774;
}
);
unicode = 1E9E;
},
{
glyphname = Schwa;
lastChange = "2021-09-30 22:27:23 +0000";
layers = (
{
background = {
paths = (
{
closed = 1;
nodes = (
"507 -10 OFFCURVE",
"679 155 OFFCURVE",
"717 351 CURVE SMOOTH",
"760 574 OFFCURVE",
"646 710 OFFCURVE",
"429 710 CURVE SMOOTH",
"355 710 OFFCURVE",
"283 696 OFFCURVE",
"219 676 CURVE SMOOTH",
"151 655 LINE",
"172 695 LINE",
"180 615 LINE",
"162 629 LINE",
"222 647 LINE SMOOTH",
"291 668 OFFCURVE",
"353 674 OFFCURVE",
"418 674 CURVE SMOOTH",
"607 674 OFFCURVE",
"717 554 OFFCURVE",
"677 350 CURVE SMOOTH",
"639 154 OFFCURVE",
"481 26 OFFCURVE",
"321 26 CURVE SMOOTH",
"149 26 OFFCURVE",
"80 149 OFFCURVE",
"115 330 CURVE",
"90 310 LINE",
"691 310 LINE",
"698 346 LINE",
"80 346 LINE",
"76 323 LINE SMOOTH",
"45 145 OFFCURVE",
"106 -10 OFFCURVE",
"314 -10 CURVE SMOOTH"
);
}
);
};
layerId = "13A5184A-77A5-4E03-80A5-A9198A2CA35F";
paths = (
{
closed = 1;
nodes = (
"520 -10 OFFCURVE",
"679 147 OFFCURVE",
"716 339 CURVE SMOOTH",
"762 579 OFFCURVE",
"637 710 OFFCURVE",
"432 710 CURVE SMOOTH",
"374 710 OFFCURVE",
"306 701 OFFCURVE",
"236 679 CURVE SMOOTH",
"152 653 LINE",
"164 695 LINE",
"189 615 LINE",
"163 630 LINE",
"243 651 LINE SMOOTH",
"305 667 OFFCURVE",
"363 674 OFFCURVE",
"417 674 CURVE SMOOTH",
"602 674 OFFCURVE",
"721 564 OFFCURVE",
"679 350 CURVE SMOOTH",
"641 154 OFFCURVE",
"482 26 OFFCURVE",
"322 26 CURVE SMOOTH",
"146 26 OFFCURVE",
"82 144 OFFCURVE",
"118 330 CURVE",
"91 310 LINE",
"692 310 LINE",
"699 346 LINE",
"80 346 LINE",
"76 323 LINE SMOOTH",
"45 145 OFFCURVE",
"107 -10 OFFCURVE",
"315 -10 CURVE SMOOTH"
);
}
);
width = 763;
},
{
background = {
components = (
{
name = O;
transform = "{1, 0, 0, 1, -9, 0}";
}
);
};
layerId = "74CCE9C5-5564-42E0-9214-3BF0725DF94D";
paths = (
{
closed = 1;
nodes = (
"553 -10 OFFCURVE",
"697 112 OFFCURVE",
"739 329 CURVE SMOOTH",
"784 564 OFFCURVE",
"659 710 OFFCURVE",
"451 710 CURVE SMOOTH",
"370 710 OFFCURVE",
"294 699 OFFCURVE",
"221 674 CURVE SMOOTH",
"141 647 LINE",
"144 694 LINE",
"186 510 LINE",
"152 552 LINE",
"234 569 LINE SMOOTH",
"299 582 OFFCURVE",
"356 589 OFFCURVE",
"410 589 CURVE SMOOTH",
"569 589 OFFCURVE",
"641 513 OFFCURVE",
"607 335 CURVE SMOOTH",
"579 185 OFFCURVE",
"477 111 OFFCURVE",
"357 111 CURVE SMOOTH",
"234 111 OFFCURVE",
"173 186 OFFCURVE",
"200 326 CURVE",
"156 285 LINE",
"625 285 LINE",
"646 390 LINE",
"77 390 LINE",
"70 355 LINE SMOOTH",
"28 155 OFFCURVE",
"126 -10 OFFCURVE",
"342 -10 CURVE SMOOTH"
);
}
);
width = 774;
},
{
background = {
paths = (
{
closed = 1;
nodes = (
"531 -9 OFFCURVE",
"704 70 OFFCURVE",
"754 323 CURVE SMOOTH",
"802 565 OFFCURVE",
"662 709 OFFCURVE",
"447 709 CURVE SMOOTH",
"347 709 OFFCURVE",
"264 695 OFFCURVE",
"159 661 CURVE SMOOTH",
"68 631 LINE",
"102 693 LINE",
"152 404 LINE",
"112 483 LINE",
"215 498 LINE SMOOTH",
"291 509 OFFCURVE",
"342 514 OFFCURVE",
"388 514 CURVE SMOOTH",
"504 514 OFFCURVE",
"562 467 OFFCURVE",
"539 348 CURVE SMOOTH",
"513 216 OFFCURVE",
"460 180 OFFCURVE",
"381 180 CURVE SMOOTH",
"296 180 OFFCURVE",
"269 223 OFFCURVE",
"282 322 CURVE",
"215 273 LINE",
"552 273 LINE",
"581 420 LINE",
"61 420 LINE",
"52 374 LINE SMOOTH",
"8 146 OFFCURVE",
"130 -9 OFFCURVE",
"359 -9 CURVE SMOOTH"
);
}
);
};
guideLines = (
{
angle = 79;
position = "{364, 103}";
}
);
layerId = "6D60D92C-1450-4586-BB49-599D0D4C1213";
paths = (
{
closed = 1;
nodes = (
"538 -9 OFFCURVE",
"704 70 OFFCURVE",
"754 323 CURVE SMOOTH",
"802 565 OFFCURVE",
"662 709 OFFCURVE",
"447 709 CURVE SMOOTH",
"347 709 OFFCURVE",
"264 695 OFFCURVE",
"159 661 CURVE SMOOTH",
"68 631 LINE",
"102 693 LINE",
"152 404 LINE",
"112 483 LINE",
"215 498 LINE SMOOTH",
"291 509 OFFCURVE",
"342 514 OFFCURVE",
"388 514 CURVE SMOOTH",
"504 514 OFFCURVE",
"562 467 OFFCURVE",
"539 348 CURVE SMOOTH",
"513 216 OFFCURVE",
"460 180 OFFCURVE",
"381 180 CURVE SMOOTH",
"296 180 OFFCURVE",
"269 223 OFFCURVE",
"282 322 CURVE",
"215 273 LINE",
"552 273 LINE",
"581 420 LINE",
"61 420 LINE",
"54 385 LINE SMOOTH",
"10 154 OFFCURVE",
"150 -9 OFFCURVE",
"366 -9 CURVE SMOOTH"
);
}
);
width = 777;
}
);
rightMetricsKey = O;
unicode = 018F;
},
{
color = 4;
glyphname = T;
lastChange = "2021-09-30 22:27:23 +0000";
layers = (
{
anchors = (
{
name = bottom;
position = "{267, -35}";
},
{
name = top.case;
position = "{413, 720}";
}
);
layerId = "13A5184A-77A5-4E03-80A5-A9198A2CA35F";
paths = (
{
closed = 1;
nodes = (
"292 0 LINE",
"421 664 LINE",
"693 664 LINE",
"700 700 LINE",
"118 700 LINE",
"111 664 LINE",
"382 664 LINE",
"253 0 LINE"
);
}
);
width = 642;
},
{
anchors = (
{
name = bottom;
position = "{287, -35}";
},
{
name = top.case;
position = "{434, 720}";
}
);
layerId = "6D60D92C-1450-4586-BB49-599D0D4C1213";
paths = (
{
closed = 1;
nodes = (
"406 0 LINE",
"504 505 LINE",
"712 505 LINE",
"750 700 LINE",
"110 700 LINE",
"72 505 LINE",
"281 505 LINE",
"183 0 LINE"
);
}
);
width = 690;
},
{
anchors = (
{
name = bottom;
position = "{290, -35}";
},
{
name = top.case;
position = "{427, 720}";
}
);
background = {
paths = (
{
closed = 1;
nodes = (
"352 0 LINE",
"464 576 LINE",
"694 576 LINE",
"718 700 LINE",
"127 700 LINE",
"103 576 LINE",
"334 576 LINE",
"222 0 LINE"
);
}
);
};
guideLines = (
{
position = "{180, 586}";
}
);
layerId = "74CCE9C5-5564-42E0-9214-3BF0725DF94D";
paths = (
{
closed = 1;
nodes = (
"353 0 LINE",
"467 585 LINE",
"706 585 LINE",
"728 700 LINE",
"117 700 LINE",
"95 585 LINE",
"336 585 LINE",
"222 0 LINE"
);
}
);
width = 672;
}
);
leftKerningGroup = T;
rightKerningGroup = T;
unicode = 0054;
},
{
color = 3;
glyphname = Tbar;
lastChange = "2021-09-30 22:27:23 +0000";
layers = (
{
components = (
{
name = T;
}
);
layerId = "13A5184A-77A5-4E03-80A5-A9198A2CA35F";
paths = (
{
closed = 1;
nodes = (
"525 350 LINE",
"531 386 LINE",
"163 386 LINE",
"157 350 LINE"
);
}
);
width = 642;
},
{
components = (
{
name = T;
}
);
layerId = "6D60D92C-1450-4586-BB49-599D0D4C1213";
paths = (
{
closed = 1;
nodes = (
"595 250 LINE",
"617 368 LINE",
"114 368 LINE",
"92 250 LINE"
);
}
);
width = 690;
},
{
components = (
{
alignment = -1;
name = T;
}
);
layerId = "74CCE9C5-5564-42E0-9214-3BF0725DF94D";
paths = (
{
closed = 1;
nodes = (
"561 294 LINE",
"579 382 LINE",
"145 382 LINE",
"127 294 LINE"
);
}
);
width = 672;
}
);
leftKerningGroup = T;
leftMetricsKey = T;
rightKerningGroup = T;
rightMetricsKey = T;
unicode = 0166;
},
{
glyphname = U;
lastChange = "2021-09-30 22:27:23 +0000";
layers = (
{
anchors = (
{
name = bottom;
position = "{311, -35}";
},
{
name = ogonek;
position = "{359, 10}";
},
{
name = top.case;
position = "{457, 720}";
}
);
background = {
paths = (
{
closed = 1;
nodes = (
"499 -10 OFFCURVE",
"612 75 OFFCURVE",
"650 274 CURVE SMOOTH",
"733 700 LINE",
"696 700 LINE",
"615 285 LINE SMOOTH",
"579 100 OFFCURVE",
"479 26 OFFCURVE",
"328 26 CURVE SMOOTH",
"180 26 OFFCURVE",
"105 100 OFFCURVE",
"141 285 CURVE SMOOTH",
"222 700 LINE",
"183 700 LINE",
"103 285 LINE SMOOTH",
"64 86 OFFCURVE",
"153 -10 OFFCURVE",
"327 -10 CURVE SMOOTH"
);
}
);
};
layerId = "13A5184A-77A5-4E03-80A5-A9198A2CA35F";
paths = (
{
closed = 1;
nodes = (
"494 -10 OFFCURVE",
"607 75 OFFCURVE",
"645 274 CURVE SMOOTH",
"728 700 LINE",
"691 700 LINE",
"610 285 LINE SMOOTH",
"574 100 OFFCURVE",
"474 26 OFFCURVE",
"323 26 CURVE SMOOTH",
"174 26 OFFCURVE",
"100 98 OFFCURVE",
"138 292 CURVE SMOOTH",
"218 700 LINE",
"178 700 LINE",
"100 296 LINE SMOOTH",
"59 84 OFFCURVE",
"147 -10 OFFCURVE",
"322 -10 CURVE SMOOTH"
);
}
);
width = 730;
},
{
anchors = (
{
name = bottom;
position = "{332, -35}";
},
{
name = ogonek;
position = "{417, 10}";
},
{
name = top.case;
position = "{473, 720}";
}
);
background = {
paths = (
{
closed = 1;
nodes = (
"530 -9 OFFCURVE",
"690 106 OFFCURVE",
"725 286 CURVE SMOOTH",
"806 700 LINE",
"590 700 LINE",
"515 315 LINE SMOOTH",
"497 223 OFFCURVE",
"450 198 OFFCURVE",
"373 198 CURVE SMOOTH",
"294 198 OFFCURVE",
"255 223 OFFCURVE",
"273 315 CURVE SMOOTH",
"348 700 LINE",
"125 700 LINE",
"44 286 LINE SMOOTH",
"9 106 OFFCURVE",
"113 -9 OFFCURVE",
"326 -9 CURVE SMOOTH"
);
}
);
};
layerId = "6D60D92C-1450-4586-BB49-599D0D4C1213";
paths = (
{
closed = 1;
nodes = (
"536 -9 OFFCURVE",
"685 85 OFFCURVE",
"726 293 CURVE SMOOTH",
"806 700 LINE",
"590 700 LINE",
"512 304 LINE SMOOTH",
"496 223 OFFCURVE",
"443 199 OFFCURVE",
"376 199 CURVE SMOOTH",
"303 199 OFFCURVE",
"256 222 OFFCURVE",
"272 306 CURVE SMOOTH",
"349 700 LINE",
"125 700 LINE",
"48 304 LINE SMOOTH",
"4 76 OFFCURVE",
"169 -9 OFFCURVE",
"336 -9 CURVE SMOOTH"
);
}
);
width = 761;
},
{
anchors = (
{
name = bottom;
position = "{311, -35}";
},
{
name = ogonek;
position = "{364, 10}";
},
{
name = top.case;
position = "{452, 720}";
}
);
background = {
paths = (
{
closed = 1;
nodes = (
"511 -10 OFFCURVE",
"632 78 OFFCURVE",
"672 270 CURVE SMOOTH",
"756 700 LINE",
"629 700 LINE",
"550 295 LINE SMOOTH",
"524 162 OFFCURVE",
"453 113 OFFCURVE",
"344 113 CURVE SMOOTH",
"233 113 OFFCURVE",
"179 160 OFFCURVE",
"205 299 CURVE SMOOTH",
"284 700 LINE",
"152 700 LINE",
"75 300 LINE SMOOTH",
"32 80 OFFCURVE",
"153 -10 OFFCURVE",
"328 -10 CURVE SMOOTH"
);
}
);
};
layerId = "74CCE9C5-5564-42E0-9214-3BF0725DF94D";
paths = (
{
closed = 1;
nodes = (
"501 -10 OFFCURVE",
"621 78 OFFCURVE",
"660 270 CURVE SMOOTH",
"744 700 LINE",
"617 700 LINE",
"539 301 LINE SMOOTH",
"513 164 OFFCURVE",
"443 116 OFFCURVE",
"337 116 CURVE SMOOTH",
"232 116 OFFCURVE",
"179 164 OFFCURVE",
"205 301 CURVE SMOOTH",
"283 700 LINE",
"152 700 LINE",
"74 300 LINE SMOOTH",
"32 80 OFFCURVE",
"150 -10 OFFCURVE",
"321 -10 CURVE SMOOTH"
);
}
);
width = 722;
}
);
leftKerningGroup = U;
rightKerningGroup = U;
unicode = 0055;
},
{
glyphname = Uhorn;
lastChange = "2021-09-30 22:27:23 +0000";
layers = (
{
anchors = (
{
name = bottom;
position = "{311, -35}";
},
{
name = ogonek;
position = "{359, 10}";
},
{
name = top.case;
position = "{457, 720}";
}
);
components = (
{
name = U;
}
);
layerId = "13A5184A-77A5-4E03-80A5-A9198A2CA35F";
paths = (
{
closed = 1;
nodes = (
"901 648 OFFCURVE",
"948 682 OFFCURVE",
"966 771 CURVE SMOOTH",
"973 806 OFFCURVE",
"967 844 OFFCURVE",
"952 883 CURVE",
"1014 865 LINE",
"884 839 LINE",
"938 878 LINE",
"937 836 OFFCURVE",
"935 798 OFFCURVE",
"930 770 CURVE SMOOTH",
"917 697 OFFCURVE",
"878 680 OFFCURVE",
"831 680 CURVE SMOOTH",
"798 680 OFFCURVE",
"763 690 OFFCURVE",
"728 700 CURVE",
"715 668 LINE",
"755 655 OFFCURVE",
"795 648 OFFCURVE",
"832 648 CURVE SMOOTH"
);
}
);
width = 730;
},
{
anchors = (
{
name = bottom;
position = "{311, -35}";
},
{
name = ogonek;
position = "{364, 10}";
},
{
name = top.case;
position = "{452, 720}";
}
);
background = {
components = (
{
name = Ohorn;
transform = "{1, 0, 0, 1, 88, 8}";
}
);
};
components = (
{
alignment = -1;
name = U;
}
);
layerId = "74CCE9C5-5564-42E0-9214-3BF0725DF94D";
paths = (
{
closed = 1;
nodes = (
"902 581 OFFCURVE",
"974 612 OFFCURVE",
"995 722 CURVE SMOOTH",
"1009 792 OFFCURVE",
"994 866 OFFCURVE",
"971 926 CURVE",
"1061 902 LINE",
"849 859 LINE",
"891 886 LINE",
"891 843 OFFCURVE",
"887 806 OFFCURVE",
"881 776 CURVE SMOOTH",
"869 716 OFFCURVE",
"834 692 OFFCURVE",
"801 692 CURVE SMOOTH",
"782 692 OFFCURVE",
"766 695 OFFCURVE",
"744 700 CURVE",
"705 599 LINE",
"734 587 OFFCURVE",
"771 581 OFFCURVE",
"807 581 CURVE SMOOTH"
);
}
);
width = 792;
},
{
anchors = (
{
name = bottom;
position = "{305, -35}";
},
{
name = ogonek;
position = "{363, 10}";
},
{
name = top.case;
position = "{453, 720}";
}
);
background = {
paths = (
{
closed = 1;
nodes = (
"990 559 OFFCURVE",
"1050 606 OFFCURVE",
"1068 698 CURVE SMOOTH",
"1083 772 OFFCURVE",
"1071 847 OFFCURVE",
"1025 959 CURVE",
"1143 919 LINE",
"851 861 LINE",
"923 897 LINE",
"932 841 OFFCURVE",
"937 788 OFFCURVE",
"930 754 CURVE SMOOTH",
"920 711 OFFCURVE",
"893 687 OFFCURVE",
"836 687 CURVE SMOOTH",
"833 687 OFFCURVE",
"831 688 OFFCURVE",
"829 688 CURVE",
"772 563 LINE",
"794 561 OFFCURVE",
"814 559 OFFCURVE",
"834 559 CURVE SMOOTH"
);
}
);
};
components = (
{
name = U;
}
);
layerId = "6D60D92C-1450-4586-BB49-599D0D4C1213";
paths = (
{
closed = 1;
nodes = (
"978 552 OFFCURVE",
"1051 605 OFFCURVE",
"1068 697 CURVE SMOOTH",
"1082 770 OFFCURVE",
"1071 842 OFFCURVE",
"1036 941 CURVE",
"1151 922 LINE",
"847 861 LINE",
"923 891 LINE",
"931 849 OFFCURVE",
"932 813 OFFCURVE",
"932 783 CURVE SMOOTH",
"932 727 OFFCURVE",
"898 694 OFFCURVE",
"847 694 CURVE SMOOTH",
"834 694 OFFCURVE",
"820 696 OFFCURVE",
"806 700 CURVE",
"766 563 LINE",
"792 560 OFFCURVE",
"817 559 OFFCURVE",
"840 558 CURVE SMOOTH"
);
}
);
width = 900;
}
);
leftMetricsKey = U;
unicode = 01AF;
},
{
glyphname = V;
lastChange = "2021-09-30 23:32:11 +0000";
layers = (
{
background = {
paths = (
{
closed = 1;
nodes = (
"315 -5 LINE",
"763 700 LINE",
"719 700 LINE",
"299 37 LINE",
"297 37 LINE",
"138 700 LINE",
"98 700 LINE",
"269 -5 LINE"
);
}
);
};
guideLines = (
{
position = "{424, 23}";
}
);
layerId = "13A5184A-77A5-4E03-80A5-A9198A2CA35F";
paths = (
{
closed = 1;
nodes = (
"321 -5 LINE",
"763 700 LINE",
"719 700 LINE",
"296 23 LINE",
"294 23 LINE",
"138 700 LINE",
"98 700 LINE",
"263 -5 LINE"
);
}
);
width = 685;
},
{
background = {
paths = (
{
closed = 1;
nodes = (
"504 19 LINE",
"871 676 LINE",
"626 715 LINE",
"432 296 LINE",
"428 296 LINE",
"359 757 LINE",
"105 797 LINE",
"259 58 LINE"
);
}
);
};
layerId = "6D60D92C-1450-4586-BB49-599D0D4C1213";
paths = (
{
closed = 1;
nodes = (
"488 0 LINE",
"881 700 LINE",
"620 700 LINE",
"418 256 LINE",
"414 256 LINE",
"352 700 LINE",
"105 700 LINE",
"249 0 LINE"
);
}
);
width = 816;
},
{
background = {
paths = (
{
closed = 1;
nodes = (
"391 33 LINE",
"800 683 LINE",
"662 706 LINE",
"366 209 LINE",
"362 209 LINE",
"237 772 LINE",
"94 795 LINE",
"274 52 LINE"
);
}
);
};
layerId = "74CCE9C5-5564-42E0-9214-3BF0725DF94D";
paths = (
{
closed = 1;
nodes = (
"369 -6 LINE",
"804 700 LINE",
"651 700 LINE",
"345 170 LINE",
"341 170 LINE",
"238 700 LINE",
"102 700 LINE",
"251 -6 LINE"
);
}
);
width = 732;
}
);
leftMetricsKey = "=A+5";
rightMetricsKey = "=A+5";
unicode = 0056;
},
{
glyphname = W;
lastChange = "2021-09-30 22:27:23 +0000";
layers = (
{
anchors = (
{
name = top.case;
position = "{615, 720}";
}
);
background = {
paths = (
{
closed = 1;
nodes = (
"277 -5 LINE",
"600 645 LINE",
"609 645 LINE",
"598 686 LINE",
"672 -5 LINE",
"724 -5 LINE",
"1103 700 LINE",
"1062 700 LINE",
"705 23 LINE",
"693 23 LINE",
"704 13 LINE",
"631 700 LINE",
"588 700 LINE",
"256 23 LINE",
"239 23 LINE",
"256 9 LINE",
"162 700 LINE",
"123 700 LINE",
"223 -5 LINE"
);
}
);
};
guideLines = (
{
position = "{427, 23}";
}
);
layerId = "13A5184A-77A5-4E03-80A5-A9198A2CA35F";
paths = (
{
closed = 1;
nodes = (
"277 -5 LINE",
"606 674 LINE",
"623 674 LINE",
"606 686 LINE",
"672 -5 LINE",
"724 -5 LINE",
"1103 700 LINE",
"1062 700 LINE",
"705 23 LINE",
"693 23 LINE",
"704 13 LINE",
"639 700 LINE",
"580 700 LINE",
"256 23 LINE",
"239 23 LINE",
"256 9 LINE",
"162 700 LINE",
"123 700 LINE",
"223 -5 LINE"
);
}
);
width = 1050;
},
{
anchors = (
{
name = top.case;
position = "{651, 720}";
}
);
background = {
paths = (
{
closed = 1;
nodes = (
"408 0 LINE",
"585 380 LINE",
"602 384 LINE",
"581 448 LINE",
"632 0 LINE",
"854 0 LINE",
"1202 700 LINE",
"960 700 LINE",
"775 306 LINE",
"754 306 LINE",
"775 267 LINE",
"739 700 LINE",
"562 700 LINE",
"375 296 LINE",
"361 296 LINE",
"373 258 LINE",
"341 700 LINE",
"115 700 LINE",
"193 0 LINE"
);
}
);
};
guideLines = (
{
position = "{72, 271}";
},
{
position = "{72, 390}";
}
);
layerId = "6D60D92C-1450-4586-BB49-599D0D4C1213";
paths = (
{
closed = 1;
nodes = (
"408 0 LINE",
"583 392 LINE",
"602 392 LINE",
"581 448 LINE",
"632 0 LINE",
"854 0 LINE",
"1202 700 LINE",
"960 700 LINE",
"771 271 LINE",
"750 271 LINE",
"772 248 LINE",
"739 700 LINE",
"562 700 LINE",
"369 271 LINE",
"355 271 LINE",
"370 258 LINE",
"341 700 LINE",
"115 700 LINE",
"193 0 LINE"
);
}
);
width = 1147;
},
{
anchors = (
{
name = top.case;
position = "{634, 720}";
}
);
background = {
paths = (
{
closed = 1;
nodes = (
"333 36 LINE",
"578 510 LINE",
"597 506 LINE",
"574 566 LINE",
"630 -22 LINE",
"768 -49 LINE",
"1126 601 LINE",
"997 626 LINE",
"739 146 LINE",
"718 151 LINE",
"741 106 LINE",
"680 692 LINE",
"551 717 LINE",
"298 224 LINE",
"280 228 LINE",
"300 191 LINE",
"242 773 LINE",
"104 800 LINE",
"197 62 LINE"
);
}
);
};
guideLines = (
{
position = "{85, 164}";
},
{
position = "{149, 508}";
}
);
layerId = "74CCE9C5-5564-42E0-9214-3BF0725DF94D";
paths = (
{
closed = 1;
nodes = (
"337 -6 LINE",
"581 503 LINE",
"601 503 LINE",
"576 564 LINE",
"630 -6 LINE",
"764 -6 LINE",
"1118 700 LINE",
"977 700 LINE",
"733 164 LINE",
"708 164 LINE",
"736 141 LINE",
"676 704 LINE",
"552 704 LINE",
"302 164 LINE",
"283 164 LINE",
"302 139 LINE",
"257 700 LINE",
"117 700 LINE",
"202 -6 LINE"
);
}
);
width = 1061;
}
);
leftKerningGroup = W;
rightKerningGroup = W;
unicode = 0057;
},
{
glyphname = X;
lastChange = "2021-09-30 22:27:23 +0000";
layers = (
{
background = {
paths = (
{
closed = 1;
nodes = (
"645 13 LINE",
"411 403 LINE",
"399 413 LINE",
"186 768 LINE",
"140 775 LINE",
"369 392 LINE",
"379 383 LINE",
"601 17 LINE"
);
},
{
closed = 1;
nodes = (
"99 74 LINE",
"388 374 LINE",
"371 406 LINE",
"51 79 LINE"
);
},
{
closed = 1;
nodes = (
"714 709 LINE",
"669 713 LINE",
"380 404 LINE",
"398 372 LINE"
);
}
);
};
layerId = "13A5184A-77A5-4E03-80A5-A9198A2CA35F";
paths = (
{
closed = 1;
nodes = (
"572 0 LINE",
"367 361 LINE",
"359 371 LINE",
"173 700 LINE",
"131 700 LINE",
"330 347 LINE",
"338 338 LINE",
"531 0 LINE"
);
},
{
closed = 1;
nodes = (
"30 0 LINE",
"344 332 LINE",
"326 362 LINE",
"-23 0 LINE"
);
},
{
closed = 1;
nodes = (
"701 700 LINE",
"652 700 LINE",
"335 361 LINE",
"355 331 LINE"
);
}
);
width = 645;
},
{
background = {
paths = (
{
closed = 1;
nodes = (
"702 -42 LINE",
"502 416 LINE",
"466 445 LINE",
"358 721 LINE",
"99 762 LINE",
"308 282 LINE",
"341 261 LINE",
"462 -4 LINE"
);
},
{
closed = 1;
nodes = (
"220 35 LINE",
"389 223 LINE",
"286 423 LINE",
"-17 72 LINE"
);
},
{
closed = 1;
nodes = (
"808 650 LINE",
"567 688 LINE",
"417 526 LINE",
"512 327 LINE"
);
}
);
};
layerId = "6D60D92C-1450-4586-BB49-599D0D4C1213";
paths = (
{
closed = 1;
nodes = (
"687 0 LINE",
"495 420 LINE",
"462 444 LINE",
"347 700 LINE",
"100 700 LINE",
"316 259 LINE",
"349 242 LINE",
"457 0 LINE"
);
},
{
closed = 1;
nodes = (
"210 0 LINE",
"377 216 LINE",
"271 392 LINE",
"-41 0 LINE"
);
},
{
closed = 1;
nodes = (
"818 700 LINE",
"561 700 LINE",
"410 510 LINE",
"506 334 LINE"
);
}
);
width = 748;
},
{
background = {
paths = (
{
closed = 0;
nodes = (
"316 309 LINE",
"117 700 LINE",
"255 700 LINE",
"404 410 LINE"
);
}
);
};
layerId = "74CCE9C5-5564-42E0-9214-3BF0725DF94D";
paths = (
{
closed = 1;
nodes = (
"623 0 LINE",
"424 391 LINE",
"405 408 LINE",
"255 700 LINE",
"118 700 LINE",
"319 303 LINE",
"336 290 LINE",
"485 0 LINE"
);
},
{
closed = 1;
nodes = (
"128 0 LINE",
"366 272 LINE",
"296 377 LINE",
"-29 0 LINE"
);
},
{
closed = 1;
nodes = (
"756 700 LINE",
"603 700 LINE",
"369 438 LINE",
"433 332 LINE"
);
}
);
width = 695;
}
);
unicode = 0058;
},
{
glyphname = Y;
lastChange = "2021-09-30 22:27:23 +0000";
layers = (
{
anchors = (
{
name = bottom;
position = "{272, -35}";
},
{
name = top.case;
position = "{419, 720}";
}
);
background = {
paths = (
{
closed = 1;
nodes = (
"297 0 LINE",
"357 313 LINE",
"717 700 LINE",
"664 700 LINE",
"342 347 LINE",
"159 700 LINE",
"113 700 LINE",
"319 316 LINE",
"258 0 LINE"
);
}
);
};
layerId = "13A5184A-77A5-4E03-80A5-A9198A2CA35F";
paths = (
{
closed = 1;
nodes = (
"297 0 LINE",
"357 313 LINE",
"717 700 LINE",
"664 700 LINE",
"343 347 LINE",
"341 347 LINE",
"159 700 LINE",
"113 700 LINE",
"319 316 LINE",
"258 0 LINE"
);
}
);
width = 654;
},
{
anchors = (
{
name = bottom;
position = "{342, -35}";
},
{
name = top.case;
position = "{500, 720}";
}
);
background = {
paths = (
{
closed = 1;
nodes = (
"469 0 LINE",
"510 210 LINE",
"882 700 LINE",
"638 700 LINE",
"441 410 LINE",
"437 410 LINE",
"353 700 LINE",
"99 700 LINE",
"285 202 LINE",
"246 0 LINE"
);
}
);
};
guideLines = (
{
position = "{375, 262}";
}
);
layerId = "6D60D92C-1450-4586-BB49-599D0D4C1213";
paths = (
{
closed = 1;
nodes = (
"470 0 LINE",
"510 210 LINE",
"877 700 LINE",
"616 700 LINE",
"439 410 LINE",
"437 410 LINE",
"344 700 LINE",
"110 700 LINE",
"294 235 LINE",
"247 0 LINE"
);
}
);
width = 817;
},
{
anchors = (
{
name = bottom;
position = "{303, -35}";
},
{
name = top.case;
position = "{455, 720}";
}
);
background = {
paths = (
{
closed = 1;
nodes = (
"402 9 LINE",
"436 251 LINE",
"777 663 LINE",
"621 685 LINE",
"393 387 LINE",
"389 388 LINE",
"252 737 LINE",
"92 760 LINE",
"307 269 LINE",
"273 27 LINE"
);
}
);
};
layerId = "74CCE9C5-5564-42E0-9214-3BF0725DF94D";
paths = (
{
closed = 1;
nodes = (
"379 0 LINE",
"425 239 LINE",
"805 700 LINE",
"629 700 LINE",
"386 369 LINE",
"382 369 LINE",
"257 700 LINE",
"111 700 LINE",
"297 250 LINE",
"248 0 LINE"
);
}
);
width = 742;
}
);
leftKerningGroup = Y;
rightKerningGroup = Y;
unicode = 0059;
},
{
glyphname = Z;
lastChange = "2021-09-30 22:27:23 +0000";
layers = (
{
anchors = (
{
name = top.case;
position = "{389, 720}";
}
);
background = {
anchors = (
{
name = top.case;
position = "{360, 719}";
}
);
paths = (
{
closed = 1;
nodes = (
"556 -26 LINE",
"560 10 LINE",
"83 60 LINE",
"618 643 LINE",
"621 671 LINE",
"112 724 LINE",
"108 688 LINE",
"567 640 LINE",
"32 58 LINE",
"29 29 LINE"
);
}
);
};
layerId = "13A5184A-77A5-4E03-80A5-A9198A2CA35F";
paths = (
{
closed = 1;
nodes = (
"522 0 LINE",
"529 36 LINE",
"11 36 LINE",
"25 3 LINE",
"645 672 LINE",
"650 700 LINE",
"138 700 LINE",
"131 664 LINE",
"629 664 LINE",
"615 697 LINE",
"-2 29 LINE",
"-8 0 LINE"
);
}
);
width = 610;
},
{
anchors = (
{
name = top.case;
position = "{433, 720}";
}
);
background = {
paths = (
{
closed = 1;
nodes = (
"599 0 LINE",
"637 195 LINE",
"305 195 LINE",
"316 171 LINE",
"695 532 LINE",
"728 700 LINE",
"126 700 LINE",
"88 505 LINE",
"426 505 LINE",
"416 529 LINE",
"16 160 LINE",
"-15 0 LINE"
);
}
);
};
layerId = "6D60D92C-1450-4586-BB49-599D0D4C1213";
paths = (
{
closed = 1;
nodes = (
"598 0 LINE",
"637 195 LINE",
"305 195 LINE",
"318 164 LINE",
"694 532 LINE",
"727 700 LINE",
"125 700 LINE",
"88 505 LINE",
"427 505 LINE",
"415 536 LINE",
"15 160 LINE",
"-16 0 LINE"
);
}
);
width = 684;
},
{
anchors = (
{
name = top.case;
position = "{403, 720}";
}
);
background = {
paths = (
{
closed = 1;
nodes = (
"541 0 LINE",
"565 124 LINE",
"199 124 LINE",
"652 607 LINE",
"670 700 LINE",
"135 700 LINE",
"111 576 LINE",
"461 576 LINE",
"8 89 LINE",
"-9 0 LINE"
);
}
);
};
layerId = "74CCE9C5-5564-42E0-9214-3BF0725DF94D";
paths = (
{
closed = 1;
nodes = (
"541 0 LINE",
"563 115 LINE",
"144 115 LINE",
"158 82 LINE",
"652 607 LINE",
"670 700 LINE",
"135 700 LINE",
"112 585 LINE",
"515 585 LINE",
"501 618 LINE",
"8 89 LINE",
"-9 0 LINE"
);
}
);
width = 630;
}
);
leftKerningGroup = Z;
rightKerningGroup = Z;
unicode = 005A;
},
{
color = 4;
glyphname = a;
lastChange = "2021-09-30 22:27:23 +0000";
layers = (
{
anchors = (
{
name = bottom;
position = "{224, -35}";
},
{
name = ogonek;
position = "{391, 10}";
},
{
name = top;
position = "{314, 550}";
}
);
background = {
paths = (
{
closed = 1;
nodes = (
"478 39 LINE",
"492 20 LINE",
"398 21 OFFCURVE",
"383 33 OFFCURVE",
"393 85 CURVE SMOOTH",
"440 325 LINE SMOOTH",
"463 443 OFFCURVE",
"408 496 OFFCURVE",
"302 496 CURVE SMOOTH",
"245 496 OFFCURVE",
"189 483 OFFCURVE",
"142 464 CURVE SMOOTH",
"85 442 LINE",
"104 471 LINE",
"122 415 LINE",
"104 425 LINE",
"146 438 LINE SMOOTH",
"182 449 OFFCURVE",
"234 464 OFFCURVE",
"293 464 CURVE SMOOTH",
"384 464 OFFCURVE",
"423 423 OFFCURVE",
"405 331 CURVE SMOOTH",
"358 88 LINE",
"357 80 LINE",
"347 28 OFFCURVE",
"374 -6 OFFCURVE",
"441 -6 CURVE SMOOTH",
"457 -6 OFFCURVE",
"471 -5 OFFCURVE",
"486 -1 CURVE",
"464 -25 LINE"
);
},
{
closed = 1;
nodes = (
"214 -6 OFFCURVE",
"278 13 OFFCURVE",
"332 53 CURVE SMOOTH",
"384 92 LINE",
"386 120 LINE",
"321 78 LINE SMOOTH",
"270 45 OFFCURVE",
"221 28 OFFCURVE",
"182 28 CURVE SMOOTH",
"101 28 OFFCURVE",
"53 64 OFFCURVE",
"66 137 CURVE SMOOTH",
"76 188 OFFCURVE",
"97 211 OFFCURVE",
"189 233 CURVE SMOOTH",
"421 290 LINE",
"427 321 LINE",
"177 260 LINE SMOOTH",
"84 237 OFFCURVE",
"43 206 OFFCURVE",
"30 142 CURVE SMOOTH",
"12 48 OFFCURVE",
"81 -6 OFFCURVE",
"165 -6 CURVE SMOOTH"
);
}
);
};
guideLines = (
{
angle = 79;
position = "{51, 274}";
},
{
angle = 79;
position = "{89, 282}";
},
{
angle = 77.8594;
position = "{419, 622}";
}
);
layerId = "13A5184A-77A5-4E03-80A5-A9198A2CA35F";
paths = (
{
closed = 1;
nodes = (
"478 39 LINE",
"492 20 LINE",
"398 21 OFFCURVE",
"383 33 OFFCURVE",
"393 85 CURVE SMOOTH",
"440 325 LINE SMOOTH",
"463 443 OFFCURVE",
"408 496 OFFCURVE",
"302 496 CURVE SMOOTH",
"245 496 OFFCURVE",
"189 483 OFFCURVE",
"142 464 CURVE SMOOTH",
"85 442 LINE",
"104 471 LINE",
"122 415 LINE",
"104 425 LINE",
"146 438 LINE SMOOTH",
"182 449 OFFCURVE",
"234 464 OFFCURVE",
"293 464 CURVE SMOOTH",
"384 464 OFFCURVE",
"423 423 OFFCURVE",
"405 331 CURVE SMOOTH",
"358 88 LINE",
"357 80 LINE",
"347 28 OFFCURVE",
"374 -6 OFFCURVE",
"441 -6 CURVE SMOOTH",
"457 -6 OFFCURVE",
"471 -5 OFFCURVE",
"486 -1 CURVE",
"464 -25 LINE"
);
},
{
closed = 1;
nodes = (
"214 -6 OFFCURVE",
"278 13 OFFCURVE",
"332 53 CURVE SMOOTH",
"384 92 LINE",
"386 120 LINE",
"321 78 LINE SMOOTH",
"270 45 OFFCURVE",
"221 28 OFFCURVE",
"182 28 CURVE SMOOTH",
"101 28 OFFCURVE",
"53 64 OFFCURVE",
"66 137 CURVE SMOOTH",
"76 188 OFFCURVE",
"97 211 OFFCURVE",
"189 233 CURVE SMOOTH",
"421 290 LINE",
"427 321 LINE",
"177 260 LINE SMOOTH",
"79 236 OFFCURVE",
"43 209 OFFCURVE",
"31 145 CURVE SMOOTH",
"12 48 OFFCURVE",
"81 -6 OFFCURVE",
"165 -6 CURVE SMOOTH"
);
}
);
width = 523;
},
{
anchors = (
{
name = bottom;
position = "{251, -35}";
},
{
name = ogonek;
position = "{415, 10}";
},
{
name = top;
position = "{344, 550}";
}
);
background = {
paths = (
{
closed = 1;
nodes = (
"584 190 LINE",
"596 130 LINE",
"534 139 OFFCURVE",
"514 147 OFFCURVE",
"521 180 CURVE SMOOTH",
"548 320 LINE SMOOTH",
"575 458 OFFCURVE",
"492 535 OFFCURVE",
"340 535 CURVE SMOOTH",
"273 535 OFFCURVE",
"202 519 OFFCURVE",
"133 496 CURVE SMOOTH",
"-51 435 LINE",
"90 535 LINE",
"97 309 LINE",
"43 344 LINE",
"127 359 LINE SMOOTH",
"173 367 OFFCURVE",
"218 371 OFFCURVE",
"259 371 CURVE SMOOTH",
"312 371 OFFCURVE",
"341 361 OFFCURVE",
"333 321 CURVE SMOOTH",
"303 164 LINE SMOOTH",
"300 152 OFFCURVE",
"300 141 OFFCURVE",
"300 130 CURVE",
"308 120 LINE",
"309 46 OFFCURVE",
"351 -9 OFFCURVE",
"463 -9 CURVE SMOOTH",
"488 -9 OFFCURVE",
"544 6 OFFCURVE",
"569 17 CURVE",
"512 -45 LINE"
);
},
{
closed = 1;
nodes = (
"197 -9 OFFCURVE",
"267 27 OFFCURVE",
"326 73 CURVE",
"309 157 LINE",
"271 141 OFFCURVE",
"244 133 OFFCURVE",
"222 133 CURVE SMOOTH",
"200 133 OFFCURVE",
"186 145 OFFCURVE",
"191 169 CURVE SMOOTH",
"194 187 OFFCURVE",
"204 202 OFFCURVE",
"240 210 CURVE SMOOTH",
"320 229 LINE",
"341 328 LINE",
"187 294 LINE SMOOTH",
"59 266 OFFCURVE",
"1 227 OFFCURVE",
"-16 138 CURVE SMOOTH",
"-37 34 OFFCURVE",
"40 -9 OFFCURVE",
"126 -9 CURVE SMOOTH"
);
}
);
};
guideLines = (
{
angle = 79;
position = "{-52, -45}";
}
);
layerId = "6D60D92C-1450-4586-BB49-599D0D4C1213";
paths = (
{
closed = 1;
nodes = (
"584 190 LINE",
"596 130 LINE",
"534 139 OFFCURVE",
"514 147 OFFCURVE",
"521 180 CURVE SMOOTH",
"548 316 LINE SMOOTH",
"578 469 OFFCURVE",
"464 535 OFFCURVE",
"348 535 CURVE SMOOTH",
"282 535 OFFCURVE",
"206 522 OFFCURVE",
"131 499 CURVE SMOOTH",
"-51 444 LINE",
"87 535 LINE",
"109 309 LINE",
"43 344 LINE",
"127 359 LINE SMOOTH",
"173 367 OFFCURVE",
"218 371 OFFCURVE",
"259 371 CURVE SMOOTH",
"323 371 OFFCURVE",
"340 355 OFFCURVE",
"331 309 CURVE SMOOTH",
"301 151 LINE",
"308 126 LINE",
"306 52 OFFCURVE",
"351 -9 OFFCURVE",
"463 -9 CURVE SMOOTH",
"488 -9 OFFCURVE",
"544 3 OFFCURVE",
"569 11 CURVE",
"512 -45 LINE"
);
},
{
closed = 1;
nodes = (
"177 -9 OFFCURVE",
"240 12 OFFCURVE",
"293 51 CURVE SMOOTH",
"346 90 LINE",
"312 159 LINE",
"285 147 LINE SMOOTH",
"262 137 OFFCURVE",
"241 133 OFFCURVE",
"225 133 CURVE SMOOTH",
"203 133 OFFCURVE",
"187 149 OFFCURVE",
"192 173 CURVE SMOOTH",
"196 192 OFFCURVE",
"205 204 OFFCURVE",
"243 212 CURVE SMOOTH",
"320 229 LINE",
"341 326 LINE",
"199 298 LINE SMOOTH",
"54 270 OFFCURVE",
"1 229 OFFCURVE",
"-15 146 CURVE SMOOTH",
"-38 33 OFFCURVE",
"51 -9 OFFCURVE",
"128 -9 CURVE SMOOTH"
);
}
);
width = 602;
},
{
anchors = (
{
name = bottom;
position = "{221, -35}";
},
{
name = ogonek;
position = "{410, 10}";
},
{
name = top;
position = "{320, 550}";
}
);
background = {
paths = (
{
closed = 1;
nodes = (
"519 108 LINE",
"530 76 LINE",
"457 84 OFFCURVE",
"438 88 OFFCURVE",
"447 137 CURVE SMOOTH",
"484 337 LINE SMOOTH",
"504 443 OFFCURVE",
"440 516 OFFCURVE",
"314 516 CURVE SMOOTH",
"249 516 OFFCURVE",
"188 500 OFFCURVE",
"129 481 CURVE SMOOTH",
"8 442 LINE",
"98 503 LINE",
"118 362 LINE",
"76 378 LINE",
"133 389 LINE SMOOTH",
"173 397 OFFCURVE",
"220 403 OFFCURVE",
"274 403 CURVE SMOOTH",
"344 403 OFFCURVE",
"368 372 OFFCURVE",
"360 329 CURVE SMOOTH",
"320 126 LINE",
"325 103 LINE",
"328 43 OFFCURVE",
"356 -8 OFFCURVE",
"441 -8 CURVE SMOOTH",
"463 -8 OFFCURVE",
"502 -1 OFFCURVE",
"526 8 CURVE",
"479 -35 LINE"
);
},
{
closed = 1;
nodes = (
"199 -8 OFFCURVE",
"256 12 OFFCURVE",
"306 52 CURVE SMOOTH",
"355 91 LINE",
"344 156 LINE",
"297 129 LINE SMOOTH",
"259 108 OFFCURVE",
"222 97 OFFCURVE",
"195 97 CURVE SMOOTH",
"157 97 OFFCURVE",
"131 114 OFFCURVE",
"138 155 CURVE SMOOTH",
"143 181 OFFCURVE",
"159 198 OFFCURVE",
"194 207 CURVE SMOOTH",
"363 252 LINE",
"378 324 LINE",
"182 291 LINE SMOOTH",
"70 272 OFFCURVE",
"33 236 OFFCURVE",
"16 155 CURVE SMOOTH",
"-4 53 OFFCURVE",
"71 -8 OFFCURVE",
"154 -8 CURVE SMOOTH"
);
}
);
};
guideLines = (
{
angle = 79;
position = "{39, 274}";
},
{
angle = 79;
position = "{264, 350}";
}
);
layerId = "74CCE9C5-5564-42E0-9214-3BF0725DF94D";
paths = (
{
closed = 1;
nodes = (
"519 108 LINE",
"530 76 LINE",
"457 84 OFFCURVE",
"438 88 OFFCURVE",
"447 137 CURVE SMOOTH",
"484 337 LINE SMOOTH",
"504 443 OFFCURVE",
"440 516 OFFCURVE",
"314 516 CURVE SMOOTH",
"249 516 OFFCURVE",
"188 500 OFFCURVE",
"129 481 CURVE SMOOTH",
"8 442 LINE",
"98 503 LINE",
"118 362 LINE",
"89 378 LINE",
"142 389 LINE SMOOTH",
"180 397 OFFCURVE",
"224 403 OFFCURVE",
"274 403 CURVE SMOOTH",
"344 403 OFFCURVE",
"368 372 OFFCURVE",
"360 329 CURVE SMOOTH",
"320 126 LINE",
"325 103 LINE",
"328 43 OFFCURVE",
"356 -8 OFFCURVE",
"441 -8 CURVE SMOOTH",
"463 -8 OFFCURVE",
"502 -1 OFFCURVE",
"526 8 CURVE",
"479 -35 LINE"
);
},
{
closed = 1;
nodes = (
"204 -8 OFFCURVE",
"252 9 OFFCURVE",
"296 44 CURVE SMOOTH",
"355 91 LINE",
"344 156 LINE",
"297 129 LINE SMOOTH",
"259 108 OFFCURVE",
"222 97 OFFCURVE",
"195 97 CURVE SMOOTH",
"157 97 OFFCURVE",
"131 114 OFFCURVE",
"138 155 CURVE SMOOTH",
"143 181 OFFCURVE",
"159 198 OFFCURVE",
"194 207 CURVE SMOOTH",
"363 252 LINE",
"378 324 LINE",
"199 294 LINE SMOOTH",
"73 273 OFFCURVE",
"31 227 OFFCURVE",
"16 155 CURVE SMOOTH",
"-4 55 OFFCURVE",
"73 -8 OFFCURVE",
"158 -8 CURVE SMOOTH"
);
}
);
width = 555;
}
);
leftKerningGroup = a;
rightKerningGroup = a;
unicode = 0061;
},
{
color = 3;
glyphname = ae;
lastChange = "2021-09-30 23:32:10 +0000";
layers = (
{
anchors = (
{
name = top;
position = "{512, 550}";
}
);
background = {
anchors = (
{
name = top;
position = "{512, 550}";
}
);
components = (
{
name = a;
transform = "{1, 0, 0, 1, 1, 0}";
}
);
};
layerId = "13A5184A-77A5-4E03-80A5-A9198A2CA35F";
paths = (
{
closed = 1;
nodes = (
"214 -6 OFFCURVE",
"280 14 OFFCURVE",
"338 56 CURVE SMOOTH",
"409 106 LINE",
"396 126 LINE",
"321 77 LINE SMOOTH",
"271 44 OFFCURVE",
"222 28 OFFCURVE",
"183 28 CURVE SMOOTH",
"102 28 OFFCURVE",
"54 64 OFFCURVE",
"66 137 CURVE SMOOTH",
"77 188 OFFCURVE",
"98 211 OFFCURVE",
"189 233 CURVE SMOOTH",
"421 290 LINE",
"427 321 LINE",
"177 260 LINE SMOOTH",
"84 237 OFFCURVE",
"43 206 OFFCURVE",
"30 142 CURVE SMOOTH",
"13 48 OFFCURVE",
"82 -6 OFFCURVE",
"166 -6 CURVE SMOOTH"
);
},
{
closed = 1;
nodes = (
"440 325 LINE",
"441 331 LINE SMOOTH",
"463 443 OFFCURVE",
"409 496 OFFCURVE",
"299 496 CURVE SMOOTH",
"246 496 OFFCURVE",
"189 483 OFFCURVE",
"143 464 CURVE SMOOTH",
"85 442 LINE",
"104 471 LINE",
"123 415 LINE",
"104 425 LINE",
"146 438 LINE SMOOTH",
"183 449 OFFCURVE",
"234 464 OFFCURVE",
"284 464 CURVE SMOOTH",
"379 464 OFFCURVE",
"424 422 OFFCURVE",
"406 331 CURVE SMOOTH",
"404 321 LINE"
);
},
{
closed = 1;
nodes = (
"631 -6 OFFCURVE",
"687 8 OFFCURVE",
"732 27 CURVE SMOOTH",
"784 48 LINE",
"769 18 LINE",
"748 81 LINE",
"776 72 LINE",
"724 53 LINE SMOOTH",
"679 37 OFFCURVE",
"634 27 OFFCURVE",
"589 27 CURVE SMOOTH",
"468 27 OFFCURVE",
"391 109 OFFCURVE",
"419 259 CURVE SMOOTH",
"445 391 OFFCURVE",
"544 463 OFFCURVE",
"654 463 CURVE SMOOTH",
"770 463 OFFCURVE",
"815 380 OFFCURVE",
"792 258 CURVE",
"817 280 LINE",
"398 280 LINE",
"393 248 LINE",
"824 248 LINE",
"828 269 LINE SMOOTH",
"851 386 OFFCURVE",
"797 496 OFFCURVE",
"656 496 CURVE SMOOTH",
"514 496 OFFCURVE",
"409 396 OFFCURVE",
"382 257 CURVE SMOOTH",
"351 93 OFFCURVE",
"451 -6 OFFCURVE",
"584 -6 CURVE SMOOTH"
);
}
);
width = 873;
},
{
anchors = (
{
name = top;
position = "{545, 550}";
}
);
background = {
paths = (
{
closed = 1;
nodes = (
"175 -9 OFFCURVE",
"238 11 OFFCURVE",
"292 51 CURVE SMOOTH",
"344 90 LINE",
"317 162 LINE",
"282 147 LINE SMOOTH",
"260 137 OFFCURVE",
"238 133 OFFCURVE",
"222 133 CURVE SMOOTH",
"200 133 OFFCURVE",
"186 145 OFFCURVE",
"191 169 CURVE SMOOTH",
"194 187 OFFCURVE",
"204 202 OFFCURVE",
"240 210 CURVE SMOOTH",
"320 229 LINE",
"341 328 LINE",
"187 294 LINE SMOOTH",
"59 266 OFFCURVE",
"1 227 OFFCURVE",
"-16 138 CURVE SMOOTH",
"-37 34 OFFCURVE",
"40 -9 OFFCURVE",
"126 -9 CURVE SMOOTH"
);
},
{
closed = 1;
nodes = (
"503 209 LINE",
"544 425 LINE",
"520 496 OFFCURVE",
"448 535 OFFCURVE",
"340 535 CURVE SMOOTH",
"273 535 OFFCURVE",
"202 519 OFFCURVE",
"133 496 CURVE SMOOTH",
"-51 435 LINE",
"90 535 LINE",
"97 309 LINE",
"43 344 LINE",
"127 359 LINE SMOOTH",
"173 367 OFFCURVE",
"218 371 OFFCURVE",
"259 371 CURVE SMOOTH",
"312 371 OFFCURVE",
"341 361 OFFCURVE",
"333 321 CURVE SMOOTH",
"309 194 LINE"
);
},
{
closed = 1;
nodes = (
"630 -9 OFFCURVE",
"700 4 OFFCURVE",
"772 32 CURVE SMOOTH",
"854 64 LINE",
"823 28 LINE",
"782 222 LINE",
"832 181 LINE",
"750 165 LINE SMOOTH",
"705 156 OFFCURVE",
"665 151 OFFCURVE",
"632 151 CURVE SMOOTH",
"548 151 OFFCURVE",
"509 176 OFFCURVE",
"527 270 CURVE SMOOTH",
"546 366 OFFCURVE",
"585 392 OFFCURVE",
"642 392 CURVE SMOOTH",
"701 392 OFFCURVE",
"714 361 OFFCURVE",
"700 289 CURVE",
"745 321 LINE",
"494 321 LINE",
"473 210 LINE",
"879 210 LINE",
"887 255 LINE SMOOTH",
"921 428 OFFCURVE",
"838 535 OFFCURVE",
"670 535 CURVE SMOOTH",
"514 535 OFFCURVE",
"350 444 OFFCURVE",
"315 262 CURVE SMOOTH",
"281 87 OFFCURVE",
"398 -9 OFFCURVE",
"567 -9 CURVE SMOOTH"
);
}
);
};
layerId = "6D60D92C-1450-4586-BB49-599D0D4C1213";
paths = (
{
closed = 1;
nodes = (
"177 -9 OFFCURVE",
"240 12 OFFCURVE",
"293 51 CURVE SMOOTH",
"366 104 LINE",
"333 169 LINE",
"285 147 LINE SMOOTH",
"262 137 OFFCURVE",
"241 133 OFFCURVE",
"225 133 CURVE SMOOTH",
"203 133 OFFCURVE",
"187 149 OFFCURVE",
"192 173 CURVE SMOOTH",
"196 192 OFFCURVE",
"205 204 OFFCURVE",
"243 212 CURVE SMOOTH",
"320 229 LINE",
"341 326 LINE",
"199 298 LINE SMOOTH",
"54 270 OFFCURVE",
"1 229 OFFCURVE",
"-15 146 CURVE SMOOTH",
"-38 33 OFFCURVE",
"51 -9 OFFCURVE",
"128 -9 CURVE SMOOTH"
);
},
{
closed = 1;
nodes = (
"526 254 LINE",
"538 316 LINE SMOOTH",
"568 469 OFFCURVE",
"464 535 OFFCURVE",
"348 535 CURVE SMOOTH",
"282 535 OFFCURVE",
"206 522 OFFCURVE",
"131 499 CURVE SMOOTH",
"-51 444 LINE",
"87 535 LINE",
"109 309 LINE",
"43 344 LINE",
"127 359 LINE SMOOTH",
"173 367 OFFCURVE",
"218 371 OFFCURVE",
"259 371 CURVE SMOOTH",
"323 371 OFFCURVE",
"340 355 OFFCURVE",
"331 309 CURVE SMOOTH",
"318 240 LINE"
);
},
{
closed = 1;
nodes = (
"632 -9 OFFCURVE",
"702 4 OFFCURVE",
"774 32 CURVE SMOOTH",
"856 64 LINE",
"825 28 LINE",
"784 222 LINE",
"834 181 LINE",
"752 165 LINE SMOOTH",
"707 156 OFFCURVE",
"667 151 OFFCURVE",
"634 151 CURVE SMOOTH",
"539 151 OFFCURVE",
"512 181 OFFCURVE",
"531 279 CURVE SMOOTH",
"548 368 OFFCURVE",
"578 392 OFFCURVE",
"643 392 CURVE SMOOTH",
"694 392 OFFCURVE",
"716 361 OFFCURVE",
"702 291 CURVE",
"747 321 LINE",
"496 321 LINE",
"475 210 LINE",
"881 210 LINE",
"889 255 LINE SMOOTH",
"923 428 OFFCURVE",
"836 535 OFFCURVE",
"668 535 CURVE SMOOTH",
"512 535 OFFCURVE",
"355 458 OFFCURVE",
"320 276 CURVE SMOOTH",
"286 101 OFFCURVE",
"400 -9 OFFCURVE",
"569 -9 CURVE SMOOTH"
);
}
);
width = 906;
},
{
anchors = (
{
name = top;
position = "{505, 550}";
}
);
background = {
anchors = (
{
name = top;
position = "{535, 550}";
}
);
paths = (
{
closed = 1;
nodes = (
"191 -8 OFFCURVE",
"250 12 OFFCURVE",
"302 52 CURVE SMOOTH",
"375 108 LINE",
"344 156 LINE",
"299 129 LINE SMOOTH",
"264 108 OFFCURVE",
"229 97 OFFCURVE",
"203 97 CURVE SMOOTH",
"154 97 OFFCURVE",
"130 116 OFFCURVE",
"137 151 CURVE SMOOTH",
"142 178 OFFCURVE",
"160 198 OFFCURVE",
"201 209 CURVE SMOOTH",
"363 252 LINE",
"378 329 LINE",
"200 294 LINE SMOOTH",
"96 274 OFFCURVE",
"29 223 OFFCURVE",
"12 137 CURVE SMOOTH",
"-7 39 OFFCURVE",
"63 -8 OFFCURVE",
"145 -8 CURVE SMOOTH"
);
},
{
closed = 1;
nodes = (
"476 283 LINE",
"483 323 LINE SMOOTH",
"508 452 OFFCURVE",
"439 516 OFFCURVE",
"319 516 CURVE SMOOTH",
"262 516 OFFCURVE",
"204 504 OFFCURVE",
"132 480 CURVE SMOOTH",
"32 446 LINE",
"103 503 LINE",
"112 362 LINE",
"78 383 LINE",
"134 394 LINE SMOOTH",
"175 402 OFFCURVE",
"222 408 OFFCURVE",
"265 408 CURVE SMOOTH",
"337 408 OFFCURVE",
"369 380 OFFCURVE",
"357 316 CURVE SMOOTH",
"338 218 LINE"
);
},
{
closed = 1;
nodes = (
"612 -8 OFFCURVE",
"671 4 OFFCURVE",
"730 30 CURVE SMOOTH",
"794 58 LINE",
"776 23 LINE",
"747 152 LINE",
"772 136 LINE",
"708 119 LINE SMOOTH",
"668 108 OFFCURVE",
"628 102 OFFCURVE",
"594 102 CURVE SMOOTH",
"501 102 OFFCURVE",
"445 149 OFFCURVE",
"465 256 CURVE SMOOTH",
"483 347 OFFCURVE",
"543 409 OFFCURVE",
"625 409 CURVE SMOOTH",
"703 409 OFFCURVE",
"731 358 OFFCURVE",
"715 273 CURVE",
"757 312 LINE",
"435 312 LINE",
"417 220 LINE",
"821 220 LINE",
"829 260 LINE SMOOTH",
"858 408 OFFCURVE",
"798 516 OFFCURVE",
"646 516 CURVE SMOOTH",
"505 516 OFFCURVE",
"368 413 OFFCURVE",
"337 253 CURVE SMOOTH",
"304 84 OFFCURVE",
"411 -8 OFFCURVE",
"559 -8 CURVE SMOOTH"
);
}
);
};
layerId = "74CCE9C5-5564-42E0-9214-3BF0725DF94D";
paths = (
{
closed = 1;
nodes = (
"199 -8 OFFCURVE",
"256 11 OFFCURVE",
"306 48 CURVE SMOOTH",
"381 102 LINE",
"355 162 LINE",
"297 129 LINE SMOOTH",
"259 108 OFFCURVE",
"222 97 OFFCURVE",
"195 97 CURVE SMOOTH",
"156 97 OFFCURVE",
"130 116 OFFCURVE",
"138 152 CURVE SMOOTH",
"142 179 OFFCURVE",
"159 198 OFFCURVE",
"190 206 CURVE SMOOTH",
"363 252 LINE",
"378 324 LINE",
"176 290 LINE SMOOTH",
"77 273 OFFCURVE",
"32 232 OFFCURVE",
"16 155 CURVE SMOOTH",
"-4 53 OFFCURVE",
"71 -8 OFFCURVE",
"154 -8 CURVE SMOOTH"
);
},
{
closed = 1;
nodes = (
"465 237 LINE",
"484 337 LINE SMOOTH",
"504 443 OFFCURVE",
"440 516 OFFCURVE",
"314 516 CURVE SMOOTH",
"249 516 OFFCURVE",
"188 500 OFFCURVE",
"129 481 CURVE SMOOTH",
"8 442 LINE",
"98 503 LINE",
"118 362 LINE",
"77 383 LINE",
"134 394 LINE SMOOTH",
"174 402 OFFCURVE",
"221 408 OFFCURVE",
"275 408 CURVE SMOOTH",
"341 408 OFFCURVE",
"369 378 OFFCURVE",
"359 327 CURVE SMOOTH",
"341 237 LINE"
);
},
{
closed = 1;
nodes = (
"615 -8 OFFCURVE",
"674 4 OFFCURVE",
"735 30 CURVE SMOOTH",
"799 58 LINE",
"777 23 LINE",
"744 152 LINE",
"772 136 LINE",
"708 119 LINE SMOOTH",
"668 108 OFFCURVE",
"627 102 OFFCURVE",
"593 102 CURVE SMOOTH",
"493 102 OFFCURVE",
"445 149 OFFCURVE",
"468 271 CURVE SMOOTH",
"485 362 OFFCURVE",
"537 409 OFFCURVE",
"616 409 CURVE SMOOTH",
"694 409 OFFCURVE",
"730 352 OFFCURVE",
"715 273 CURVE",
"757 312 LINE",
"435 312 LINE",
"417 220 LINE",
"821 220 LINE",
"829 261 LINE SMOOTH",
"856 397 OFFCURVE",
"786 516 OFFCURVE",
"638 516 CURVE SMOOTH",
"496 516 OFFCURVE",
"376 434 OFFCURVE",
"345 270 CURVE SMOOTH",
"312 101 OFFCURVE",
"415 -8 OFFCURVE",
"562 -8 CURVE SMOOTH"
);
}
);
width = 862;
}
);
leftKerningGroup = a;
leftMetricsKey = a;
rightKerningGroup = e;
rightMetricsKey = e;
unicode = 00E6;
},
{
color = 4;
glyphname = b;
lastChange = "2021-09-30 23:32:11 +0000";
layers = (
{
background = {
components = (
{
name = q;
transform = "{-1, 0, 0, -1, 593, 490}";
}
);
};
guideLines = (
{
angle = 79;
position = "{498, 66}";
},
{
angle = 79;
position = "{457, 42}";
}
);
layerId = "13A5184A-77A5-4E03-80A5-A9198A2CA35F";
paths = (
{
closed = 1;
nodes = (
"402 -6 OFFCURVE",
"508 89 OFFCURVE",
"534 228 CURVE SMOOTH",
"565 388 OFFCURVE",
"481 496 OFFCURVE",
"345 496 CURVE SMOOTH",
"309 496 OFFCURVE",
"271 488 OFFCURVE",
"210 466 CURVE SMOOTH",
"158 447 LINE",
"161 429 LINE",
"227 770 LINE",
"186 738 LINE",
"43 0 LINE",
"75 0 LINE",
"91 70 LINE",
"93 77 LINE",
"159 419 LINE",
"215 439 LINE SMOOTH",
"259 455 OFFCURVE",
"302 463 OFFCURVE",
"339 463 CURVE SMOOTH",
"457 463 OFFCURVE",
"526 376 OFFCURVE",
"499 230 CURVE SMOOTH",
"475 110 OFFCURVE",
"387 27 OFFCURVE",
"259 27 CURVE SMOOTH",
"223 27 OFFCURVE",
"190 38 OFFCURVE",
"145 61 CURVE SMOOTH",
"85 95 LINE",
"79 68 LINE",
"127 36 LINE SMOOTH",
"169 9 OFFCURVE",
"214 -6 OFFCURVE",
"263 -6 CURVE SMOOTH"
);
}
);
width = 592;
},
{
background = {
paths = (
{
closed = 1;
nodes = (
"480 -9 OFFCURVE",
"597 101 OFFCURVE",
"628 263 CURVE SMOOTH",
"659 424 OFFCURVE",
"587 535 OFFCURVE",
"451 535 CURVE SMOOTH",
"410 535 OFFCURVE",
"358 524 OFFCURVE",
"322 508 CURVE SMOOTH",
"241 472 LINE",
"291 425 LINE",
"358 770 LINE",
"134 738 LINE",
"-9 0 LINE",
"149 0 LINE",
"196 100 LINE",
"234 136 LINE",
"275 345 LINE",
"298 351 LINE SMOOTH",
"313 355 OFFCURVE",
"329 357 OFFCURVE",
"348 357 CURVE SMOOTH",
"405 357 OFFCURVE",
"423 329 OFFCURVE",
"410 263 CURVE SMOOTH",
"397 195 OFFCURVE",
"370 168 OFFCURVE",
"312 168 CURVE SMOOTH",
"294 168 OFFCURVE",
"274 173 OFFCURVE",
"258 181 CURVE SMOOTH",
"240 190 LINE",
"159 70 LINE",
"199 41 LINE SMOOTH",
"245 7 OFFCURVE",
"292 -9 OFFCURVE",
"340 -9 CURVE SMOOTH"
);
}
);
};
guideLines = (
{
angle = 79;
position = "{676, 494}";
},
{
angle = 79;
position = "{487, 641}";
}
);
layerId = "6D60D92C-1450-4586-BB49-599D0D4C1213";
paths = (
{
closed = 1;
nodes = (
"513 -9 OFFCURVE",
"603 118 OFFCURVE",
"628 245 CURVE SMOOTH",
"654 376 OFFCURVE",
"622 535 OFFCURVE",
"454 535 CURVE SMOOTH",
"418 535 OFFCURVE",
"365 526 OFFCURVE",
"325 508 CURVE SMOOTH",
"244 472 LINE",
"294 425 LINE",
"361 770 LINE",
"137 738 LINE",
"-6 0 LINE",
"152 0 LINE",
"199 100 LINE",
"237 136 LINE",
"278 345 LINE",
"301 351 LINE SMOOTH",
"316 355 OFFCURVE",
"332 357 OFFCURVE",
"351 357 CURVE SMOOTH",
"402 357 OFFCURVE",
"426 331 OFFCURVE",
"412 258 CURVE SMOOTH",
"398 184 OFFCURVE",
"368 168 OFFCURVE",
"315 168 CURVE SMOOTH",
"299 168 OFFCURVE",
"278 172 OFFCURVE",
"261 181 CURVE SMOOTH",
"243 190 LINE",
"162 70 LINE",
"202 41 LINE SMOOTH",
"245 10 OFFCURVE",
"297 -9 OFFCURVE",
"348 -9 CURVE SMOOTH"
);
}
);
width = 656;
},
{
background = {
paths = (
{
closed = 1;
nodes = (
"441 -8 OFFCURVE",
"536 89 OFFCURVE",
"563 231 CURVE SMOOTH",
"592 376 OFFCURVE",
"518 516 OFFCURVE",
"349 516 CURVE SMOOTH",
"182 516 OFFCURVE",
"87 417 OFFCURVE",
"61 277 CURVE SMOOTH",
"30 119 OFFCURVE",
"122 -8 OFFCURVE",
"276 -8 CURVE SMOOTH"
);
},
{
closed = 1;
nodes = (
"218 107 OFFCURVE",
"166 159 OFFCURVE",
"187 268 CURVE SMOOTH",
"203 350 OFFCURVE",
"247 401 OFFCURVE",
"333 401 CURVE SMOOTH",
"421 401 OFFCURVE",
"454 326 OFFCURVE",
"437 240 CURVE SMOOTH",
"418 150 OFFCURVE",
"368 107 OFFCURVE",
"287 107 CURVE SMOOTH"
);
}
);
};
guideLines = (
{
angle = 79;
position = "{606, 449}";
},
{
angle = 79;
position = "{472, 415}";
}
);
layerId = "74CCE9C5-5564-42E0-9214-3BF0725DF94D";
paths = (
{
closed = 1;
nodes = (
"427 -8 OFFCURVE",
"534 88 OFFCURVE",
"563 236 CURVE SMOOTH",
"597 398 OFFCURVE",
"522 516 OFFCURVE",
"390 516 CURVE SMOOTH",
"351 516 OFFCURVE",
"302 505 OFFCURVE",
"264 487 CURVE SMOOTH",
"188 453 LINE",
"230 427 LINE",
"297 770 LINE",
"165 738 LINE",
"21 0 LINE",
"117 0 LINE",
"150 93 LINE",
"169 114 LINE",
"221 375 LINE",
"256 387 LINE SMOOTH",
"289 397 OFFCURVE",
"313 402 OFFCURVE",
"336 402 CURVE SMOOTH",
"417 402 OFFCURVE",
"458 345 OFFCURVE",
"438 246 CURVE SMOOTH",
"419 152 OFFCURVE",
"369 107 OFFCURVE",
"289 107 CURVE SMOOTH",
"257 107 OFFCURVE",
"231 115 OFFCURVE",
"208 132 CURVE SMOOTH",
"171 156 LINE",
"129 69 LINE",
"170 37 LINE SMOOTH",
"207 9 OFFCURVE",
"250 -8 OFFCURVE",
"301 -8 CURVE SMOOTH"
);
}
);
width = 611;
}
);
leftKerningGroup = h;
leftMetricsKey = n;
rightKerningGroup = o;
rightMetricsKey = o;
unicode = 0062;
},
{
color = 4;
glyphname = c;
lastChange = "2021-09-30 23:32:11 +0000";
layers = (
{
anchors = (
{
name = bottom;
position = "{249, -35}";
},
{
name = top;
position = "{367, 550}";
}
);
background = {
paths = (
{
closed = 1;
nodes = (
"295 -6 OFFCURVE",
"340 3 OFFCURVE",
"388 20 CURVE SMOOTH",
"443 40 LINE",
"427 15 LINE",
"411 69 LINE",
"436 65 LINE",
"378 47 LINE SMOOTH",
"335 34 OFFCURVE",
"296 27 OFFCURVE",
"260 27 CURVE SMOOTH",
"127 27 OFFCURVE",
"67 114 OFFCURVE",
"93 255 CURVE SMOOTH",
"120 393 OFFCURVE",
"223 463 OFFCURVE",
"350 463 CURVE SMOOTH",
"384 463 OFFCURVE",
"421 458 OFFCURVE",
"467 444 CURVE SMOOTH",
"519 428 LINE",
"480 425 LINE",
"503 475 LINE",
"521 456 LINE",
"480 472 LINE SMOOTH",
"441 487 OFFCURVE",
"394 496 OFFCURVE",
"352 496 CURVE SMOOTH",
"211 496 OFFCURVE",
"89 418 OFFCURVE",
"58 262 CURVE SMOOTH",
"27 107 OFFCURVE",
"100 -6 OFFCURVE",
"254 -6 CURVE SMOOTH"
);
}
);
};
guideLines = (
{
angle = 79;
position = "{94, 469}";
},
{
angle = 79;
position = "{132, 478}";
},
{
position = "{219, 463}";
}
);
layerId = "13A5184A-77A5-4E03-80A5-A9198A2CA35F";
paths = (
{
closed = 1;
nodes = (
"295 -6 OFFCURVE",
"340 3 OFFCURVE",
"388 20 CURVE SMOOTH",
"443 40 LINE",
"427 15 LINE",
"409 69 LINE",
"436 65 LINE",
"378 47 LINE SMOOTH",
"335 34 OFFCURVE",
"296 27 OFFCURVE",
"260 27 CURVE SMOOTH",
"127 27 OFFCURVE",
"67 114 OFFCURVE",
"93 255 CURVE SMOOTH",
"120 393 OFFCURVE",
"223 463 OFFCURVE",
"350 463 CURVE SMOOTH",
"384 463 OFFCURVE",
"421 458 OFFCURVE",
"467 444 CURVE SMOOTH",
"519 428 LINE",
"480 425 LINE",
"503 475 LINE",
"521 456 LINE",
"480 472 LINE SMOOTH",
"441 487 OFFCURVE",
"394 496 OFFCURVE",
"352 496 CURVE SMOOTH",
"211 496 OFFCURVE",
"89 418 OFFCURVE",
"58 262 CURVE SMOOTH",
"27 107 OFFCURVE",
"100 -6 OFFCURVE",
"254 -6 CURVE SMOOTH"
);
}
);
width = 502;
},
{
anchors = (
{
name = bottom;
position = "{217, -35}";
},
{
name = top;
position = "{371, 550}";
}
);
background = {
paths = (
{
closed = 1;
nodes = (
"311 -9 OFFCURVE",
"363 1 OFFCURVE",
"417 19 CURVE SMOOTH",
"502 48 LINE",
"450 10 LINE",
"439 222 LINE",
"473 191 LINE",
"412 184 LINE SMOOTH",
"369 179 OFFCURVE",
"346 177 OFFCURVE",
"325 177 CURVE SMOOTH",
"266 177 OFFCURVE",
"232 207 OFFCURVE",
"245 274 CURVE SMOOTH",
"256 334 OFFCURVE",
"289 357 OFFCURVE",
"359 357 CURVE SMOOTH",
"390 357 OFFCURVE",
"417 353 OFFCURVE",
"441 349 CURVE SMOOTH",
"509 338 LINE",
"448 304 LINE",
"541 516 LINE",
"587 482 LINE",
"511 510 LINE SMOOTH",
"466 526 OFFCURVE",
"419 535 OFFCURVE",
"373 535 CURVE SMOOTH",
"202 535 OFFCURVE",
"63 456 OFFCURVE",
"29 281 CURVE SMOOTH",
"-5 104 OFFCURVE",
"99 -9 OFFCURVE",
"264 -9 CURVE SMOOTH"
);
}
);
};
guideLines = (
{
angle = 79;
position = "{70, 496}";
},
{
angle = 79;
position = "{310, 615}";
}
);
layerId = "6D60D92C-1450-4586-BB49-599D0D4C1213";
paths = (
{
closed = 1;
nodes = (
"311 -9 OFFCURVE",
"363 1 OFFCURVE",
"417 19 CURVE SMOOTH",
"502 48 LINE",
"450 10 LINE",
"439 222 LINE",
"473 191 LINE",
"412 184 LINE SMOOTH",
"369 179 OFFCURVE",
"346 177 OFFCURVE",
"325 177 CURVE SMOOTH",
"266 177 OFFCURVE",
"232 207 OFFCURVE",
"245 274 CURVE SMOOTH",
"256 334 OFFCURVE",
"289 357 OFFCURVE",
"359 357 CURVE SMOOTH",
"390 357 OFFCURVE",
"417 353 OFFCURVE",
"441 349 CURVE SMOOTH",
"509 338 LINE",
"448 304 LINE",
"541 516 LINE",
"587 477 LINE",
"503 510 LINE SMOOTH",
"466 525 OFFCURVE",
"415 535 OFFCURVE",
"369 535 CURVE SMOOTH",
"194 535 OFFCURVE",
"62 453 OFFCURVE",
"29 281 CURVE SMOOTH",
"-5 104 OFFCURVE",
"99 -9 OFFCURVE",
"264 -9 CURVE SMOOTH"
);
}
);
width = 496;
},
{
anchors = (
{
name = bottom;
position = "{220, -35}";
},
{
name = top;
position = "{348, 550}";
}
);
background = {
paths = (
{
closed = 1;
nodes = (
"313 -8 OFFCURVE",
"353 0 OFFCURVE",
"408 17 CURVE SMOOTH",
"475 39 LINE",
"429 12 LINE",
"408 145 LINE",
"439 124 LINE",
"388 115 LINE SMOOTH",
"354 110 OFFCURVE",
"319 107 OFFCURVE",
"293 107 CURVE SMOOTH",
"207 107 OFFCURVE",
"154 155 OFFCURVE",
"175 265 CURVE SMOOTH",
"193 352 OFFCURVE",
"249 400 OFFCURVE",
"347 400 CURVE SMOOTH",
"375 400 OFFCURVE",
"404 396 OFFCURVE",
"437 390 CURVE SMOOTH",
"496 378 LINE",
"457 362 LINE",
"505 497 LINE",
"527 472 LINE",
"484 487 LINE SMOOTH",
"429 507 OFFCURVE",
"385 516 OFFCURVE",
"336 516 CURVE SMOOTH",
"191 516 OFFCURVE",
"79 433 OFFCURVE",
"48 270 CURVE SMOOTH",
"17 109 OFFCURVE",
"116 -8 OFFCURVE",
"269 -8 CURVE SMOOTH"
);
}
);
};
guideLines = (
{
angle = 79;
position = "{89, 482}";
},
{
angle = 79;
position = "{200, 393}";
},
{
position = "{209, 107}";
},
{
position = "{193, 406}";
},
{
position = "{193, 389}";
}
);
layerId = "74CCE9C5-5564-42E0-9214-3BF0725DF94D";
paths = (
{
closed = 1;
nodes = (
"313 -8 OFFCURVE",
"353 0 OFFCURVE",
"408 17 CURVE SMOOTH",
"475 39 LINE",
"429 12 LINE",
"408 145 LINE",
"439 124 LINE",
"388 115 LINE SMOOTH",
"354 110 OFFCURVE",
"319 107 OFFCURVE",
"293 107 CURVE SMOOTH",
"207 107 OFFCURVE",
"154 155 OFFCURVE",
"175 265 CURVE SMOOTH",
"192 352 OFFCURVE",
"251 406 OFFCURVE",
"346 406 CURVE SMOOTH",
"373 406 OFFCURVE",
"401 402 OFFCURVE",
"433 396 CURVE SMOOTH",
"491 384 LINE",
"457 362 LINE",
"505 497 LINE",
"527 473 LINE",
"484 488 LINE SMOOTH",
"429 507 OFFCURVE",
"385 516 OFFCURVE",
"336 516 CURVE SMOOTH",
"191 516 OFFCURVE",
"79 433 OFFCURVE",
"48 270 CURVE SMOOTH",
"17 109 OFFCURVE",
"116 -8 OFFCURVE",
"269 -8 CURVE SMOOTH"
);
}
);
width = 492;
}
);
leftKerningGroup = o;
leftMetricsKey = o;
rightKerningGroup = c;
unicode = 0063;
},
{
color = 4;
glyphname = d;
lastChange = "2021-09-30 23:32:11 +0000";
layers = (
{
anchors = (
{
name = caron;
position = "{826, 410}";
}
);
background = {
paths = (
{
closed = 1;
nodes = (
"261 -9 OFFCURVE",
"313 10 OFFCURVE",
"366 41 CURVE SMOOTH",
"416 70 LINE",
"381 190 LINE",
"361 181 LINE SMOOTH",
"342 172 OFFCURVE",
"323 168 OFFCURVE",
"308 168 CURVE SMOOTH",
"255 168 OFFCURVE",
"231 196 OFFCURVE",
"245 271 CURVE SMOOTH",
"259 344 OFFCURVE",
"290 357 OFFCURVE",
"341 357 CURVE SMOOTH",
"360 357 OFFCURVE",
"376 355 OFFCURVE",
"389 351 CURVE SMOOTH",
"410 345 LINE",
"369 136 LINE",
"393 100 LINE",
"402 0 LINE",
"560 0 LINE",
"710 770 LINE",
"486 738 LINE",
"426 425 LINE",
"494 472 LINE",
"421 508 LINE SMOOTH",
"384 526 OFFCURVE",
"329 535 OFFCURVE",
"291 535 CURVE SMOOTH",
"225 535 OFFCURVE",
"162 510 OFFCURVE",
"111 457 CURVE SMOOTH",
"66 411 OFFCURVE",
"43 352 OFFCURVE",
"31 291 CURVE SMOOTH",
"5 160 OFFCURVE",
"46 -9 OFFCURVE",
"211 -9 CURVE SMOOTH"
);
}
);
};
guideLines = (
{
angle = 79;
position = "{63, 464}";
}
);
layerId = "6D60D92C-1450-4586-BB49-599D0D4C1213";
paths = (
{
closed = 1;
nodes = (
"261 -9 OFFCURVE",
"313 10 OFFCURVE",
"366 41 CURVE SMOOTH",
"416 70 LINE",
"381 190 LINE",
"361 181 LINE SMOOTH",
"342 172 OFFCURVE",
"323 168 OFFCURVE",
"308 168 CURVE SMOOTH",
"255 168 OFFCURVE",
"231 196 OFFCURVE",
"245 271 CURVE SMOOTH",
"259 344 OFFCURVE",
"290 357 OFFCURVE",
"341 357 CURVE SMOOTH",
"360 357 OFFCURVE",
"376 355 OFFCURVE",
"389 351 CURVE SMOOTH",
"410 345 LINE",
"369 136 LINE",
"393 100 LINE",
"402 0 LINE",
"560 0 LINE",
"710 770 LINE",
"486 738 LINE",
"426 425 LINE",
"494 472 LINE",
"421 508 LINE SMOOTH",
"384 526 OFFCURVE",
"329 535 OFFCURVE",
"291 535 CURVE SMOOTH",
"157 535 OFFCURVE",
"60 436 OFFCURVE",
"31 291 CURVE SMOOTH",
"5 160 OFFCURVE",
"46 -9 OFFCURVE",
"211 -9 CURVE SMOOTH"
);
}
);
width = 656;
},
{
anchors = (
{
name = caron;
position = "{668, 413}";
}
);
background = {
paths = (
{
closed = 1;
nodes = (
"291 -6 OFFCURVE",
"339 9 OFFCURVE",
"393 36 CURVE SMOOTH",
"440 61 LINE",
"437 84 LINE",
"382 61 LINE SMOOTH",
"328 38 OFFCURVE",
"290 27 OFFCURVE",
"252 27 CURVE SMOOTH",
"131 27 OFFCURVE",
"64 121 OFFCURVE",
"92 260 CURVE SMOOTH",
"116 378 OFFCURVE",
"203 463 OFFCURVE",
"337 463 CURVE SMOOTH",
"374 463 OFFCURVE",
"410 453 OFFCURVE",
"456 431 CURVE SMOOTH",
"499 410 LINE",
"436 81 LINE",
"435 67 LINE",
"430 0 LINE",
"456 0 LINE",
"604 770 LINE",
"563 738 LINE",
"502 428 LINE",
"512 433 LINE",
"474 455 LINE SMOOTH",
"431 480 OFFCURVE",
"388 496 OFFCURVE",
"338 496 CURVE SMOOTH",
"258 496 OFFCURVE",
"188 466 OFFCURVE",
"139 417 CURVE SMOOTH",
"100 379 OFFCURVE",
"70 328 OFFCURVE",
"59 266 CURVE SMOOTH",
"28 112 OFFCURVE",
"100 -6 OFFCURVE",
"243 -6 CURVE SMOOTH"
);
}
);
};
guideLines = (
{
angle = 79;
position = "{92, 461}";
},
{
angle = 79;
position = "{139, 446}";
}
);
layerId = "13A5184A-77A5-4E03-80A5-A9198A2CA35F";
paths = (
{
closed = 1;
nodes = (
"291 -6 OFFCURVE",
"339 9 OFFCURVE",
"393 36 CURVE SMOOTH",
"440 61 LINE",
"437 84 LINE",
"382 61 LINE SMOOTH",
"328 38 OFFCURVE",
"290 27 OFFCURVE",
"252 27 CURVE SMOOTH",
"131 27 OFFCURVE",
"64 121 OFFCURVE",
"92 260 CURVE SMOOTH",
"116 378 OFFCURVE",
"203 463 OFFCURVE",
"337 463 CURVE SMOOTH",
"374 463 OFFCURVE",
"410 453 OFFCURVE",
"456 431 CURVE SMOOTH",
"499 410 LINE",
"436 81 LINE",
"435 67 LINE",
"430 0 LINE",
"456 0 LINE",
"604 770 LINE",
"563 738 LINE",
"502 428 LINE",
"512 433 LINE",
"474 455 LINE SMOOTH",
"431 480 OFFCURVE",
"388 496 OFFCURVE",
"338 496 CURVE SMOOTH",
"199 496 OFFCURVE",
"85 404 OFFCURVE",
"59 266 CURVE SMOOTH",
"28 112 OFFCURVE",
"100 -6 OFFCURVE",
"243 -6 CURVE SMOOTH"
);
}
);
width = 594;
},
{
anchors = (
{
name = caron;
position = "{729, 413}";
}
);
background = {
paths = (
{
closed = 1;
nodes = (
"269 -8 OFFCURVE",
"322 11 OFFCURVE",
"370 41 CURVE SMOOTH",
"413 69 LINE",
"404 156 LINE",
"357 131 LINE SMOOTH",
"330 116 OFFCURVE",
"301 107 OFFCURVE",
"273 107 CURVE SMOOTH",
"192 107 OFFCURVE",
"154 158 OFFCURVE",
"175 263 CURVE SMOOTH",
"193 360 OFFCURVE",
"249 401 OFFCURVE",
"317 401 CURVE SMOOTH",
"347 401 OFFCURVE",
"378 390 OFFCURVE",
"400 382 CURVE SMOOTH",
"439 367 LINE",
"390 114 LINE",
"401 93 LINE",
"398 0 LINE",
"494 0 LINE",
"644 770 LINE",
"510 738 LINE",
"451 427 LINE",
"489 455 LINE",
"437 481 LINE SMOOTH",
"385 506 OFFCURVE",
"341 516 OFFCURVE",
"299 516 CURVE SMOOTH",
"237 516 OFFCURVE",
"173 488 OFFCURVE",
"126 435 CURVE SMOOTH",
"84 389 OFFCURVE",
"61 333 OFFCURVE",
"49 274 CURVE SMOOTH",
"22 137 OFFCURVE",
"69 -8 OFFCURVE",
"226 -8 CURVE SMOOTH"
);
}
);
};
guideLines = (
{
angle = 79;
position = "{83, 451}";
},
{
angle = 79;
position = "{206, 420}";
}
);
layerId = "74CCE9C5-5564-42E0-9214-3BF0725DF94D";
paths = (
{
closed = 1;
nodes = (
"269 -8 OFFCURVE",
"322 11 OFFCURVE",
"370 41 CURVE SMOOTH",
"413 69 LINE",
"404 156 LINE",
"357 131 LINE SMOOTH",
"330 116 OFFCURVE",
"301 107 OFFCURVE",
"273 107 CURVE SMOOTH",
"192 107 OFFCURVE",
"154 158 OFFCURVE",
"175 263 CURVE SMOOTH",
"193 360 OFFCURVE",
"249 401 OFFCURVE",
"317 401 CURVE SMOOTH",
"347 401 OFFCURVE",
"378 390 OFFCURVE",
"400 382 CURVE SMOOTH",
"439 367 LINE",
"390 114 LINE",
"401 93 LINE",
"398 0 LINE",
"494 0 LINE",
"644 770 LINE",
"510 738 LINE",
"451 427 LINE",
"489 455 LINE",
"437 481 LINE SMOOTH",
"385 506 OFFCURVE",
"341 516 OFFCURVE",
"299 516 CURVE SMOOTH",
"173 516 OFFCURVE",
"76 412 OFFCURVE",
"49 274 CURVE SMOOTH",
"22 137 OFFCURVE",
"69 -8 OFFCURVE",
"226 -8 CURVE SMOOTH"
);
}
);
width = 614;
}
);
leftKerningGroup = o;
leftMetricsKey = o;
rightKerningGroup = d;
rightMetricsKey = "=|n";
unicode = 0064;
},
{
color = 0;
glyphname = eth;
lastChange = "2021-09-30 23:32:10 +0000";
layers = (
{
background = {
paths = (
{
closed = 1;
nodes = (
"593 740 LINE",
"577 764 LINE",
"287 548 LINE",
"303 524 LINE"
);
},
{
closed = 1;
nodes = (
"322 -6 OFFCURVE",
"462 65 OFFCURVE",
"505 286 CURVE SMOOTH",
"549 513 OFFCURVE",
"544 617 OFFCURVE",
"370 737 CURVE SMOOTH",
"330 765 LINE",
"307 738 LINE",
"346 709 LINE SMOOTH",
"505 591 OFFCURVE",
"512 514 OFFCURVE",
"468 286 CURVE SMOOTH",
"430 89 OFFCURVE",
"313 25 OFFCURVE",
"205 25 CURVE SMOOTH",
"115 25 OFFCURVE",
"52 100 OFFCURVE",
"75 219 CURVE SMOOTH",
"96 330 OFFCURVE",
"188 429 OFFCURVE",
"314 429 CURVE SMOOTH",
"350 429 OFFCURVE",
"382 418 OFFCURVE",
"426 395 CURVE SMOOTH",
"488 363 LINE",
"502 387 LINE",
"447 421 LINE SMOOTH",
"406 446 OFFCURVE",
"362 462 OFFCURVE",
"314 462 CURVE SMOOTH",
"178 462 OFFCURVE",
"66 358 OFFCURVE",
"39 221 CURVE SMOOTH",
"14 92 OFFCURVE",
"81 -6 OFFCURVE",
"202 -6 CURVE SMOOTH"
);
}
);
};
components = (
{
name = partialdiff;
}
);
layerId = "13A5184A-77A5-4E03-80A5-A9198A2CA35F";
paths = (
{
closed = 1;
nodes = (
"596 738 LINE",
"577 764 LINE",
"287 548 LINE",
"306 522 LINE"
);
}
);
width = 565;
},
{
background = {
paths = (
{
closed = 1;
nodes = (
"380 580 LINE",
"470 492 LINE",
"664 682 LINE",
"573 770 LINE"
);
},
{
closed = 1;
nodes = (
"342 290 OFFCURVE",
"363 287 OFFCURVE",
"380 282 CURVE SMOOTH",
"431 266 LINE",
"411 313 LINE",
"391 212 OFFCURVE",
"354 165 OFFCURVE",
"291 165 CURVE SMOOTH",
"244 165 OFFCURVE",
"222 178 OFFCURVE",
"231 226 CURVE SMOOTH",
"241 277 OFFCURVE",
"270 290 OFFCURVE",
"319 290 CURVE SMOOTH"
);
},
{
closed = 1;
nodes = (
"153 464 OFFCURVE",
"42 372 OFFCURVE",
"15 229 CURVE SMOOTH",
"-12 84 OFFCURVE",
"70 -9 OFFCURVE",
"243 -9 CURVE SMOOTH",
"398 -9 OFFCURVE",
"569 76 OFFCURVE",
"615 313 CURVE SMOOTH",
"657 527 OFFCURVE",
"614 619 OFFCURVE",
"368 734 CURVE SMOOTH",
"302 765 LINE",
"190 622 LINE",
"258 579 LINE SMOOTH",
"377 504 OFFCURVE",
"421 453 OFFCURVE",
"424 395 CURVE",
"437 415 LINE",
"393 439 LINE SMOOTH",
"364 455 OFFCURVE",
"330 464 OFFCURVE",
"295 464 CURVE SMOOTH"
);
}
);
};
components = (
{
name = partialdiff;
}
);
layerId = "6D60D92C-1450-4586-BB49-599D0D4C1213";
paths = (
{
closed = 1;
nodes = (
"656 666 LINE",
"558 765 LINE",
"277 472 LINE",
"374 373 LINE"
);
}
);
width = 636;
},
{
background = {
paths = (
{
closed = 1;
nodes = (
"609 703 LINE",
"554 766 LINE",
"386 624 LINE",
"443 563 LINE"
);
}
);
};
components = (
{
name = partialdiff;
}
);
layerId = "74CCE9C5-5564-42E0-9214-3BF0725DF94D";
paths = (
{
closed = 1;
nodes = (
"609 697 LINE",
"549 766 LINE",
"291 548 LINE",
"354 481 LINE"
);
}
);
width = 600;
}
);
leftKerningGroup = eth;
leftMetricsKey = partialdiff;
rightKerningGroup = eth;
rightMetricsKey = partialdiff;
unicode = 00F0;
},
{
color = 3;
glyphname = dcroat;
lastChange = "2021-09-30 23:32:10 +0000";
layers = (
{
background = {
paths = (
{
closed = 1;
nodes = (
"291 -6 OFFCURVE",
"339 9 OFFCURVE",
"393 36 CURVE SMOOTH",
"440 61 LINE",
"437 84 LINE",
"382 61 LINE SMOOTH",
"328 38 OFFCURVE",
"290 27 OFFCURVE",
"252 27 CURVE SMOOTH",
"137 27 OFFCURVE",
"68 125 OFFCURVE",
"96 260 CURVE SMOOTH",
"119 377 OFFCURVE",
"208 463 OFFCURVE",
"337 463 CURVE SMOOTH",
"374 463 OFFCURVE",
"410 453 OFFCURVE",
"456 431 CURVE SMOOTH",
"499 410 LINE",
"436 81 LINE",
"435 67 LINE",
"430 0 LINE",
"456 0 LINE",
"604 770 LINE",
"563 738 LINE",
"502 428 LINE",
"512 433 LINE",
"474 455 LINE SMOOTH",
"431 480 OFFCURVE",
"388 496 OFFCURVE",
"338 496 CURVE SMOOTH",
"258 496 OFFCURVE",
"188 466 OFFCURVE",
"139 417 CURVE SMOOTH",
"100 379 OFFCURVE",
"70 328 OFFCURVE",
"59 266 CURVE SMOOTH",
"29 119 OFFCURVE",
"104 -6 OFFCURVE",
"243 -6 CURVE SMOOTH"
);
},
{
closed = 1;
nodes = (
"673 591 LINE",
"680 624 LINE",
"332 624 LINE",
"326 591 LINE"
);
}
);
};
layerId = "13A5184A-77A5-4E03-80A5-A9198A2CA35F";
paths = (
{
closed = 1;
nodes = (
"291 -6 OFFCURVE",
"339 9 OFFCURVE",
"393 36 CURVE SMOOTH",
"440 61 LINE",
"437 84 LINE",
"382 61 LINE SMOOTH",
"328 38 OFFCURVE",
"290 27 OFFCURVE",
"252 27 CURVE SMOOTH",
"137 27 OFFCURVE",
"68 125 OFFCURVE",
"96 260 CURVE SMOOTH",
"119 377 OFFCURVE",
"208 463 OFFCURVE",
"337 463 CURVE SMOOTH",
"374 463 OFFCURVE",
"410 453 OFFCURVE",
"456 431 CURVE SMOOTH",
"499 410 LINE",
"436 81 LINE",
"435 67 LINE",
"430 0 LINE",
"456 0 LINE",
"604 770 LINE",
"563 738 LINE",
"502 428 LINE",
"512 433 LINE",
"474 455 LINE SMOOTH",
"431 480 OFFCURVE",
"388 496 OFFCURVE",
"338 496 CURVE SMOOTH",
"199 496 OFFCURVE",
"85 404 OFFCURVE",
"59 266 CURVE SMOOTH",
"29 119 OFFCURVE",
"104 -6 OFFCURVE",
"243 -6 CURVE SMOOTH"
);
},
{
closed = 1;
nodes = (
"673 591 LINE",
"680 624 LINE",
"332 624 LINE",
"326 591 LINE"
);
}
);
width = 611;
},
{
background = {
paths = (
{
closed = 1;
nodes = (
"260 -9 OFFCURVE",
"312 10 OFFCURVE",
"365 41 CURVE SMOOTH",
"415 70 LINE",
"380 185 LINE",
"360 178 LINE SMOOTH",
"341 171 OFFCURVE",
"322 168 OFFCURVE",
"307 168 CURVE SMOOTH",
"254 168 OFFCURVE",
"228 190 OFFCURVE",
"239 249 CURVE SMOOTH",
"249 297 OFFCURVE",
"283 318 OFFCURVE",
"333 318 CURVE SMOOTH",
"348 318 OFFCURVE",
"366 315 OFFCURVE",
"383 310 CURVE SMOOTH",
"404 304 LINE",
"368 136 LINE",
"392 100 LINE",
"401 0 LINE",
"559 0 LINE",
"709 770 LINE",
"485 738 LINE",
"425 425 LINE",
"485 432 LINE",
"425 462 LINE SMOOTH",
"381 483 OFFCURVE",
"334 495 OFFCURVE",
"287 495 CURVE SMOOTH",
"221 495 OFFCURVE",
"157 473 OFFCURVE",
"105 423 CURVE SMOOTH",
"61 380 OFFCURVE",
"37 325 OFFCURVE",
"26 269 CURVE SMOOTH",
"3 148 OFFCURVE",
"43 -9 OFFCURVE",
"210 -9 CURVE SMOOTH"
);
},
{
closed = 1;
nodes = (
"728 544 LINE",
"754 679 LINE",
"297 679 LINE",
"271 544 LINE"
);
}
);
};
guideLines = (
{
position = "{278, 495}";
},
{
angle = 79;
position = "{59, 438}";
},
{
angle = 79;
position = "{271, 438}";
},
{
angle = 79;
position = "{272, 417}";
},
{
angle = 79;
position = "{347, 391}";
}
);
layerId = "6D60D92C-1450-4586-BB49-599D0D4C1213";
paths = (
{
closed = 1;
nodes = (
"260 -9 OFFCURVE",
"312 10 OFFCURVE",
"365 41 CURVE SMOOTH",
"415 70 LINE",
"380 185 LINE",
"360 178 LINE SMOOTH",
"341 171 OFFCURVE",
"322 168 OFFCURVE",
"307 168 CURVE SMOOTH",
"254 168 OFFCURVE",
"228 190 OFFCURVE",
"239 249 CURVE SMOOTH",
"249 297 OFFCURVE",
"283 318 OFFCURVE",
"333 318 CURVE SMOOTH",
"348 318 OFFCURVE",
"366 315 OFFCURVE",
"383 310 CURVE SMOOTH",
"404 304 LINE",
"368 136 LINE",
"392 100 LINE",
"401 0 LINE",
"559 0 LINE",
"709 770 LINE",
"485 738 LINE",
"425 425 LINE",
"485 432 LINE",
"425 462 LINE SMOOTH",
"381 483 OFFCURVE",
"334 495 OFFCURVE",
"287 495 CURVE SMOOTH",
"154 495 OFFCURVE",
"53 407 OFFCURVE",
"26 269 CURVE SMOOTH",
"3 148 OFFCURVE",
"43 -9 OFFCURVE",
"210 -9 CURVE SMOOTH"
);
},
{
closed = 1;
nodes = (
"728 544 LINE",
"754 679 LINE",
"297 679 LINE",
"271 544 LINE"
);
}
);
width = 678;
},
{
background = {
paths = (
{
closed = 1;
nodes = (
"272 -8 OFFCURVE",
"321 11 OFFCURVE",
"369 41 CURVE SMOOTH",
"412 69 LINE",
"403 146 LINE",
"355 126 LINE SMOOTH",
"327 114 OFFCURVE",
"298 107 OFFCURVE",
"270 107 CURVE SMOOTH",
"190 107 OFFCURVE",
"155 158 OFFCURVE",
"173 253 CURVE SMOOTH",
"191 346 OFFCURVE",
"237 382 OFFCURVE",
"310 382 CURVE SMOOTH",
"338 382 OFFCURVE",
"374 371 OFFCURVE",
"396 363 CURVE SMOOTH",
"435 348 LINE",
"389 114 LINE",
"400 93 LINE",
"397 0 LINE",
"493 0 LINE",
"643 770 LINE",
"509 738 LINE",
"450 427 LINE",
"479 435 LINE",
"425 461 LINE SMOOTH",
"375 486 OFFCURVE",
"331 496 OFFCURVE",
"289 496 CURVE SMOOTH",
"228 496 OFFCURVE",
"169 472 OFFCURVE",
"122 421 CURVE SMOOTH",
"80 377 OFFCURVE",
"58 320 OFFCURVE",
"47 263 CURVE SMOOTH",
"22 136 OFFCURVE",
"77 -8 OFFCURVE",
"230 -8 CURVE SMOOTH"
);
},
{
closed = 1;
nodes = (
"687 568 LINE",
"704 652 LINE",
"300 652 LINE",
"284 568 LINE"
);
}
);
};
guideLines = (
{
angle = 79;
position = "{107, 575}";
},
{
angle = 79;
position = "{234, 568}";
},
{
angle = 79;
position = "{246, 280}";
},
{
angle = 79;
position = "{289, 280}";
},
{
angle = 79;
position = "{306, 280}";
},
{
position = "{109, 496}";
},
{
position = "{198, 382}";
}
);
layerId = "74CCE9C5-5564-42E0-9214-3BF0725DF94D";
paths = (
{
closed = 1;
nodes = (
"272 -8 OFFCURVE",
"321 11 OFFCURVE",
"369 41 CURVE SMOOTH",
"412 69 LINE",
"403 146 LINE",
"355 126 LINE SMOOTH",
"327 114 OFFCURVE",
"298 107 OFFCURVE",
"270 107 CURVE SMOOTH",
"190 107 OFFCURVE",
"155 158 OFFCURVE",
"173 253 CURVE SMOOTH",
"191 346 OFFCURVE",
"237 382 OFFCURVE",
"310 382 CURVE SMOOTH",
"338 382 OFFCURVE",
"374 371 OFFCURVE",
"396 363 CURVE SMOOTH",
"435 348 LINE",
"389 114 LINE",
"400 93 LINE",
"397 0 LINE",
"493 0 LINE",
"643 770 LINE",
"509 738 LINE",
"450 427 LINE",
"479 435 LINE",
"425 461 LINE SMOOTH",
"375 486 OFFCURVE",
"331 496 OFFCURVE",
"289 496 CURVE SMOOTH",
"165 496 OFFCURVE",
"71 399 OFFCURVE",
"47 263 CURVE SMOOTH",
"22 136 OFFCURVE",
"77 -8 OFFCURVE",
"230 -8 CURVE SMOOTH"
);
},
{
closed = 1;
nodes = (
"687 568 LINE",
"704 652 LINE",
"300 652 LINE",
"284 568 LINE"
);
}
);
width = 632;
}
);
leftKerningGroup = o;
leftMetricsKey = d;
rightMetricsKey = "=|hbar";
unicode = 0111;
},
{
color = 4;
glyphname = e;
lastChange = "2021-09-30 23:32:11 +0000";
layers = (
{
anchors = (
{
name = bottom;
position = "{272, -35}";
},
{
name = ogonek;
position = "{362, 10}";
},
{
name = top;
position = "{384, 550}";
}
);
background = {
paths = (
{
closed = 1;
nodes = (
"343 -9 OFFCURVE",
"416 4 OFFCURVE",
"491 32 CURVE SMOOTH",
"576 64 LINE",
"546 28 LINE",
"506 222 LINE",
"542 181 LINE",
"460 165 LINE SMOOTH",
"415 156 OFFCURVE",
"375 151 OFFCURVE",
"342 151 CURVE SMOOTH",
"247 151 OFFCURVE",
"220 181 OFFCURVE",
"239 279 CURVE SMOOTH",
"256 368 OFFCURVE",
"286 392 OFFCURVE",
"351 392 CURVE SMOOTH",
"402 392 OFFCURVE",
"424 361 OFFCURVE",
"410 291 CURVE",
"455 321 LINE",
"204 321 LINE",
"183 210 LINE",
"580 210 LINE",
"588 255 LINE SMOOTH",
"621 428 OFFCURVE",
"536 535 OFFCURVE",
"370 535 CURVE SMOOTH",
"217 535 OFFCURVE",
"62 458 OFFCURVE",
"28 276 CURVE SMOOTH",
"-6 101 OFFCURVE",
"108 -9 OFFCURVE",
"277 -9 CURVE SMOOTH"
);
}
);
};
guideLines = (
{
angle = 79;
position = "{66, 476}";
},
{
angle = 79;
position = "{638, 464}";
},
{
angle = 79;
position = "{265, 418}";
}
);
layerId = "6D60D92C-1450-4586-BB49-599D0D4C1213";
paths = (
{
closed = 1;
nodes = (
"347 -9 OFFCURVE",
"424 6 OFFCURVE",
"504 39 CURVE SMOOTH",
"594 77 LINE",
"546 28 LINE",
"506 222 LINE",
"542 181 LINE",
"460 165 LINE SMOOTH",
"415 156 OFFCURVE",
"375 151 OFFCURVE",
"342 151 CURVE SMOOTH",
"247 151 OFFCURVE",
"220 181 OFFCURVE",
"239 279 CURVE SMOOTH",
"256 368 OFFCURVE",
"286 392 OFFCURVE",
"351 392 CURVE SMOOTH",
"402 392 OFFCURVE",
"424 361 OFFCURVE",
"410 291 CURVE",
"455 321 LINE",
"204 321 LINE",
"183 210 LINE",
"580 210 LINE",
"588 255 LINE SMOOTH",
"621 428 OFFCURVE",
"536 535 OFFCURVE",
"370 535 CURVE SMOOTH",
"217 535 OFFCURVE",
"62 458 OFFCURVE",
"28 276 CURVE SMOOTH",
"-6 101 OFFCURVE",
"108 -9 OFFCURVE",
"277 -9 CURVE SMOOTH"
);
}
);
width = 605;
},
{
anchors = (
{
name = bottom;
position = "{255, -35}";
},
{
name = ogonek;
position = "{281, 10}";
},
{
name = top;
position = "{347, 550}";
}
);
background = {
paths = (
{
closed = 1;
nodes = (
"314 0 OFFCURVE",
"359 9 OFFCURVE",
"407 26 CURVE SMOOTH",
"462 46 LINE",
"446 21 LINE",
"430 75 LINE",
"455 71 LINE",
"397 53 LINE SMOOTH",
"354 40 OFFCURVE",
"315 33 OFFCURVE",
"279 33 CURVE SMOOTH",
"146 33 OFFCURVE",
"86 120 OFFCURVE",
"112 261 CURVE SMOOTH",
"137 399 OFFCURVE",
"242 469 OFFCURVE",
"369 469 CURVE SMOOTH",
"403 469 OFFCURVE",
"440 464 OFFCURVE",
"486 450 CURVE SMOOTH",
"538 434 LINE",
"499 431 LINE",
"522 481 LINE",
"540 462 LINE",
"499 478 LINE SMOOTH",
"460 493 OFFCURVE",
"413 502 OFFCURVE",
"371 502 CURVE SMOOTH",
"230 502 OFFCURVE",
"108 424 OFFCURVE",
"77 268 CURVE SMOOTH",
"46 113 OFFCURVE",
"119 0 OFFCURVE",
"273 0 CURVE SMOOTH"
);
}
);
};
guideLines = (
{
angle = 79;
position = "{86, 428}";
},
{
angle = 79;
position = "{123, 428}";
}
);
layerId = "13A5184A-77A5-4E03-80A5-A9198A2CA35F";
paths = (
{
closed = 1;
nodes = (
"306 -6 OFFCURVE",
"361 8 OFFCURVE",
"407 27 CURVE SMOOTH",
"458 48 LINE",
"443 18 LINE",
"422 81 LINE",
"451 72 LINE",
"398 53 LINE SMOOTH",
"353 37 OFFCURVE",
"309 27 OFFCURVE",
"264 27 CURVE SMOOTH",
"143 27 OFFCURVE",
"65 109 OFFCURVE",
"94 259 CURVE SMOOTH",
"120 391 OFFCURVE",
"219 463 OFFCURVE",
"329 463 CURVE SMOOTH",
"444 463 OFFCURVE",
"490 380 OFFCURVE",
"466 258 CURVE",
"492 280 LINE",
"73 280 LINE",
"67 248 LINE",
"498 248 LINE",
"502 269 LINE SMOOTH",
"525 386 OFFCURVE",
"472 496 OFFCURVE",
"331 496 CURVE SMOOTH",
"188 496 OFFCURVE",
"83 396 OFFCURVE",
"57 257 CURVE SMOOTH",
"25 93 OFFCURVE",
"125 -6 OFFCURVE",
"259 -6 CURVE SMOOTH"
);
}
);
width = 547;
},
{
anchors = (
{
name = bottom;
position = "{264, -35}";
},
{
name = ogonek;
position = "{334, 10}";
},
{
name = top;
position = "{351, 550}";
}
);
background = {
paths = (
{
closed = 1;
nodes = (
"431 -8 OFFCURVE",
"524 89 OFFCURVE",
"552 231 CURVE SMOOTH",
"582 376 OFFCURVE",
"506 516 OFFCURVE",
"337 516 CURVE SMOOTH",
"170 516 OFFCURVE",
"77 417 OFFCURVE",
"49 277 CURVE SMOOTH",
"19 119 OFFCURVE",
"110 -8 OFFCURVE",
"266 -8 CURVE SMOOTH"
);
},
{
closed = 1;
nodes = (
"208 107 OFFCURVE",
"153 159 OFFCURVE",
"175 268 CURVE SMOOTH",
"190 350 OFFCURVE",
"235 401 OFFCURVE",
"322 401 CURVE SMOOTH",
"411 401 OFFCURVE",
"442 326 OFFCURVE",
"425 240 CURVE SMOOTH",
"410 150 OFFCURVE",
"356 107 OFFCURVE",
"275 107 CURVE SMOOTH"
);
}
);
};
guideLines = (
{
angle = 79;
position = "{96, 516}";
},
{
angle = 79;
position = "{201, 401}";
}
);
layerId = "74CCE9C5-5564-42E0-9214-3BF0725DF94D";
paths = (
{
closed = 1;
nodes = (
"321 -8 OFFCURVE",
"381 4 OFFCURVE",
"442 30 CURVE SMOOTH",
"507 58 LINE",
"485 23 LINE",
"453 152 LINE",
"480 136 LINE",
"417 119 LINE SMOOTH",
"376 108 OFFCURVE",
"335 102 OFFCURVE",
"301 102 CURVE SMOOTH",
"202 102 OFFCURVE",
"153 149 OFFCURVE",
"176 271 CURVE SMOOTH",
"194 362 OFFCURVE",
"246 409 OFFCURVE",
"325 409 CURVE SMOOTH",
"402 409 OFFCURVE",
"439 352 OFFCURVE",
"423 273 CURVE",
"465 312 LINE",
"144 312 LINE",
"126 220 LINE",
"529 220 LINE",
"538 261 LINE SMOOTH",
"564 397 OFFCURVE",
"495 516 OFFCURVE",
"345 516 CURVE SMOOTH",
"202 516 OFFCURVE",
"81 434 OFFCURVE",
"48 270 CURVE SMOOTH",
"16 101 OFFCURVE",
"120 -8 OFFCURVE",
"268 -8 CURVE SMOOTH"
);
}
);
width = 571;
}
);
leftKerningGroup = o;
leftMetricsKey = o;
rightKerningGroup = e;
unicode = 0065;
},
{
color = 4;
glyphname = f;
lastChange = "2021-09-30 22:27:23 +0000";
layers = (
{
background = {
paths = (
{
closed = 1;
nodes = (
"101 0 LINE",
"189 457 LINE",
"382 457 LINE",
"389 490 LINE",
"196 490 LINE",
"220 613 LINE SMOOTH",
"235 690 OFFCURVE",
"280 723 OFFCURVE",
"366 723 CURVE SMOOTH",
"388 723 OFFCURVE",
"411 720 OFFCURVE",
"436 716 CURVE SMOOTH",
"470 710 LINE",
"449 705 LINE",
"466 748 LINE",
"474 735 LINE",
"448 743 LINE SMOOTH",
"424 751 OFFCURVE",
"393 756 OFFCURVE",
"365 756 CURVE SMOOTH",
"269 756 OFFCURVE",
"204 710 OFFCURVE",
"187 621 CURVE SMOOTH",
"161 490 LINE",
"46 480 LINE",
"41 457 LINE",
"154 457 LINE",
"66 0 LINE"
);
}
);
};
layerId = "13A5184A-77A5-4E03-80A5-A9198A2CA35F";
paths = (
{
closed = 1;
nodes = (
"101 0 LINE",
"189 457 LINE",
"382 457 LINE",
"389 490 LINE",
"196 490 LINE",
"220 613 LINE SMOOTH",
"235 690 OFFCURVE",
"280 723 OFFCURVE",
"366 723 CURVE SMOOTH",
"388 723 OFFCURVE",
"411 720 OFFCURVE",
"436 716 CURVE SMOOTH",
"470 710 LINE",
"449 705 LINE",
"466 748 LINE",
"474 735 LINE",
"448 743 LINE SMOOTH",
"424 751 OFFCURVE",
"393 756 OFFCURVE",
"365 756 CURVE SMOOTH",
"265 756 OFFCURVE",
"204 712 OFFCURVE",
"188 626 CURVE SMOOTH",
"161 490 LINE",
"46 480 LINE",
"41 457 LINE",
"154 457 LINE",
"66 0 LINE"
);
}
);
width = 360;
},
{
background = {
paths = (
{
closed = 1;
nodes = (
"286 0 LINE",
"355 358 LINE",
"504 358 LINE",
"537 525 LINE",
"389 525 LINE",
"396 563 LINE SMOOTH",
"401 589 OFFCURVE",
"421 601 OFFCURVE",
"475 601 CURVE SMOOTH",
"489 601 OFFCURVE",
"506 599 OFFCURVE",
"527 597 CURVE SMOOTH",
"575 591 LINE",
"535 568 LINE",
"616 779 LINE",
"654 722 LINE",
"585 742 LINE SMOOTH",
"535 756 OFFCURVE",
"487 765 OFFCURVE",
"441 765 CURVE SMOOTH",
"312 765 OFFCURVE",
"208 715 OFFCURVE",
"182 582 CURVE SMOOTH",
"171 525 LINE",
"60 491 LINE",
"34 358 LINE",
"138 358 LINE",
"69 0 LINE"
);
}
);
};
layerId = "6D60D92C-1450-4586-BB49-599D0D4C1213";
paths = (
{
closed = 1;
nodes = (
"286 0 LINE",
"355 358 LINE",
"504 358 LINE",
"537 525 LINE",
"389 525 LINE",
"396 563 LINE SMOOTH",
"401 589 OFFCURVE",
"421 601 OFFCURVE",
"475 601 CURVE SMOOTH",
"489 601 OFFCURVE",
"506 599 OFFCURVE",
"527 597 CURVE SMOOTH",
"575 591 LINE",
"535 568 LINE",
"616 779 LINE",
"654 717 LINE",
"585 738 LINE SMOOTH",
"535 753 OFFCURVE",
"475 765 OFFCURVE",
"429 765 CURVE SMOOTH",
"289 765 OFFCURVE",
"206 719 OFFCURVE",
"183 592 CURVE SMOOTH",
"171 525 LINE",
"60 491 LINE",
"34 358 LINE",
"138 358 LINE",
"69 0 LINE"
);
}
);
width = 511;
},
{
background = {
paths = (
{
closed = 1;
nodes = (
"197 0 LINE",
"274 398 LINE",
"428 398 LINE",
"450 508 LINE",
"296 508 LINE",
"309 576 LINE SMOOTH",
"319 628 OFFCURVE",
"356 647 OFFCURVE",
"413 647 CURVE SMOOTH",
"429 647 OFFCURVE",
"447 644 OFFCURVE",
"468 641 CURVE SMOOTH",
"504 635 LINE",
"464 594 LINE",
"526 764 LINE",
"550 730 LINE",
"506 743 LINE SMOOTH",
"470 754 OFFCURVE",
"431 761 OFFCURVE",
"397 761 CURVE SMOOTH",
"293 761 OFFCURVE",
"210 713 OFFCURVE",
"187 594 CURVE SMOOTH",
"170 508 LINE",
"56 486 LINE",
"38 398 LINE",
"148 398 LINE",
"71 0 LINE"
);
}
);
};
layerId = "74CCE9C5-5564-42E0-9214-3BF0725DF94D";
paths = (
{
closed = 1;
nodes = (
"197 0 LINE",
"274 398 LINE",
"428 398 LINE",
"450 508 LINE",
"296 508 LINE",
"310 580 LINE SMOOTH",
"319 628 OFFCURVE",
"342 647 OFFCURVE",
"406 647 CURVE SMOOTH",
"422 647 OFFCURVE",
"447 644 OFFCURVE",
"468 640 CURVE SMOOTH",
"504 633 LINE",
"464 594 LINE",
"526 764 LINE",
"550 725 LINE",
"491 742 LINE SMOOTH",
"465 750 OFFCURVE",
"417 761 OFFCURVE",
"381 761 CURVE SMOOTH",
"277 761 OFFCURVE",
"211 716 OFFCURVE",
"191 617 CURVE SMOOTH",
"170 508 LINE",
"56 486 LINE",
"38 398 LINE",
"148 398 LINE",
"71 0 LINE"
);
}
);
width = 425;
}
);
leftKerningGroup = f;
rightKerningGroup = f;
unicode = 0066;
},
{
color = 4;
glyphname = g;
lastChange = "2021-09-30 23:32:11 +0000";
layers = (
{
anchors = (
{
name = top;
position = "{354, 550}";
}
);
background = {
paths = (
{
closed = 1;
nodes = (
"339 -209 OFFCURVE",
"422 -167 OFFCURVE",
"445 -47 CURVE SMOOTH",
"549 490 LINE",
"520 490 LINE",
"502 429 LINE",
"501 423 LINE",
"412 -41 LINE",
"392 -145 OFFCURVE",
"324 -176 OFFCURVE",
"207 -176 CURVE SMOOTH",
"165 -176 OFFCURVE",
"110 -170 OFFCURVE",
"67 -161 CURVE SMOOTH",
"18 -150 LINE",
"42 -133 LINE",
"19 -191 LINE",
"3 -175 LINE",
"56 -189 LINE SMOOTH",
"97 -200 OFFCURVE",
"160 -209 OFFCURVE",
"201 -209 CURVE SMOOTH"
);
},
{
closed = 1;
nodes = (
"291 -6 OFFCURVE",
"339 9 OFFCURVE",
"393 36 CURVE SMOOTH",
"440 61 LINE",
"437 84 LINE",
"382 61 LINE SMOOTH",
"328 38 OFFCURVE",
"290 27 OFFCURVE",
"252 27 CURVE SMOOTH",
"137 27 OFFCURVE",
"68 125 OFFCURVE",
"96 260 CURVE SMOOTH",
"119 377 OFFCURVE",
"206 463 OFFCURVE",
"337 463 CURVE SMOOTH",
"374 463 OFFCURVE",
"410 452 OFFCURVE",
"456 431 CURVE SMOOTH",
"502 409 LINE",
"513 433 LINE",
"464 460 LINE SMOOTH",
"416 487 OFFCURVE",
"362 496 OFFCURVE",
"325 496 CURVE SMOOTH",
"257 496 OFFCURVE",
"195 473 OFFCURVE",
"142 423 CURVE SMOOTH",
"96 380 OFFCURVE",
"70 324 OFFCURVE",
"59 266 CURVE SMOOTH",
"29 119 OFFCURVE",
"104 -6 OFFCURVE",
"243 -6 CURVE SMOOTH"
);
}
);
};
layerId = "13A5184A-77A5-4E03-80A5-A9198A2CA35F";
paths = (
{
closed = 1;
nodes = (
"339 -209 OFFCURVE",
"422 -167 OFFCURVE",
"445 -47 CURVE SMOOTH",
"549 490 LINE",
"520 490 LINE",
"502 429 LINE",
"501 423 LINE",
"412 -41 LINE",
"392 -145 OFFCURVE",
"324 -176 OFFCURVE",
"207 -176 CURVE SMOOTH",
"165 -176 OFFCURVE",
"110 -170 OFFCURVE",
"67 -161 CURVE SMOOTH",
"18 -150 LINE",
"42 -133 LINE",
"19 -191 LINE",
"3 -175 LINE",
"56 -189 LINE SMOOTH",
"97 -200 OFFCURVE",
"160 -209 OFFCURVE",
"201 -209 CURVE SMOOTH"
);
},
{
closed = 1;
nodes = (
"291 -6 OFFCURVE",
"339 9 OFFCURVE",
"393 36 CURVE SMOOTH",
"440 61 LINE",
"437 84 LINE",
"382 61 LINE SMOOTH",
"328 38 OFFCURVE",
"290 27 OFFCURVE",
"252 27 CURVE SMOOTH",
"137 27 OFFCURVE",
"68 125 OFFCURVE",
"96 260 CURVE SMOOTH",
"119 377 OFFCURVE",
"206 463 OFFCURVE",
"337 463 CURVE SMOOTH",
"374 463 OFFCURVE",
"410 452 OFFCURVE",
"456 431 CURVE SMOOTH",
"502 409 LINE",
"513 433 LINE",
"464 460 LINE SMOOTH",
"416 487 OFFCURVE",
"362 496 OFFCURVE",
"325 496 CURVE SMOOTH",
"192 496 OFFCURVE",
"87 406 OFFCURVE",
"59 266 CURVE SMOOTH",
"29 119 OFFCURVE",
"104 -6 OFFCURVE",
"243 -6 CURVE SMOOTH"
);
}
);
width = 592;
},
{
anchors = (
{
name = top;
position = "{378, 550}";
}
);
background = {
paths = (
{
closed = 1;
nodes = (
"398 -209 OFFCURVE",
"532 -148 OFFCURVE",
"565 28 CURVE SMOOTH",
"662 525 LINE",
"503 525 LINE",
"457 425 LINE",
"418 389 LINE",
"348 20 LINE SMOOTH",
"339 -24 OFFCURVE",
"291 -37 OFFCURVE",
"229 -37 CURVE SMOOTH",
"188 -37 OFFCURVE",
"141 -31 OFFCURVE",
"96 -25 CURVE SMOOTH",
"28 -16 LINE",
"80 38 LINE",
"-17 -195 LINE",
"-54 -158 LINE",
"35 -182 LINE SMOOTH",
"97 -200 OFFCURVE",
"163 -209 OFFCURVE",
"224 -209 CURVE SMOOTH"
);
},
{
closed = 1;
nodes = (
"264 28 OFFCURVE",
"317 45 OFFCURVE",
"372 75 CURVE SMOOTH",
"421 103 LINE",
"386 216 LINE",
"366 210 LINE SMOOTH",
"346 203 OFFCURVE",
"326 199 OFFCURVE",
"311 199 CURVE SMOOTH",
"259 199 OFFCURVE",
"236 228 OFFCURVE",
"249 291 CURVE SMOOTH",
"261 356 OFFCURVE",
"288 369 OFFCURVE",
"339 369 CURVE SMOOTH",
"358 369 OFFCURVE",
"376 366 OFFCURVE",
"399 361 CURVE SMOOTH",
"439 352 LINE",
"499 480 LINE",
"443 503 LINE SMOOTH",
"389 526 OFFCURVE",
"333 535 OFFCURVE",
"291 535 CURVE SMOOTH",
"158 535 OFFCURVE",
"61 439 OFFCURVE",
"32 296 CURVE SMOOTH",
"7 173 OFFCURVE",
"55 28 OFFCURVE",
"213 28 CURVE SMOOTH"
);
}
);
};
guideLines = (
{
angle = 79;
position = "{-12, 78}";
},
{
angle = 79;
position = "{217, 135}";
},
{
position = "{87, -170}";
}
);
layerId = "6D60D92C-1450-4586-BB49-599D0D4C1213";
paths = (
{
closed = 1;
nodes = (
"398 -209 OFFCURVE",
"532 -148 OFFCURVE",
"565 28 CURVE SMOOTH",
"662 525 LINE",
"503 525 LINE",
"457 425 LINE",
"418 389 LINE",
"348 20 LINE SMOOTH",
"339 -24 OFFCURVE",
"291 -37 OFFCURVE",
"229 -37 CURVE SMOOTH",
"188 -37 OFFCURVE",
"141 -31 OFFCURVE",
"96 -25 CURVE SMOOTH",
"28 -16 LINE",
"80 38 LINE",
"-17 -195 LINE",
"-40 -158 LINE",
"43 -182 LINE SMOOTH",
"103 -200 OFFCURVE",
"166 -209 OFFCURVE",
"224 -209 CURVE SMOOTH"
);
},
{
closed = 1;
nodes = (
"264 28 OFFCURVE",
"317 45 OFFCURVE",
"372 75 CURVE SMOOTH",
"421 103 LINE",
"386 216 LINE",
"366 210 LINE SMOOTH",
"346 203 OFFCURVE",
"326 199 OFFCURVE",
"311 199 CURVE SMOOTH",
"259 199 OFFCURVE",
"236 228 OFFCURVE",
"249 291 CURVE SMOOTH",
"261 356 OFFCURVE",
"288 369 OFFCURVE",
"339 369 CURVE SMOOTH",
"358 369 OFFCURVE",
"376 366 OFFCURVE",
"399 361 CURVE SMOOTH",
"439 352 LINE",
"499 480 LINE",
"443 503 LINE SMOOTH",
"389 526 OFFCURVE",
"333 535 OFFCURVE",
"291 535 CURVE SMOOTH",
"158 535 OFFCURVE",
"61 439 OFFCURVE",
"32 296 CURVE SMOOTH",
"7 173 OFFCURVE",
"55 28 OFFCURVE",
"213 28 CURVE SMOOTH"
);
}
);
width = 656;
},
{
anchors = (
{
name = top;
position = "{374, 550}";
}
);
associatedMasterId = "13A5184A-77A5-4E03-80A5-A9198A2CA35F";
background = {
paths = (
{
closed = 1;
nodes = (
"424 -33 LINE SMOOTH",
"404 -137 OFFCURVE",
"336 -168 OFFCURVE",
"220 -168 CURVE SMOOTH",
"177 -168 OFFCURVE",
"123 -162 OFFCURVE",
"80 -153 CURVE SMOOTH",
"30 -142 LINE",
"55 -125 LINE",
"31 -183 LINE",
"16 -167 LINE",
"68 -181 LINE SMOOTH",
"109 -192 OFFCURVE",
"172 -201 OFFCURVE",
"213 -201 CURVE SMOOTH",
"352 -201 OFFCURVE",
"435 -159 OFFCURVE",
"458 -39 CURVE SMOOTH",
"560 490 LINE",
"531 490 LINE",
"513 429 LINE",
"512 422 LINE"
);
},
{
closed = 1;
nodes = (
"525 450 LINE",
"464 473 LINE SMOOTH",
"427 487 OFFCURVE",
"388 496 OFFCURVE",
"350 496 CURVE SMOOTH",
"206 496 OFFCURVE",
"97 406 OFFCURVE",
"68 259 CURVE SMOOTH",
"40 116 OFFCURVE",
"118 -6 OFFCURVE",
"257 -6 CURVE SMOOTH",
"314 -6 OFFCURVE",
"389 19 OFFCURVE",
"457 88 CURVE",
"461 121 LINE",
"404 62 OFFCURVE",
"312 27 OFFCURVE",
"263 27 CURVE SMOOTH",
"135 27 OFFCURVE",
"81 133 OFFCURVE",
"106 258 CURVE SMOOTH",
"133 393 OFFCURVE",
"230 464 OFFCURVE",
"350 464 CURVE SMOOTH",
"382 464 OFFCURVE",
"414 457 OFFCURVE",
"445 446 CURVE SMOOTH",
"515 421 LINE"
);
}
);
};
layerId = "E9963A18-2978-45B0-B2F8-2B3AB45DD2E5";
name = "May 6 18, 11:23";
paths = (
{
closed = 1;
nodes = (
"424 -33 LINE SMOOTH",
"404 -137 OFFCURVE",
"336 -168 OFFCURVE",
"220 -168 CURVE SMOOTH",
"177 -168 OFFCURVE",
"123 -162 OFFCURVE",
"80 -153 CURVE SMOOTH",
"30 -142 LINE",
"55 -125 LINE",
"31 -183 LINE",
"16 -167 LINE",
"68 -181 LINE SMOOTH",
"109 -192 OFFCURVE",
"172 -201 OFFCURVE",
"213 -201 CURVE SMOOTH",
"352 -201 OFFCURVE",
"435 -159 OFFCURVE",
"458 -39 CURVE SMOOTH",
"560 490 LINE",
"531 490 LINE",
"513 429 LINE",
"512 422 LINE"
);
},
{
closed = 1;
nodes = (
"525 450 LINE",
"464 473 LINE SMOOTH",
"427 487 OFFCURVE",
"388 496 OFFCURVE",
"350 496 CURVE SMOOTH",
"206 496 OFFCURVE",
"97 406 OFFCURVE",
"68 259 CURVE SMOOTH",
"40 116 OFFCURVE",
"118 -6 OFFCURVE",
"257 -6 CURVE SMOOTH",
"314 -6 OFFCURVE",
"389 19 OFFCURVE",
"457 88 CURVE",
"461 121 LINE",
"404 62 OFFCURVE",
"312 27 OFFCURVE",
"263 27 CURVE SMOOTH",
"135 27 OFFCURVE",
"81 133 OFFCURVE",
"106 258 CURVE SMOOTH",
"133 393 OFFCURVE",
"230 464 OFFCURVE",
"350 464 CURVE SMOOTH",
"382 464 OFFCURVE",
"414 457 OFFCURVE",
"445 446 CURVE SMOOTH",
"515 421 LINE"
);
}
);
width = 608;
},
{
anchors = (
{
name = top;
position = "{349, 550}";
}
);
background = {
paths = (
{
closed = 1;
nodes = (
"361 -209 OFFCURVE",
"464 -150 OFFCURVE",
"495 3 CURVE SMOOTH",
"592 508 LINE",
"500 508 LINE",
"465 422 LINE",
"445 400 LINE",
"367 -5 LINE SMOOTH",
"354 -73 OFFCURVE",
"302 -93 OFFCURVE",
"230 -93 CURVE SMOOTH",
"175 -93 OFFCURVE",
"126 -87 OFFCURVE",
"88 -80 CURVE SMOOTH",
"30 -69 LINE",
"68 -48 LINE",
"12 -193 LINE",
"-13 -163 LINE",
"51 -183 LINE SMOOTH",
"101 -199 OFFCURVE",
"162 -209 OFFCURVE",
"222 -209 CURVE SMOOTH"
);
},
{
closed = 1;
nodes = (
"262 20 OFFCURVE",
"306 30 OFFCURVE",
"346 47 CURVE SMOOTH",
"418 77 LINE",
"399 160 LINE",
"361 148 LINE SMOOTH",
"334 139 OFFCURVE",
"307 135 OFFCURVE",
"281 135 CURVE SMOOTH",
"196 135 OFFCURVE",
"161 194 OFFCURVE",
"179 281 CURVE SMOOTH",
"195 361 OFFCURVE",
"249 401 OFFCURVE",
"322 401 CURVE SMOOTH",
"348 401 OFFCURVE",
"375 393 OFFCURVE",
"399 381 CURVE SMOOTH",
"445 358 LINE",
"485 440 LINE",
"438 472 LINE SMOOTH",
"391 503 OFFCURVE",
"341 516 OFFCURVE",
"299 516 CURVE SMOOTH",
"237 516 OFFCURVE",
"179 493 OFFCURVE",
"128 444 CURVE SMOOTH",
"85 402 OFFCURVE",
"64 347 OFFCURVE",
"52 290 CURVE SMOOTH",
"22 137 OFFCURVE",
"90 20 OFFCURVE",
"226 20 CURVE SMOOTH"
);
}
);
};
guideLines = (
{
angle = 79;
position = "{83, 452}";
},
{
angle = 79;
position = "{200, 394}";
}
);
layerId = "74CCE9C5-5564-42E0-9214-3BF0725DF94D";
paths = (
{
closed = 1;
nodes = (
"361 -209 OFFCURVE",
"464 -150 OFFCURVE",
"495 3 CURVE SMOOTH",
"592 508 LINE",
"500 508 LINE",
"465 422 LINE",
"445 400 LINE",
"367 -5 LINE SMOOTH",
"354 -73 OFFCURVE",
"302 -93 OFFCURVE",
"230 -93 CURVE SMOOTH",
"175 -93 OFFCURVE",
"126 -87 OFFCURVE",
"88 -80 CURVE SMOOTH",
"30 -69 LINE",
"68 -48 LINE",
"12 -193 LINE",
"-13 -163 LINE",
"51 -183 LINE SMOOTH",
"101 -199 OFFCURVE",
"162 -209 OFFCURVE",
"222 -209 CURVE SMOOTH"
);
},
{
closed = 1;
nodes = (
"262 20 OFFCURVE",
"306 30 OFFCURVE",
"346 47 CURVE SMOOTH",
"418 77 LINE",
"399 160 LINE",
"361 148 LINE SMOOTH",
"334 139 OFFCURVE",
"307 135 OFFCURVE",
"281 135 CURVE SMOOTH",
"196 135 OFFCURVE",
"161 194 OFFCURVE",
"179 281 CURVE SMOOTH",
"195 361 OFFCURVE",
"249 401 OFFCURVE",
"322 401 CURVE SMOOTH",
"348 401 OFFCURVE",
"375 393 OFFCURVE",
"399 381 CURVE SMOOTH",
"445 358 LINE",
"485 440 LINE",
"438 472 LINE SMOOTH",
"391 503 OFFCURVE",
"341 516 OFFCURVE",
"299 516 CURVE SMOOTH",
"173 516 OFFCURVE",
"79 425 OFFCURVE",
"52 290 CURVE SMOOTH",
"22 137 OFFCURVE",
"90 20 OFFCURVE",
"226 20 CURVE SMOOTH"
);
}
);
width = 614;
}
);
leftKerningGroup = o;
leftMetricsKey = d;
rightKerningGroup = u;
rightMetricsKey = u;
unicode = 0067;
},
{
color = 4;
glyphname = h;
lastChange = "2021-09-30 22:27:23 +0000";
layers = (
{
anchors = (
{
name = top.case;
position = "{249, 771}";
}
);
background = {
paths = (
{
closed = 1;
nodes = (
"211 0 LINE",
"275 328 LINE",
"296 335 LINE SMOOTH",
"309 339 OFFCURVE",
"322 341 OFFCURVE",
"337 341 CURVE SMOOTH",
"385 341 OFFCURVE",
"395 323 OFFCURVE",
"389 292 CURVE SMOOTH",
"332 0 LINE",
"549 0 LINE",
"617 350 LINE SMOOTH",
"637 455 OFFCURVE",
"586 535 OFFCURVE",
"455 535 CURVE SMOOTH",
"404 535 OFFCURVE",
"349 516 OFFCURVE",
"298 489 CURVE SMOOTH",
"218 447 LINE",
"294 425 LINE",
"361 770 LINE",
"138 738 LINE",
"-6 0 LINE"
);
}
);
};
guideLines = (
{
angle = 90;
position = "{177, 291}";
}
);
layerId = "6D60D92C-1450-4586-BB49-599D0D4C1213";
paths = (
{
closed = 1;
nodes = (
"211 0 LINE",
"275 328 LINE",
"296 335 LINE SMOOTH",
"309 339 OFFCURVE",
"322 341 OFFCURVE",
"337 341 CURVE SMOOTH",
"381 341 OFFCURVE",
"394 319 OFFCURVE",
"388 288 CURVE SMOOTH",
"332 0 LINE",
"549 0 LINE",
"616 343 LINE SMOOTH",
"638 460 OFFCURVE",
"563 535 OFFCURVE",
"457 535 CURVE SMOOTH",
"404 535 OFFCURVE",
"342 517 OFFCURVE",
"281 480 CURVE SMOOTH",
"218 442 LINE",
"294 425 LINE",
"361 770 LINE",
"138 738 LINE",
"-6 0 LINE"
);
}
);
width = 640;
},
{
anchors = (
{
name = top.case;
position = "{209, 771}";
}
);
background = {
paths = (
{
closed = 1;
nodes = (
"83 0 LINE",
"162 406 LINE",
"229 433 LINE SMOOTH",
"274 451 OFFCURVE",
"316 463 OFFCURVE",
"360 463 CURVE SMOOTH",
"451 463 OFFCURVE",
"494 420 OFFCURVE",
"477 332 CURVE SMOOTH",
"412 0 LINE",
"446 0 LINE",
"512 336 LINE SMOOTH",
"530 435 OFFCURVE",
"493 496 OFFCURVE",
"379 496 CURVE SMOOTH",
"331 496 OFFCURVE",
"275 485 OFFCURVE",
"220 458 CURVE SMOOTH",
"159 429 LINE",
"166 424 LINE",
"232 770 LINE",
"191 738 LINE",
"47 0 LINE"
);
}
);
};
layerId = "13A5184A-77A5-4E03-80A5-A9198A2CA35F";
paths = (
{
closed = 1;
nodes = (
"78 0 LINE",
"156 406 LINE",
"214 429 LINE SMOOTH",
"274 453 OFFCURVE",
"315 463 OFFCURVE",
"368 463 CURVE SMOOTH",
"447 463 OFFCURVE",
"486 418 OFFCURVE",
"472 340 CURVE SMOOTH",
"406 0 LINE",
"441 0 LINE",
"506 333 LINE SMOOTH",
"527 440 OFFCURVE",
"471 496 OFFCURVE",
"374 496 CURVE SMOOTH",
"318 496 OFFCURVE",
"263 481 OFFCURVE",
"206 454 CURVE SMOOTH",
"152 429 LINE",
"161 424 LINE",
"228 770 LINE",
"187 738 LINE",
"42 0 LINE"
);
}
);
width = 569;
},
{
anchors = (
{
name = top.case;
position = "{235, 771}";
}
);
background = {
anchors = (
{
name = top.case;
position = "{235, 771}";
}
);
paths = (
{
closed = 1;
nodes = (
"147 0 LINE",
"218 365 LINE",
"254 380 LINE SMOOTH",
"290 394 OFFCURVE",
"317 402 OFFCURVE",
"347 402 CURVE SMOOTH",
"399 402 OFFCURVE",
"424 372 OFFCURVE",
"415 325 CURVE SMOOTH",
"353 0 LINE",
"480 0 LINE",
"550 358 LINE SMOOTH",
"568 451 OFFCURVE",
"509 516 OFFCURVE",
"404 516 CURVE SMOOTH",
"354 516 OFFCURVE",
"304 502 OFFCURVE",
"265 483 CURVE SMOOTH",
"187 444 LINE",
"230 425 LINE",
"297 770 LINE",
"165 738 LINE",
"21 0 LINE"
);
}
);
};
layerId = "74CCE9C5-5564-42E0-9214-3BF0725DF94D";
paths = (
{
closed = 1;
nodes = (
"147 0 LINE",
"218 365 LINE",
"254 380 LINE SMOOTH",
"290 394 OFFCURVE",
"317 402 OFFCURVE",
"347 402 CURVE SMOOTH",
"399 402 OFFCURVE",
"424 372 OFFCURVE",
"415 325 CURVE SMOOTH",
"353 0 LINE",
"480 0 LINE",
"550 358 LINE SMOOTH",
"568 451 OFFCURVE",
"509 516 OFFCURVE",
"404 516 CURVE SMOOTH",
"354 516 OFFCURVE",
"304 502 OFFCURVE",
"265 483 CURVE SMOOTH",
"187 444 LINE",
"230 425 LINE",
"297 770 LINE",
"165 738 LINE",
"21 0 LINE"
);
}
);
width = 593;
}
);
leftKerningGroup = b;
leftMetricsKey = n;
rightKerningGroup = n;
rightMetricsKey = n;
unicode = 0068;
},
{
color = 3;
glyphname = hbar;
lastChange = "2021-09-30 22:27:23 +0000";
layers = (
{
layerId = "13A5184A-77A5-4E03-80A5-A9198A2CA35F";
paths = (
{
closed = 1;
nodes = (
"96 0 LINE",
"175 406 LINE",
"233 429 LINE SMOOTH",
"293 453 OFFCURVE",
"334 463 OFFCURVE",
"386 463 CURVE SMOOTH",
"466 463 OFFCURVE",
"505 418 OFFCURVE",
"490 340 CURVE SMOOTH",
"425 0 LINE",
"460 0 LINE",
"525 333 LINE SMOOTH",
"546 440 OFFCURVE",
"489 496 OFFCURVE",
"392 496 CURVE SMOOTH",
"337 496 OFFCURVE",
"281 481 OFFCURVE",
"224 454 CURVE SMOOTH",
"171 429 LINE",
"179 424 LINE",
"246 770 LINE",
"205 738 LINE",
"61 0 LINE"
);
},
{
closed = 1;
nodes = (
"421 591 LINE",
"427 624 LINE",
"79 624 LINE",
"73 591 LINE"
);
}
);
width = 588;
},
{
background = {
paths = (
{
closed = 1;
nodes = (
"235 0 LINE",
"291 288 LINE",
"313 295 LINE SMOOTH",
"325 299 OFFCURVE",
"339 301 OFFCURVE",
"354 301 CURVE SMOOTH",
"402 301 OFFCURVE",
"411 283 OFFCURVE",
"405 252 CURVE SMOOTH",
"356 0 LINE",
"573 0 LINE",
"633 310 LINE SMOOTH",
"653 415 OFFCURVE",
"602 495 OFFCURVE",
"471 495 CURVE SMOOTH",
"420 495 OFFCURVE",
"366 476 OFFCURVE",
"314 449 CURVE SMOOTH",
"234 407 LINE",
"310 385 LINE",
"385 770 LINE",
"162 738 LINE",
"18 0 LINE"
);
},
{
closed = 1;
nodes = (
"517 544 LINE",
"543 679 LINE",
"86 679 LINE",
"60 544 LINE"
);
}
);
};
layerId = "6D60D92C-1450-4586-BB49-599D0D4C1213";
paths = (
{
closed = 1;
nodes = (
"235 0 LINE",
"290 288 LINE",
"311 295 LINE SMOOTH",
"324 299 OFFCURVE",
"337 301 OFFCURVE",
"352 301 CURVE SMOOTH",
"396 301 OFFCURVE",
"409 279 OFFCURVE",
"403 248 CURVE SMOOTH",
"356 0 LINE",
"573 0 LINE",
"631 303 LINE SMOOTH",
"653 420 OFFCURVE",
"578 495 OFFCURVE",
"472 495 CURVE SMOOTH",
"419 495 OFFCURVE",
"357 477 OFFCURVE",
"296 440 CURVE SMOOTH",
"233 402 LINE",
"309 385 LINE",
"385 770 LINE",
"162 738 LINE",
"18 0 LINE"
);
},
{
closed = 1;
nodes = (
"517 544 LINE",
"543 679 LINE",
"86 679 LINE",
"60 544 LINE"
);
}
);
width = 664;
},
{
background = {
paths = (
{
closed = 1;
nodes = (
"165 0 LINE",
"236 365 LINE",
"272 380 LINE SMOOTH",
"308 394 OFFCURVE",
"335 402 OFFCURVE",
"365 402 CURVE SMOOTH",
"417 402 OFFCURVE",
"442 372 OFFCURVE",
"433 325 CURVE SMOOTH",
"371 0 LINE",
"498 0 LINE",
"568 358 LINE SMOOTH",
"586 451 OFFCURVE",
"527 516 OFFCURVE",
"422 516 CURVE SMOOTH",
"372 516 OFFCURVE",
"322 502 OFFCURVE",
"283 483 CURVE SMOOTH",
"205 444 LINE",
"248 425 LINE",
"315 770 LINE",
"183 738 LINE",
"39 0 LINE"
);
},
{
closed = 1;
nodes = (
"469 568 LINE",
"485 652 LINE",
"82 652 LINE",
"66 568 LINE"
);
}
);
};
guideLines = (
{
position = "{658, 496}";
}
);
layerId = "74CCE9C5-5564-42E0-9214-3BF0725DF94D";
paths = (
{
closed = 1;
nodes = (
"165 0 LINE",
"232 345 LINE",
"268 360 LINE SMOOTH",
"304 375 OFFCURVE",
"331 382 OFFCURVE",
"361 382 CURVE SMOOTH",
"413 382 OFFCURVE",
"438 352 OFFCURVE",
"429 305 CURVE SMOOTH",
"371 0 LINE",
"498 0 LINE",
"564 338 LINE SMOOTH",
"582 431 OFFCURVE",
"523 496 OFFCURVE",
"418 496 CURVE SMOOTH",
"368 496 OFFCURVE",
"318 482 OFFCURVE",
"279 463 CURVE SMOOTH",
"201 424 LINE",
"244 405 LINE",
"315 770 LINE",
"183 738 LINE",
"39 0 LINE"
);
},
{
closed = 1;
nodes = (
"469 568 LINE",
"485 652 LINE",
"82 652 LINE",
"66 568 LINE"
);
}
);
width = 611;
}
);
rightKerningGroup = n;
rightMetricsKey = n;
unicode = 0127;
},
{
glyphname = idotless;
lastChange = "2021-09-30 22:27:23 +0000";
layers = (
{
anchors = (
{
name = bottom;
position = "{50, -35}";
},
{
name = ogonek;
position = "{20, 10}";
},
{
name = top;
position = "{167, 550}";
}
);
layerId = "13A5184A-77A5-4E03-80A5-A9198A2CA35F";
paths = (
{
closed = 1;
nodes = (
"78 0 LINE",
"173 490 LINE",
"139 490 LINE",
"42 0 LINE"
);
}
);
width = 216;
},
{
anchors = (
{
name = bottom;
position = "{95, -35}";
},
{
name = ogonek;
position = "{97, 10}";
},
{
name = top;
position = "{210, 550}";
}
);
layerId = "6D60D92C-1450-4586-BB49-599D0D4C1213";
paths = (
{
closed = 1;
nodes = (
"211 0 LINE",
"313 525 LINE",
"96 525 LINE",
"-6 0 LINE"
);
}
);
width = 307;
},
{
anchors = (
{
name = bottom;
position = "{76, -35}";
},
{
name = ogonek;
position = "{62, 10}";
},
{
name = top;
position = "{191, 550}";
}
);
layerId = "74CCE9C5-5564-42E0-9214-3BF0725DF94D";
paths = (
{
closed = 1;
nodes = (
"147 0 LINE",
"246 508 LINE",
"120 508 LINE",
"21 0 LINE"
);
}
);
width = 267;
}
);
leftMetricsKey = n;
rightMetricsKey = u;
unicode = 0131;
},
{
glyphname = j;
lastChange = "2021-09-30 22:27:23 +0000";
layers = (
{
background = {
paths = (
{
closed = 1;
nodes = (
"-152 -192 LINE",
"-114 -202 LINE SMOOTH",
"-97 -206 OFFCURVE",
"-81 -209 OFFCURVE",
"-67 -209 CURVE SMOOTH",
"7 -209 OFFCURVE",
"46 -179 OFFCURVE",
"58 -116 CURVE SMOOTH",
"176 490 LINE",
"141 490 LINE",
"23 -116 LINE SMOOTH",
"16 -155 OFFCURVE",
"-10 -175 OFFCURVE",
"-52 -175 CURVE SMOOTH",
"-67 -175 OFFCURVE",
"-86 -173 OFFCURVE",
"-105 -171 CURVE SMOOTH",
"-145 -166 LINE",
"-120 -154 LINE",
"-139 -211 LINE"
);
},
{
closed = 1;
nodes = (
"208 646 OFFCURVE",
"228 662 OFFCURVE",
"231 681 CURVE SMOOTH",
"235 699 OFFCURVE",
"222 715 OFFCURVE",
"204 715 CURVE SMOOTH",
"185 715 OFFCURVE",
"166 699 OFFCURVE",
"162 681 CURVE SMOOTH",
"159 662 OFFCURVE",
"171 646 OFFCURVE",
"190 646 CURVE SMOOTH"
);
}
);
};
components = (
{
name = jdotless;
},
{
name = dotaccentcomb;
transform = "{1, 0, 0, 1, 110, 0}";
}
);
layerId = "13A5184A-77A5-4E03-80A5-A9198A2CA35F";
width = 216;
},
{
components = (
{
name = jdotless;
},
{
name = dotaccentcomb;
transform = "{1, 0, 0, 1, 156, 0}";
}
);
layerId = "6D60D92C-1450-4586-BB49-599D0D4C1213";
width = 310;
},
{
components = (
{
name = jdotless;
},
{
name = dotaccentcomb;
transform = "{1, 0, 0, 1, 135, 0}";
}
);
layerId = "74CCE9C5-5564-42E0-9214-3BF0725DF94D";
width = 268;
}
);
leftKerningGroup = j;
rightMetricsKey = i;
unicode = 006A;
},
{
glyphname = jdotless;
lastChange = "2021-09-30 22:27:23 +0000";
layers = (
{
anchors = (
{
name = top;
position = "{169, 550}";
}
);
background = {
paths = (
{
closed = 1;
nodes = (
"-148 -184 LINE",
"-110 -194 LINE SMOOTH",
"-93 -198 OFFCURVE",
"-77 -201 OFFCURVE",
"-54 -201 CURVE SMOOTH",
"11 -201 OFFCURVE",
"50 -171 OFFCURVE",
"62 -108 CURVE SMOOTH",
"179 490 LINE",
"144 490 LINE",
"27 -108 LINE SMOOTH",
"19 -147 OFFCURVE",
"-6 -167 OFFCURVE",
"-48 -167 CURVE SMOOTH",
"-63 -167 OFFCURVE",
"-82 -165 OFFCURVE",
"-101 -163 CURVE SMOOTH",
"-141 -158 LINE",
"-116 -146 LINE",
"-135 -203 LINE"
);
}
);
};
layerId = "13A5184A-77A5-4E03-80A5-A9198A2CA35F";
paths = (
{
closed = 1;
nodes = (
"-155 -192 LINE",
"-117 -202 LINE SMOOTH",
"-100 -206 OFFCURVE",
"-84 -209 OFFCURVE",
"-61 -209 CURVE SMOOTH",
"4 -209 OFFCURVE",
"43 -179 OFFCURVE",
"55 -116 CURVE SMOOTH",
"174 490 LINE",
"139 490 LINE",
"20 -117 LINE SMOOTH",
"12 -156 OFFCURVE",
"-13 -176 OFFCURVE",
"-55 -176 CURVE SMOOTH",
"-70 -176 OFFCURVE",
"-89 -174 OFFCURVE",
"-108 -172 CURVE SMOOTH",
"-148 -167 LINE",
"-123 -154 LINE",
"-142 -211 LINE"
);
}
);
width = 216;
},
{
anchors = (
{
name = top;
position = "{211, 550}";
}
);
layerId = "6D60D92C-1450-4586-BB49-599D0D4C1213";
paths = (
{
closed = 1;
nodes = (
"-198 -171 LINE",
"-136 -188 LINE SMOOTH",
"-99 -199 OFFCURVE",
"-42 -209 OFFCURVE",
"-11 -209 CURVE SMOOTH",
"109 -209 OFFCURVE",
"186 -149 OFFCURVE",
"207 -37 CURVE SMOOTH",
"315 525 LINE",
"98 525 LINE",
"-4 -1 LINE SMOOTH",
"-10 -30 OFFCURVE",
"-28 -39 OFFCURVE",
"-59 -39 CURVE SMOOTH",
"-69 -39 OFFCURVE",
"-82 -38 OFFCURVE",
"-93 -37 CURVE SMOOTH",
"-126 -33 LINE",
"-92 -12 LINE",
"-168 -217 LINE"
);
}
);
width = 310;
},
{
anchors = (
{
name = top;
position = "{193, 550}";
}
);
background = {
paths = (
{
closed = 1;
nodes = (
"-160 -180 LINE",
"-113 -195 LINE SMOOTH",
"-87 -203 OFFCURVE",
"-60 -209 OFFCURVE",
"-38 -209 CURVE SMOOTH",
"59 -209 OFFCURVE",
"117 -161 OFFCURVE",
"135 -68 CURVE SMOOTH",
"247 508 LINE",
"121 508 LINE",
"13 -45 LINE SMOOTH",
"7 -79 OFFCURVE",
"-13 -93 OFFCURVE",
"-47 -93 CURVE SMOOTH",
"-58 -93 OFFCURVE",
"-73 -92 OFFCURVE",
"-83 -91 CURVE SMOOTH",
"-120 -87 LINE",
"-86 -59 LINE",
"-141 -214 LINE"
);
}
);
};
layerId = "74CCE9C5-5564-42E0-9214-3BF0725DF94D";
paths = (
{
closed = 1;
nodes = (
"-160 -180 LINE",
"-105 -195 LINE SMOOTH",
"-75 -203 OFFCURVE",
"-44 -209 OFFCURVE",
"-18 -209 CURVE SMOOTH",
"60 -209 OFFCURVE",
"115 -173 OFFCURVE",
"133 -81 CURVE SMOOTH",
"247 508 LINE",
"121 508 LINE",
"13 -45 LINE SMOOTH",
"6 -83 OFFCURVE",
"-10 -93 OFFCURVE",
"-47 -93 CURVE SMOOTH",
"-58 -93 OFFCURVE",
"-73 -92 OFFCURVE",
"-83 -91 CURVE SMOOTH",
"-120 -87 LINE",
"-91 -58 LINE",
"-138 -214 LINE"
);
}
);
width = 268;
}
);
leftKerningGroup = j;
rightMetricsKey = u;
unicode = 0237;
},
